<svg xmlns="http://www.w3.org/2000/svg" width="112.158" height="131.652" viewBox="0 0 112.158 131.652">
  <g id="cubiertos_recetas" transform="translate(-1694.005 -398.512)">
    <path id="Trazado_124" data-name="Trazado 124" d="M1801.95,412.037c-8.016-10.732-22.478-8.959-32.623-1.66-9.155,6.588-12.341,18.279-13.4,26.925a32.431,32.431,0,0,0-.044,7.667,8.7,8.7,0,0,1-.219,4.1c-5.347,6.183-10.342,11.853-15.119,17.175-2.314-4.307-4.994-9.779-4.315-12.838.172-.768,1.314-1.792,2.324-2.7,1.468-1.316,2.986-2.677,3.445-4.581,1.376-5.731-3.363-12.309-6.821-17.113-.527-.731-1.013-1.407-1.425-2.011-1.676-2.456-3.212-4.948-4.7-7.357-7.185-11.661-13.959-22.668-32.426-20.965a2.889,2.889,0,0,0-2.264,4.271c4.884,8.834,24.308,46.029,37.7,72.611-3.694,4-7.292,7.829-10.834,11.51-1.835,1.907-4.26,4.083-6.827,6.387-7.32,6.571-15.618,14.02-18.071,21.7a11.645,11.645,0,0,0,3.4,12.673,10.127,10.127,0,0,0,6.489,2.325,11.537,11.537,0,0,0,5.566-1.482c6.259-3.448,9.323-10.234,12.026-16.222a65.2,65.2,0,0,1,3.526-7.071,188.473,188.473,0,0,1,11.093-15.88c.818,2.162,1.687,4.574,2.588,7.077,4,11.124,8.54,23.734,13.965,30.093,1.367,1.6,3.012,3.322,5.238,3.469.1.008.2.011.306.011,2.1,0,3.994-1.433,5.578-2.855,6.057-5.431.663-14.429-2.908-20.384l-.807-1.356q-1.785-3.034-3.6-6.068c-4.031-6.775-8.18-13.776-11.872-20.847,1.511-1.919,3.015-3.834,4.487-5.746.963-1.252,1.9-2.579,2.89-3.983,2.5-3.539,5.083-7.2,8.118-9.631,3.484-2.8,8.277-3.244,13.352-3.719a46.973,46.973,0,0,0,10.326-1.75c8.346-2.745,15.684-10.682,18.692-20.219C1807.331,425.545,1806.323,417.886,1801.95,412.037Zm-79.732,4.363q.7,1.069,1.406,2.185c-1.78.417-3.137,1.866-4.341,3.17a14.251,14.251,0,0,1-2.343,2.2,14.991,14.991,0,0,1-.938-3.261c.472-.262.968-.515,1.455-.762C1719.309,418.985,1721.195,418,1722.218,416.4Zm8.188,12.891c.208.3.436.63.678.969a23.263,23.263,0,0,0-6.006,3.17c-.455.3-.9.59-1.292.838-.266-.274-.547-.582-.8-.884.31-.317.632-.64.959-.969a41.551,41.551,0,0,0,4.885-5.54C1729.345,427.679,1729.855,428.482,1730.406,429.29ZM1698.78,402.6c7.477-.339,12.54,1.812,16.619,5.462a18.6,18.6,0,0,0-3.862,2.1A15.136,15.136,0,0,1,1708,412.06l1.106,3.893a17.758,17.758,0,0,0,4.632-2.406c1.355-.877,3.038-1.977,3.815-1.787.375.089.748.642.935.965a2.055,2.055,0,0,1,.411,1.328c-.2.7-1.914,1.569-3.287,2.271a31.441,31.441,0,0,0-2.789,1.546l-.886.575-.036,1.055a15.584,15.584,0,0,0,1.353,6.169c.19.506.383,1.019.56,1.545l.536,1.6,1.671-.242c2.848-.412,4.724-2.441,6.231-4.072.831-.9,1.847-2.036,2.43-2,.147,0,.621.094,1.5.955-1.068,2.038-3.2,4.178-5.115,6.1-.8.8-1.571,1.577-2.237,2.312l-1.012,1.116.776,1.29a17.649,17.649,0,0,0,3.769,4.118l.927.637,1.031-.449a22.158,22.158,0,0,0,2.981-1.772c1.792-1.182,4.788-3.166,6.125-2.755.115.034.464.14.825.993.448,1.057-2.813,4.079-4.206,5.369a23.845,23.845,0,0,0-2.9,2.982l3.263,2.4a22.425,22.425,0,0,1,2.39-2.409,31.01,31.01,0,0,0,4.024-4.237c1.047,2.175,1.652,4.3,1.235,6.038-.162.677-1.249,1.652-2.209,2.513-1.463,1.312-3.121,2.8-3.573,4.833-1.071,4.825,2.407,11.441,5.391,16.909-.9,1-1.791,1.966-2.681,2.94C1722.313,447.261,1704.689,413.478,1698.78,402.6ZM1758.9,507.617c.258.439.536.9.825,1.386,2.886,4.812,7.248,12.088,3.678,15.287-1.726,1.548-2.481,1.876-2.915,1.82-.711-.047-2-1.561-2.428-2.058-4.946-5.8-9.541-18.572-13.235-28.835-1.239-3.444-2.418-6.719-3.505-9.446q1.433-1.836,2.865-3.65c3.522,6.616,7.372,13.129,11.128,19.445Q1757.117,504.592,1758.9,507.617Zm42.024-75.233c-2.588,8.207-9.057,15.278-16.1,17.592a43.965,43.965,0,0,1-9.439,1.567c-5.445.507-11.074,1.035-15.506,4.591-3.479,2.789-6.23,6.685-8.891,10.454-.968,1.37-1.88,2.664-2.792,3.848-1.985,2.579-4.02,5.157-6.064,7.748-6.341,8.034-12.9,16.341-18.253,25.092a69.146,69.146,0,0,0-3.762,7.52c-2.562,5.675-5.213,11.544-10.29,14.343a6.46,6.46,0,0,1-7.531-.425,7.628,7.628,0,0,1-2.119-8.315c2.119-6.632,10.325-14,16.92-19.918,2.623-2.356,5.1-4.58,7.04-6.592,10.653-11.074,21.714-23.285,34.808-38.429l.213-.248.125-.3a11.911,11.911,0,0,0,.621-6.31,28.557,28.557,0,0,1,.031-6.8c.787-6.423,3.36-18.1,11.748-24.132,5.181-3.727,10.1-5.25,14.4-5.25a15.51,15.51,0,0,1,12.617,6.048C1802.279,419.238,1803.068,425.6,1800.928,432.384Z" transform="translate(0 0)" fill="#ffaf00"/>
    <path id="Trazado_125" data-name="Trazado 125" d="M1765.139,408.255c-9.556,1.031-14.6,8.519-17.555,14.062-.9,1.691-5.272,10.443-2.654,16.866a9.065,9.065,0,0,0,5.686,5.207,10.563,10.563,0,0,0,5.5,1.306,29.367,29.367,0,0,0,15.865-5.492c7.327-5.885,10.914-17.163,7.826-24.629C1778.5,412.392,1774.854,407.2,1765.139,408.255Zm4.31,28.792c-3.854,3.091-13.437,6.091-16.838,3.816l-.24-.159-.274-.088a5.062,5.062,0,0,1-3.419-2.962c-1.4-3.446.232-9.228,2.476-13.429,4.071-7.625,8.519-11.309,14.421-11.946a18.132,18.132,0,0,1,1.962-.109c4.253,0,7.184,1.689,8.532,4.951C1778.485,422.965,1775.391,432.277,1769.449,437.047Z" transform="translate(17.504 3.355)" fill="#ffaf00"/>
  </g>
</svg>
