<svg id="facebook" xmlns="http://www.w3.org/2000/svg" width="84" height="71.338" viewBox="0 0 84 71.338">
  <g id="Polígono_1" data-name="Polígono 1" fill="#daf6f6" stroke-linecap="round" stroke-linejoin="bevel">
    <path d="M 66.50814056396484 69.33803558349609 L 17.49186325073242 69.33803558349609 C 14.5854959487915 69.33803558349609 11.98918533325195 67.83167266845703 10.54671859741211 65.30853271484375 C 9.104251861572266 62.7853889465332 9.123395919799805 59.78378677368164 10.59794044494629 57.27925491333008 L 35.10606384277344 15.65159893035889 C 36.55901718139648 13.18372058868408 39.13618469238281 11.71036529541016 42.00000762939453 11.71036529541016 C 44.86381912231445 11.71036529541016 47.44098663330078 13.18372058868408 48.89392852783203 15.65158748626709 L 73.40207672119141 57.27925491333008 C 74.87660980224609 59.78378677368164 74.895751953125 62.785400390625 73.45327758789062 65.30854034423828 C 72.01081848144531 67.83167266845703 69.41449737548828 69.33803558349609 66.50814056396484 69.33803558349609 Z" stroke="none"/>
    <path d="M 41.99999618530273 13.71036529541016 C 40.97406387329102 13.71036529541016 39.96741104125977 13.96541595458984 39.08886337280273 14.44795989990234 C 38.15399551391602 14.96144104003906 37.39384841918945 15.70779037475586 36.82954406738281 16.66628265380859 L 12.3214111328125 58.29393768310547 C 11.7489013671875 59.26636505126953 11.46481323242188 60.30696105957031 11.47705078125 61.3868293762207 C 11.48853302001953 62.40085601806641 11.76721954345703 63.41372299194336 12.28299713134766 64.31589508056641 C 12.79876708984375 65.21808624267578 13.53019714355469 65.97212219238281 14.39820861816406 66.49648284912109 C 15.32257080078125 67.05489349365234 16.36342620849609 67.33802795410156 17.49185943603516 67.33802795410156 L 66.50814056396484 67.33802795410156 C 67.63658142089844 67.33802795410156 68.67742156982422 67.05489349365234 69.60178375244141 66.49649810791016 C 70.46977996826172 65.97212219238281 71.20121002197266 65.21809387207031 71.71697998046875 64.31591033935547 C 72.23275756835938 63.41373443603516 72.51145172119141 62.40087127685547 72.52294158935547 61.3868293762207 C 72.53517150878906 60.30696105957031 72.25109100341797 59.26636505126953 71.67857360839844 58.29393768310547 L 47.17044830322266 16.66628265380859 C 46.60615539550781 15.70780181884766 45.84599685668945 14.96144104003906 44.91112899780273 14.44795989990234 C 44.0325813293457 13.96541595458984 43.02592849731445 13.71036529541016 41.99999618530273 13.71036529541016 M 41.99999618530273 9.710365295410156 C 45.34188461303711 9.710365295410156 48.68376922607422 11.35254669189453 50.61742401123047 14.63689422607422 L 75.12554168701172 56.26454925537109 C 79.05030059814453 62.93085479736328 74.24398040771484 71.33802795410156 66.50814056396484 71.33802795410156 L 17.49185943603516 71.33802795410156 C 9.756011962890625 71.33802795410156 4.949676513671875 62.93085479736328 8.87445068359375 56.26454925537109 L 33.38258361816406 14.63689422607422 C 35.31623077392578 11.35254669189453 38.65811157226562 9.710365295410156 41.99999618530273 9.710365295410156 Z" stroke="none" fill="#13235a"/>
  </g>
  <g id="Grupo_447" data-name="Grupo 447" transform="translate(31.515 27.313)">
    <path id="Trazado_552" data-name="Trazado 552" d="M161.109,460.777a1.1,1.1,0,0,0-1.084-1.084c-1.5.088-3,.146-4.5.1-.139-1.44-.181-3.091.728-4.174.7-.834,2.206-.518,3.156-.466a1.1,1.1,0,0,0,1.084-1.084q.157-2.752.314-5.5a.927.927,0,0,0-.788-1.018,1.159,1.159,0,0,0-.3-.066c-3.66-.294-7.39-.454-9.942,2.655-2.356,2.872-2.805,6.494-2.869,10.074l-4.3.043a1.094,1.094,0,0,0-1.084,1.084l.323,4.922a1.1,1.1,0,0,0,1.084,1.084l4.284-.232c0,.078.01.161.012.232.036,1.345.1,2.69.166,4.034.16,3.174.341,6.355.693,9.514a1.127,1.127,0,0,0,1.084,1.084,20.253,20.253,0,0,0,7.115-.483,1.1,1.1,0,0,0,.795-1.045l-.381-13.051,3.409-.049a1.1,1.1,0,0,0,1.084-1.084Zm-10.96,19.1c-.265-2.65-.426-5.312-.564-7.971-.069-1.317-.131-2.635-.174-3.954-.015-.435-.029-.871-.033-1.307,0-.129.013-.269,0-.4h0a1.853,1.853,0,0,1-.118.238,1.256,1.256,0,0,0,.005-1.062,1.036,1.036,0,0,0-.4-.408,1.158,1.158,0,0,0-.539-.12l.005-.009-4.392.237q-.088-1.356-.178-2.712l4.223-.042a1.1,1.1,0,0,0,1.084-1.084c0-3.3.094-6.9,2.245-9.614,1.853-2.339,4.577-2.318,7.27-2.113l-.193,3.383a4.384,4.384,0,0,0-3.729,1.214c-1.559,1.842-1.429,4.439-1.2,6.684a1.119,1.119,0,0,0,1.084,1.084,39.2,39.2,0,0,0,4.412-.007q.023,1.641.046,3.282l-3.425.049a1.1,1.1,0,0,0-1.084,1.084q.194,6.619.388,13.237A18.377,18.377,0,0,1,150.149,479.878Z" transform="translate(-141.519 -447.336)" fill="#13235a"/>
    <path id="Trazado_553" data-name="Trazado 553" d="M150.581,469.1c.12-.293-.028-.256,0,0Z" transform="translate(-142.723 -450.196)" fill="#13235a"/>
  </g>
</svg>
