<svg xmlns="http://www.w3.org/2000/svg" width="201" height="201" viewBox="0 0 201 201">
  <g id="twitter" transform="translate(22337 124)">
    <g id="Elipse_3" data-name="Elipse 3" transform="translate(-22337 -124)" fill="#fde0ee" stroke="#46b2b5" stroke-width="8">
      <circle cx="100.5" cy="100.5" r="100.5" stroke="none"/>
      <circle cx="100.5" cy="100.5" r="96.5" fill="none"/>
    </g>
    <path id="Trazado_557" data-name="Trazado 557" d="M293.5,491.745c-4.024.219-8.048.41-12.069.656-.138.009-.311.034-.479.051a3.463,3.463,0,0,1-.656-.492,34.011,34.011,0,0,0-5.492-4.774,14.519,14.519,0,0,0-9.649-2.943c-7.249.4-14.2,5.11-16.059,12.325a26.381,26.381,0,0,0-.232,10.956,71.185,71.185,0,0,1-7.222-3.973,62.118,62.118,0,0,1-12.992-10.141,2.9,2.9,0,0,0-4.516.582,19.953,19.953,0,0,0-.285,17,23.447,23.447,0,0,1-3.38-.534,2.909,2.909,0,0,0-3.536,3.536,38.868,38.868,0,0,0,2.685,8.628c-.75-.163-1.5-.343-2.234-.552a2.9,2.9,0,0,0-3.538,3.536,25.85,25.85,0,0,0,13.74,15.449,109.01,109.01,0,0,1-12.518,7.238c-3.854,2.061-7.751,4.054-11.7,5.931-2.363,1.123-1.5,4.567.686,5.255,15.212,4.8,31.9,10.079,47.957,7.5,17.851-2.869,33-15.872,36.822-33.811a35.8,35.8,0,0,0-1.889-22.123l9.035-14.97A2.9,2.9,0,0,0,293.5,491.745Zm-10.937,23.626a26.848,26.848,0,0,1,1.3,5.772,34.261,34.261,0,0,1-1.074,12.585,37.375,37.375,0,0,1-16.422,22.01c-9.812,6.021-21.6,7.3-32.773,5.322a203.056,203.056,0,0,1-20.98-5q2.992-1.525,5.947-3.12c5.761-3.1,12.06-6.295,16.8-10.894a2.9,2.9,0,0,0-1.268-4.808,20.065,20.065,0,0,1-12.318-8.324c1.171.237,2.342.485,3.495.815a2.9,2.9,0,0,0,2.8-4.806,18.606,18.606,0,0,1-4.564-8.264,31.744,31.744,0,0,1,5.006.7c2.949.741,4.569-2.662,2.8-4.806a15.686,15.686,0,0,1-3.382-11.865,77.24,77.24,0,0,0,10.82,7.827c4.183,2.563,8.738,5.165,13.526,6.393a2.67,2.67,0,0,0,2.365-.437,2.4,2.4,0,0,0,1.171-3.1c-1.449-4.1-2.269-9.028-1.157-13.277,1.564-6,9.216-9.976,15.012-7.387,3.3,1.475,5.342,4.919,8.5,6.693,1.636.92,2.853.773,4.629.676q2.723-.145,5.448-.294l-2.112,3.5c-1.587,2.625-3.663,5.3-4.9,8.114C280.289,511.529,281.886,513.378,282.565,515.371Z" transform="translate(-22481.963 -549.227)" fill="#46b2b5"/>
  </g>
</svg>
