<svg xmlns="http://www.w3.org/2000/svg" width="490" height="287.464" viewBox="0 0 490 287.464">
  <g id="glifo_cocodrilo" transform="translate(42.74 -23.522)">
    <g id="Grupo_21" data-name="Grupo 21">
      <path id="Trazado_31" data-name="Trazado 31" d="M171.462,310.986c-2.651,0-5.166-.09-7.484-.172L6.787,304.7c-7.224-.26-16.227-.592-23.926-5.471-11.446-7.26-14.9-20.7-16.906-34.15A786.316,786.316,0,0,1-39.392,75.982c1.492-16.073,4.546-32.353,16.739-42.505C-10.228,23.144,7.317,23.405,19,23.567l191.754,2.974c7.367.109,15.7.234,23.655,3.074,9.829,3.5,16.981,10.745,19.127,19.379,1.42,5.7.549,11.267-.219,16.189-.737,4.663-1.357,8.689-.054,11.747,2.2,5.184,10.152,7.538,23.26,7.116l105.789-3.971c12.534-.439,26.72-.934,39.927,4.043a5.638,5.638,0,0,1,.629.269c25.058,12.524,23.863,27.583,22.6,43.512-.36,4.528-.727,9.209-.637,14.381.368,20.26.943,40.519,1.509,60.779l.844,31.014c.3,11.671-.017,22.91-6.989,32.056-10.683,13.989-30.493,13.872-41.5,13.98L207.7,279.947c-.11,8.113-1.8,20.054-10.062,25.112C189.449,310.069,179.844,310.986,171.462,310.986ZM14.666,37.007c-11.231,0-21.627.934-28.7,6.829-8.84,7.367-10.8,21.1-11.932,33.4a772.71,772.71,0,0,0,5.248,185.842c1.544,10.288,3.917,20.4,10.808,24.77,4.617,2.929,11.307,3.171,17.2,3.387l157.19,6.118c8.4.305,18.832.683,26.128-3.782,2.884-1.77,4.187-12.021,3.378-19.658a6.742,6.742,0,0,1,6.011-7.4,6.629,6.629,0,0,1,.691-.036h.009l198.032.161h.189c11.637,0,24.5-.709,30.565-8.673,4.34-5.678,4.484-14.024,4.241-23.548l-.844-30.978c-.566-20.3-1.132-40.609-1.51-60.905-.1-5.84.315-11.078.683-15.7,1.177-14.968,1.725-21.847-14.878-30.233-10.611-3.891-22.677-3.459-34.375-3.064L276.993,97.5c-7.17.279-29.191,1.033-36.135-15.309-2.812-6.6-1.77-13.243-.853-19.1.62-4.007,1.207-7.794.458-10.835-1.25-5-6.28-8.427-10.584-9.955-5.849-2.094-12.7-2.2-19.322-2.291L18.8,37.043C17.414,37.016,16.04,37.007,14.666,37.007Z" fill="#d10057"/>
    </g>
    <g id="Grupo_22" data-name="Grupo 22">
      <path id="Trazado_32" data-name="Trazado 32" d="M92.327,270.61h-.252l-29.459-1.1a6.745,6.745,0,0,1-6.5-6.756c.017-3.576-.045-8.293-.11-13.666-.683-53.16.844-66.269,8.149-70.141,2.66-1.4,5.328-1.312,21.8.737,2.974.369,5.5.7,6.675.781a7.076,7.076,0,0,1,3.135.539,6.736,6.736,0,0,1,4.078,6.258l-.781,76.682a6.746,6.746,0,0,1-6.739,6.667ZM69.569,256.289l16.082.6.659-63.583c-.63-.071-1.3-.161-2.013-.242-3.324-.414-9.316-1.159-12.991-1.465-2.425,9.928-2,42.649-1.815,57.32C69.524,251.545,69.543,254.025,69.569,256.289Z" fill="#d10057"/>
    </g>
    <g id="Grupo_23" data-name="Grupo 23">
      <path id="Trazado_33" data-name="Trazado 33" d="M147.563,278.355a6.754,6.754,0,0,1-6.173-4.035,6.659,6.659,0,0,1-.432-4.024c-1.438-7.466-14.581-40.861-20.309-55.434-3.837-9.73-5.7-14.484-6.208-16.19a6.713,6.713,0,0,1,2.92-7.717c1.473-.9,14.626-8.858,23.153-10.773a6.744,6.744,0,0,1,7.295,3.189c10.736,18.427,17.861,34.491,25.39,51.487,2.982,6.73,6.064,13.7,9.532,21.167a6.735,6.735,0,0,1-3.275,8.944l-.128.058-28.472,12.5-.593.269A6.813,6.813,0,0,1,147.563,278.355Zm-18.392-78.668c1.087,2.8,2.525,6.468,4.007,10.242,10.611,26.971,16.612,42.694,19.451,52.1l14.995-6.587c-2.362-5.229-4.582-10.233-6.757-15.121-7-15.808-13.135-29.648-21.993-45.416A103.892,103.892,0,0,0,129.171,199.687Z" fill="#d10057"/>
    </g>
    <g id="Grupo_24" data-name="Grupo 24">
      <path id="Trazado_34" data-name="Trazado 34" d="M174.651,121.11c-.315,0-.629-.009-.943-.009a37.04,37.04,0,0,1-16.459-3.611,28.129,28.129,0,0,1-15.13-22.327C141.23,85.38,145.811,74.976,154.077,68c6.6-5.57,15.534-9.191,25.866-10.467,11.06-1.374,27.241,1.757,36.539,11.9a25.4,25.4,0,0,1,6.1,23.368C218.117,113.563,191.217,121.11,174.651,121.11ZM185.18,70.681a28.44,28.44,0,0,0-3.584.22h-.009c-7.717.952-14.222,3.513-18.813,7.385-4.959,4.2-7.735,10.189-7.232,15.65a14.733,14.733,0,0,0,7.825,11.545,24.146,24.146,0,0,0,10.584,2.147c13.494.18,32.891-5.777,35.452-17.664a12.091,12.091,0,0,0-2.867-11.429c-4.9-5.357-13.952-7.855-21.356-7.855Zm-4.421-6.468" fill="#d10057"/>
    </g>
    <g id="Grupo_25" data-name="Grupo 25">
      <path id="Trazado_35" data-name="Trazado 35" d="M178.514,98.271a6.738,6.738,0,1,1-.109-13.476l7.861-.135h.11a6.738,6.738,0,1,1,.117,13.476l-7.861.135Z" fill="#d10057"/>
    </g>
    <g id="Grupo_26" data-name="Grupo 26">
      <path id="Trazado_36" data-name="Trazado 36" d="M404.642,252.057h-.189l-183.909-5.208a6.721,6.721,0,0,1-5.283-2.794c-4.106-5.709-4.312-25.12-1.015-94.381.439-9.165.818-17.142,1-22.749a6.74,6.74,0,0,1,5.939-6.459c49.656-5.9,174.43-3.454,179.991-3.355A6.729,6.729,0,0,1,407.431,126l-16.467,49.046a6.736,6.736,0,0,1-11.518,2.21c-3.082-3.623-7.709-8.823-11.347-12.9l-4.25-4.807c-8.769-3.979-57.471-2.2-108.816,1.95-.018,9.1-.612,17.825-1.2,26.316-.414,6.038-.835,12.209-1.042,18.525l22.937-.027,16.082-21.375a6.745,6.745,0,0,1,9.441-1.317c1.518,1.141,2.7,2.9,5.3,6.747,2.561,3.8,10.35,15.345,13.846,16.406,5.407,1.14,53.384,1.537,85.5-.549a6.6,6.6,0,0,1,6.163,3.163c3.019,4.851,2.759,17.339-.79,37.132A6.736,6.736,0,0,1,404.642,252.057ZM225.97,233.522l172.975,4.9a145.989,145.989,0,0,0,1.742-18.409c-30.555,1.546-76.194,1.555-83.4-.135-7.151-1.689-13.683-9.972-20.224-19.5L284.477,217.1a6.749,6.749,0,0,1-5.373,2.686l-33.188.037h-.008a6.764,6.764,0,0,1-6.739-6.784c.054-9.092.659-17.762,1.222-26.144a314.1,314.1,0,0,0,1.078-31.392,6.748,6.748,0,0,1,6.172-6.916c81.018-6.873,119.016-6.334,125.924,1.617l4.591,5.193c1.177,1.317,2.471,2.757,3.765,4.222l9.8-29.172c-30-.432-118.893-1.427-163.226,2.794-.22,4.851-.486,10.673-.791,17.07C226.6,173.533,224.416,219.425,225.97,233.522Zm137.415-74.489.054.062Z" fill="#d10057"/>
    </g>
    <g id="Grupo_27" data-name="Grupo 27">
      <path id="Trazado_37" data-name="Trazado 37" d="M47.239,164.746a148.388,148.388,0,0,1-38.822-5.22,6.739,6.739,0,0,1-4.95-5.912c-.36-3.9-.953-8.158-1.572-12.614-2.372-16.882-5.059-36.018,2.686-50.69,15.83-30.035,58.066-36.853,75.487-38.4,4.853-.439,11.886-.485,16.775,4,5.3,4.861,5.723,12.56,5.709,21.392,0,3.144-.4,31.14-13.333,42.361-9.661,8.392-31.815,10.4-46.422,7.017-9.771-2.263-16.37-6.806-19.056-13.162-1.976-4.673-1.653-10.1.943-15.687,3.361-7.224,10.161-13.638,16.531-15.606,6.433-1.986,19.98-1.392,25.435,1.105a6.737,6.737,0,0,1-5.6,12.255h0c-2.273-.979-12.156-1.626-15.858-.485-2.47.768-6.388,4.321-8.292,8.418-.9,1.941-1.186,3.719-.755,4.743.692,1.636,3.612,3.881,9.685,5.292,12.685,2.955,29.621.219,34.554-4.07,5.632-4.887,8.679-20.232,8.688-32.2.008-6.764-.449-10.619-1.347-11.445-.037-.037-1.141-.988-6.469-.5C69.37,66.386,29.6,71.748,16.487,96.6c-5.709,10.827-3.342,27.672-1.258,42.533.412,2.929.808,5.776,1.14,8.508C49,155.3,82.072,150.73,114.7,133.957a6.757,6.757,0,0,1,8.095,1.492c3.074,3.423,3.127,8.112.127,11.94a6.727,6.727,0,0,1-8.563,1.744C92.133,159.534,69.672,164.746,47.239,164.746Z" fill="#d10057"/>
    </g>
  </g>
</svg>
