<svg xmlns="http://www.w3.org/2000/svg" width="804.664" height="204.701" viewBox="0 0 804.664 204.701">
  <g id="glifo_serpiente" transform="translate(-433.17 10.586)">
    <path id="Trazado_40" data-name="Trazado 40" d="M1232.976,144.61l-67.295-5.317V97.084a5.271,5.271,0,0,0-5.178-5.27l-69.643-1.306L953.045,84.472l-2.461-82.1a5.269,5.269,0,0,0-5.04-5.112c-1.794-.079-179.688-7.81-236.158-7.85h-.007a5.252,5.252,0,0,0-3.812,1.629,5.224,5.224,0,0,0-1.458,3.885c.726,15.778.046,31.939-.627,47.565-.587,13.964-1.207,28.337-.831,42.664l-44.32-2.54L649.527,37.2a5.288,5.288,0,0,0-5.119-4.274L525.933,31.5a5.673,5.673,0,0,0-5.191,4.037c-.785,3.252-1.2,8.958-1.649,14.993-.237,3.232-.495,6.735-.8,9.492L438.23,63.239A5.274,5.274,0,0,0,433.2,69.1l6.649,59.551a5.288,5.288,0,0,0,5.376,4.69L548.723,130.7c1.016,4.5,1.082,15.528,1.115,23.153.125,21.477.462,31.075,7.091,33.416,12.473,4.4,193.691-.4,229.9-1.4a5.271,5.271,0,0,0,5.125-5.191L793.628,80.4l33.588-.211c11.708,104.616,12.751,107,13.146,107.9a5.279,5.279,0,0,0,4.8,3.153l386.077,2.876h.04a5.279,5.279,0,0,0,5.277-5.1l1.28-38.97A5.279,5.279,0,0,0,1232.976,144.61Zm-6.082,17.071c-10.389.27-23.581.33-38.786.224l-.3-10.277,39.314,3.107ZM844.94,142.314c7.975-.013,16.893.053,26.583.2.356,2.144.9,5.072,1.445,8.034.33,1.788.64,3.509.93,5.112-10.435-.007-19.663.079-27.348.29C846.041,151.694,845.5,147.117,844.94,142.314Zm39.676,13.377c-.349-2.038-.8-4.492-1.273-7.058-.4-2.124-.759-4.136-1.075-5.943,5.29.1,10.778.211,16.4.343.488,2.3,1.1,5.244,1.715,8.239.323,1.557.64,3.107.943,4.571C895.513,155.777,889.959,155.725,884.616,155.692Zm27.52.3c-.429-2.051-.923-4.439-1.418-6.847-.415-2.032-.824-4.037-1.207-5.851,11.524.29,23.542.633,35.864,1l.363,12.3C934.061,156.358,922.8,156.153,912.135,156Zm44.169.831-.363-12.2c8.747.27,17.593.554,26.464.838.027,1.728.079,3.872.139,6.042.053,2.131.112,4.248.138,5.93Q969.285,157.107,956.3,156.826Zm36.932.864c-.026-1.788-.085-4.116-.145-6.458-.053-1.933-.1-3.832-.132-5.429q5.254.168,10.5.343,8.41.267,16.853.547l.389,11.689C1011.508,158.145,1002.332,157.915,993.236,157.69Zm38.034.963-.383-11.623c11.919.383,23.766.752,35.343,1.095l1.029,11.451c-9.954-.251-19.96-.508-29.927-.765Zm46.615,1.187-1.029-11.4c10.152.284,20.026.548,29.5.772.574,1.867,1.22,4.677,1.8,7.256.323,1.431.64,2.8.963,4.129C1098.888,160.355,1088.44,160.1,1077.885,159.841Zm42.2,1c-.528-1.847-1.108-4.38-1.629-6.708-.369-1.629-.739-3.2-1.1-4.677,9.354.191,18.219.343,26.458.435l.428,11.431Q1132.479,161.1,1120.088,160.837Zm34.729.666-.435-11.537c2.031.007,4.057.02,5.983.02,2.005,0,3.958-.007,5.844-.02.06,0,.112-.033.171-.033l10.838.858.33,11.022Q1166.684,161.7,1154.817,161.5ZM714.658,26.406c5.244.1,20.138.482,39.782.983L752.1,37.375c-13.258-.416-25.989-.877-37.783-1.385Q714.513,31.221,714.658,26.406Zm50.553,1.26c10.29.264,21.392.547,32.869.831V38.609c-11.833-.27-23.661-.574-35.217-.91Zm43.423,1.095c8.634.218,17.388.429,26.095.64l1.722,9.993c-9.123-.165-18.436-.35-27.816-.554Zm38.555,10.824-1.708-9.934c9.36.224,18.555.429,27.381.62l-.818,9.7C864.075,39.855,855.751,39.73,847.189,39.585Zm36.24-9.083c9.367.191,18.14.363,26.029.495l.554,9.446c-8.232-.086-17.454-.191-27.394-.323Zm37.163,10.039-.554-9.38c7.355.106,13.549.165,18.206.165,1,0,1.8-.013,2.651-.013l.284,9.367C936.165,40.66,929.187,40.62,920.592,40.541ZM940.183,7.593l.4,13.173c-26.933.145-128.943-2.467-185.473-3.912-20.389-.528-34.822-.9-40.2-1,.079-5.284.1-10.58-.046-15.871C770.363.43,912.03,6.386,940.183,7.593Zm-401.525,95.19c-1.379-3.226-2.592-5.567-3.806-7.876-.27-.515-.547-1.075-.818-1.6l12.7.495a54.946,54.946,0,0,1-.185,9C544.574,102.8,541.883,102.79,538.657,102.783Zm-16.55-9.927c1.207,2.744,2.3,4.868,3.4,6.952.5.95,1,1.926,1.517,2.955-8.338-.007-18.179-.013-28.344-.007l4.162-10.6C509.588,92.394,516.1,92.632,522.108,92.856Zm-34.775,9.921c-5.224.007-10.376.026-15.356.046-1.735-3.245-3.364-6.069-4.987-8.865-.567-.976-1.141-1.972-1.708-2.975,8.219.218,17.262.495,26.372.792ZM453.045,90.7c1.669,3.107,3.245,5.851,4.815,8.549.693,1.194,1.385,2.408,2.091,3.641-4.519.026-8.661.066-12.342.112l-1.385-12.4C448.328,90.62,450.578,90.653,453.045,90.7Zm247.048,50.9,1.682,10.033-35.2,1.062-1.84-10.89Zm81.839,7.625-28.3.851-.482-8.793,28.918-.172Zm-39.353-7.882.495,9.05-30.653.923-1.636-9.782Zm-88.535.528,1.88,11.148-26.075.785c.125-1.722.257-3.377.389-5.02.171-2.177.35-4.426.514-6.774Zm-34.327,6.075c-.158,2-.316,4.05-.468,6.174l-26.26.792-.956-12.671,28.14-.172C620.022,144.089,619.87,146.041,619.718,147.941Zm-38.264-5.646.976,12.929-22.018.66c-.006-.706-.006-1.425-.013-2.091-.027-4.294-.073-7.988-.165-11.372Zm-19.789,35.263c-.607-2.111-.91-6.385-1.069-11.115l221.158-6.662-.257,15.666C701.544,177.624,578,179.953,561.665,177.558ZM831.932,69.6H831.9l-43.5.27a5.281,5.281,0,0,0-5.244,5.191l-.917,55.487-104.781.62a5.261,5.261,0,0,0,4.914-5.448l-.713-17.665A5.281,5.281,0,0,0,676.386,103h-.112a5.278,5.278,0,0,0-5.165,5.277v.541a4.763,4.763,0,0,0,.046.693l.673,16.642a5.257,5.257,0,0,0,5.086,5.026l-117.373.693c-.844-6.55-2.553-10.2-6.227-11.5a6.035,6.035,0,0,0-1.893-.3L449.8,122.664l-1.016-9.123c32.493-.369,100.843-.178,101.576-.178h.007A5.282,5.282,0,0,0,554.772,111c3.615-5.481,2.665-17.823,2.084-22.882a5.277,5.277,0,0,0-5.026-4.67c-.779-.033-76.562-3.127-106.786-3.417l-.726-6.471,78.726-3.166a5.279,5.279,0,0,0,4.914-4.03c.792-3.272,1.22-8.991,1.662-15.059.224-3.12.475-6.491.765-9.2l109.6,1.319,8.773,45.237a5.27,5.27,0,0,0,4.875,4.261l54.208,3.107a5.423,5.423,0,0,0,4.01-1.517,5.275,5.275,0,0,0,1.557-4c-.673-14.578-.132-29.465.482-43.977,77.156,3.324,195.492,4.591,227.6,4.7l1.155,38.456a5.279,5.279,0,0,0,5.046,5.112l142.841,6.253,64.6,1.207v37.143c-38.647-.178-95.8-2.005-151.324-3.806-59.781-1.946-121.469-3.971-160.09-3.832-2.216-19.1-4.6-40.164-6.537-57.473A5.271,5.271,0,0,0,831.932,69.6Zm17.724,111.113c-.449-3.166-1.082-8.133-1.827-14.235,38.535-.983,115.078.963,189.232,2.876,60.468,1.557,122.578,3.153,164.543,3.153,9.439,0,17.783-.079,24.94-.264l-.37,11.28Z" transform="translate(0 0)" fill="#be1b67"/>
    <path id="Trazado_41" data-name="Trazado 41" d="M508.17-.23c-3.859-.5-41.807-.983-49.373-1.069A5.931,5.931,0,0,0,454.846.4a5.316,5.316,0,0,0-1.372,4.076l2.144,22.559a5.284,5.284,0,0,0,5.257,4.776h.145c.317-.013,32.658-.864,46.14-.007a5.271,5.271,0,0,0,5.607-5.27V5A5.274,5.274,0,0,0,508.17-.23ZM464.543,9.328c2.243.026,4.6.059,6.979.1.237,1.939.528,4.149.824,6.425.237,1.794.462,3.522.666,5.152-2.816.046-5.343.1-7.348.139Zm37.678,11.7c-5.5-.165-12.19-.178-18.588-.139-.237-1.939-.521-4.136-.825-6.412-.218-1.689-.429-3.324-.627-4.881,7.975.139,15.422.284,20.039.429Z" transform="translate(113.5 51.972)" fill="#be1b67"/>
    <path id="Trazado_42" data-name="Trazado 42" d="M525.758,2.559,482.4-.06a5.506,5.506,0,0,0-5.58,4.947,5.277,5.277,0,0,0,4.947,5.587l43.351,2.619c.105.007.218.013.33.013a5.279,5.279,0,0,0,.31-10.547Z" transform="translate(244.222 58.886)" fill="#be1b67"/>
    <path id="Trazado_43" data-name="Trazado 43" d="M523.3,4.85,482.656,2.97a5.276,5.276,0,0,0-.495,10.541L522.807,15.4l.251.007A5.28,5.28,0,0,0,523.3,4.85Z" transform="translate(246.039 75.836)" fill="#be1b67"/>
    <path id="Trazado_44" data-name="Trazado 44" d="M522.178,8,482.251,6.852a5.394,5.394,0,0,0-5.435,5.125,5.286,5.286,0,0,0,5.125,5.429l39.934,1.148h.152A5.278,5.278,0,0,0,522.178,8Z" transform="translate(244.24 97.587)" fill="#be1b67"/>
    <path id="Trazado_45" data-name="Trazado 45" d="M477.88,6.282a5.275,5.275,0,0,0-5.046,5.5l.838,19.254a5.275,5.275,0,0,0,5.264,5.046l.231-.007a5.279,5.279,0,0,0,5.046-5.5l-.838-19.254A5.221,5.221,0,0,0,477.88,6.282Z" transform="translate(221.942 94.377)" fill="#be1b67"/>
    <path id="Trazado_46" data-name="Trazado 46" d="M470.3,5.861a5.277,5.277,0,0,0-4.815,5.7L467.1,30.92a5.265,5.265,0,0,0,5.25,4.835c.145,0,.3,0,.442-.013a5.271,5.271,0,0,0,4.822-5.693l-1.616-19.373A5.3,5.3,0,0,0,470.3,5.861Z" transform="translate(180.748 91.929)" fill="#be1b67"/>
    <path id="Trazado_47" data-name="Trazado 47" d="M503.826,11.309h.007l46.365-.026A5.277,5.277,0,0,0,550.191.729h-.006L503.82.755a5.277,5.277,0,0,0,.007,10.554Z" transform="translate(365.876 63.321)" fill="#be1b67"/>
    <path id="Trazado_48" data-name="Trazado 48" d="M503.826,14.317h.02l39.234-.125a5.277,5.277,0,0,0-.02-10.554h-.02l-39.234.125a5.277,5.277,0,0,0,.02,10.554Z" transform="translate(365.876 79.601)" fill="#be1b67"/>
    <path id="Trazado_49" data-name="Trazado 49" d="M549.632,7.9,503.98,7.495h-.046a5.277,5.277,0,0,0-.046,10.554l45.652.4h.046A5.274,5.274,0,0,0,549.632,7.9Z" transform="translate(366.475 101.185)" fill="#be1b67"/>
    <path id="Trazado_50" data-name="Trazado 50" d="M517.035,38.841h.132a5.273,5.273,0,0,0,5.277-5.138L523,11.578a5.276,5.276,0,0,0-5.145-5.4h-.131a5.273,5.273,0,0,0-5.27,5.145L511.9,33.438A5.27,5.27,0,0,0,517.035,38.841Z" transform="translate(440.562 93.804)" fill="#be1b67"/>
    <path id="Trazado_51" data-name="Trazado 51" d="M536.433,39.068h.139a5.283,5.283,0,0,0,5.277-5.145l.554-22.111A5.292,5.292,0,0,0,537.257,6.4a5.384,5.384,0,0,0-5.409,5.145l-.554,22.117A5.276,5.276,0,0,0,536.433,39.068Z" transform="translate(549.118 95.04)" fill="#be1b67"/>
    <path id="Trazado_52" data-name="Trazado 52" d="M522.479,35.385h.158a5.277,5.277,0,0,0,5.119-5.429l-.548-18.549a5.391,5.391,0,0,0-5.429-5.125,5.286,5.286,0,0,0-5.125,5.429l.548,18.555A5.274,5.274,0,0,0,522.479,35.385Z" transform="translate(467.188 94.397)" fill="#be1b67"/>
    <path id="Trazado_53" data-name="Trazado 53" d="M541.44,35.945h.165a5.285,5.285,0,0,0,5.112-5.435l-.554-18.555a5.287,5.287,0,0,0-5.277-5.119h-.158a5.29,5.29,0,0,0-5.119,5.435l.554,18.555A5.291,5.291,0,0,0,541.44,35.945Z" transform="translate(573.259 97.497)" fill="#be1b67"/>
    <path id="Trazado_54" data-name="Trazado 54" d="M528.223,36.925l.192-.007a5.278,5.278,0,0,0,5.086-5.462l-.712-19.973a5.28,5.28,0,0,0-10.554.376l.719,19.98A5.279,5.279,0,0,0,528.223,36.925Z" transform="translate(498.403 95.007)" fill="#be1b67"/>
    <path id="Trazado_55" data-name="Trazado 55" d="M532.984,36.925l.2-.007a5.278,5.278,0,0,0,5.086-5.462l-.712-19.973A5.28,5.28,0,0,0,527,11.86l.713,19.98A5.288,5.288,0,0,0,532.984,36.925Z" transform="translate(525.08 95.007)" fill="#be1b67"/>
  </g>
</svg>
