<svg xmlns="http://www.w3.org/2000/svg" width="490" height="443.443" viewBox="0 0 490 443.443">
  <path id="glifo_lagarto" d="M956.462,327.794h27.553a6.029,6.029,0,0,0,0-12.058H956.462a6.012,6.012,0,0,0-1.353.276l-.881-21.017,28.655.5h.109a6.026,6.026,0,1,0,.11-12.051l-33.03-.573a5.66,5.66,0,0,0-1.785-.448l-34.358-2.1a6.119,6.119,0,0,0-3.366.786c-2.509,1.432-6.309,1.157-10.65.693l-47.194-5.074.519-51.66,6.985.4-.526,4.263c-.535,4.291-1.534,12.286,3.359,18.185,4.994,6.01,13.222,6.4,17.634,6.6l59.974,2.785c.684.031,1.517.07,2.454.07,3.692,0,8.927-.605,12.585-4.625a11.884,11.884,0,0,0,1.038-1.526l26.231.842h.189a6.014,6.014,0,0,0,6.025-6v-.016l.15-96.636c.016-6.426.031-17.193-7.126-24.289-6.992-6.929-17.533-6.976-23.833-7l-93.143-.393a5.943,5.943,0,0,0-5.987,5.144l-3.524,24.108a3.8,3.8,0,0,0-.409-.071l-13.844.551,1.039-78.915,68.2,3.067a5.861,5.861,0,0,0,3.618-1.156h22.8a6.026,6.026,0,0,0,0-12.05H917.373l.951-19.318,21.754.693h.188a6.022,6.022,0,0,0,.2-12.043l-21.554-.693.739-15.054,22.921-.92a6.035,6.035,0,0,0,5.787-6.261,5.97,5.97,0,0,0-6.15-5.785l-.111,0L920.184-.1a5.956,5.956,0,0,0-5.864-6.044c-.151,0-.3,0-.452.01-8.055.464-18.067.653-19.995.244a6.033,6.033,0,0,0-7.5,4.064,5.989,5.989,0,0,0-.244,1.442c-.338,7.811-.677,13.585-1.023,19.334-.259,4.317-.519,8.62-.77,13.757L805.205,29.24a5.9,5.9,0,0,0-4.444,1.683,6.029,6.029,0,0,0-1.833,4.391l1,124.284-65.9-2.344-1.369-60.373a6.015,6.015,0,0,0-5.554-5.868L641.58,84.328l-.448-32.815,20.08-.653a6.048,6.048,0,0,0,5.821-5.6l2.926-41.467A6.006,6.006,0,0,0,668.63-.4l3.13-25.178a6.02,6.02,0,0,0-5.162-6.77,6.02,6.02,0,0,0-6.77,5.162c-.006.041-.011.081-.016.122L656.784-2.728c-3.445.032-7.645.118-12.145.229l1.9-29.654a6.027,6.027,0,0,0-5.632-6.4,6.026,6.026,0,0,0-6.4,5.632l-1.958,30.77c-4.806.158-9.312.322-12.986.472V-26.2a6.021,6.021,0,0,0-6.015-6.028,6.021,6.021,0,0,0-6.027,6.015V.695a5.989,5.989,0,0,0-1.574,4.334l5.325,107.31a6.024,6.024,0,0,0,5.836,5.726L675.1,119.8l-10.8,65.221c-27.5-.488-37.735-.967-66.972-1.447-30.353-.5-60.683-1.007-88.975-1.51h-.11a6.035,6.035,0,0,0-6.025,5.781c-5.12,125.346-.244,130.475,2.108,132.937a6.038,6.038,0,0,0,3.98,1.864c3.217.2,78.05,4.978,100.923,4.978.362,0,.709-.008,1.039-.008a6.012,6.012,0,0,0,5.962-5.718c1.275-25.047,3.783-83.446,3.783-83.446a6.033,6.033,0,0,0-1.722-4.483,5.939,5.939,0,0,0-4.445-1.8l-59.165,1.424a6.027,6.027,0,0,0-5.875,5.749L547.6,266.738a6.023,6.023,0,0,0,1.692,4.459,5.942,5.942,0,0,0,4.4,1.833l32-.377-2.808,15.389-48-1.141c.323-13.6,1.376-47.382,4.291-69.054,23.037,1.345,47.744,2.694,72.447,4.05,24.879,1.361,30.8,2.714,53.993,4.075.315,2.627.677,5.64,1.07,8.9,5.868,49,8.29,64.285,10.807,68.171,7.764,11.932,51.811,15.338,75.054,16.306.818,9.045,1.4,30.919,1.8,46.226.354,13.49.684,26.224,1.141,33.649a6.016,6.016,0,0,0,6.009,5.655H799a6.029,6.029,0,0,0,5.6-3.8c1.046-2.635,1.1-13.615.8-25.6a1.717,1.717,0,0,0,.2.047c4.255.166,6.576.338,8.9.5,2.423.173,4.846.346,9.273.527h.252a6.024,6.024,0,0,0,.228-12.043c-4.248-.165-6.568-.338-8.888-.5-2.431-.172-4.854-.346-9.3-.527a5.887,5.887,0,0,0-1.046.173c-.2-5.3-.441-10.278-.646-14.379l20.7-.117a6.027,6.027,0,0,0,6-6.049,6.276,6.276,0,0,0-6.04-6l-21.308.118a3.234,3.234,0,0,0-.377.079,5.98,5.98,0,0,0-5.011-3.693c-4.459-.385-6.921-.763-9.38-1.148-1.518-.236-3.02-.472-4.916-.708L782,284.024a6.025,6.025,0,0,0-5.671-5.758l-54.677-3.2,4.137-27.2,91.987,8.92,13.9,52.73A6.021,6.021,0,0,0,837.346,314l77.272,1.943c.29,4.7.786,10.925,1.313,17.383.723,9.03,1.479,18.374,1.518,22.165a6.022,6.022,0,0,0,5.639,5.963l27.324,1.746a6.165,6.165,0,0,0,4.6-1.706,5.9,5.9,0,0,0,1.613-3.422l23.706,2.439c.2.016.417.031.622.031a6.029,6.029,0,0,0,.6-12.027l-25.2-2.587-.764-18.32A5.336,5.336,0,0,0,956.462,327.794Zm-27.207,21.984c-.283-4.69-.8-10.933-1.314-17.414-.74-9.109-1.5-18.524-1.526-22.346a6.023,6.023,0,0,0-5.876-5.977l-78.364-1.967L828.34,249.611a6.015,6.015,0,0,0-5.318-4.468L721.188,235.4a5.933,5.933,0,0,0-6.458,5.1l-5.987,39.3a6.018,6.018,0,0,0,5.033,6.862,5.679,5.679,0,0,0,.567.059l55.83,3.265,2.029,47.507a6.024,6.024,0,0,0,5.507,5.742c4.444.385,6.913.771,9.368,1.149,1.542.243,3.083.48,5.026.723.653,12.185,1.683,37.661,1.51,47.729H767.218c-.307-7.292-.567-17.21-.833-27.569-1.1-41.995-1.668-51.166-3.4-54.509a6.02,6.02,0,0,0-5.16-3.264c-34.263-1.1-66.441-6.159-70.012-10.619-2.186-5.1-6.906-44.495-9.171-63.436-.669-5.6-1.251-10.453-1.7-13.938a6.015,6.015,0,0,0-5.616-5.254c-24.611-1.462-32.355-2.925-59.058-4.38-26.656-1.463-53.321-2.918-77.9-4.374a6.066,6.066,0,0,0-6.293,5.018c-4.553,27.121-5.34,79.954-5.371,82.188a6.023,6.023,0,0,0,5.875,6.111l59.149,1.4h.15a6.028,6.028,0,0,0,5.931-4.948l5.041-27.631a6.028,6.028,0,0,0-1.329-4.972,6.719,6.719,0,0,0-4.672-2.139l-32.931.393.685-15.417,47.1-1.124c-.636,14.449-2.178,49.884-3.209,71.144-23.03-.456-76.039-3.693-91.256-4.641-1.8-12.466-1.5-58.077.8-116.653,26.6.464,54.847.928,83.109,1.4,31.2.519,43.46,1.031,72.556,1.549h.1a6.023,6.023,0,0,0,6.016-5.918,5.413,5.413,0,0,0-.174-.944l12.474-75.341a6.023,6.023,0,0,0-4.955-6.929,5.954,5.954,0,0,0-.811-.079l-59.322-1.77L618.27,10.41C628.283,9.969,647.7,9.4,657.495,9.293l-2.095,29.7-20.557.669a6.024,6.024,0,0,0-5.821,6.111L629.628,90a6.024,6.024,0,0,0,5.553,5.922l85.57,6.686,1.377,60.644a6.014,6.014,0,0,0,5.844,5.888l77.868,2.682a5.7,5.7,0,0,0,4.4-1.714,6.009,6.009,0,0,0,1.809-4.358L811.035,41.562l78.782,3.453a5.945,5.945,0,0,0,4.334-1.573,6.046,6.046,0,0,0,1.951-4.176c.346-7.929.692-13.757,1.039-19.593.251-4.176.5-8.353.747-13.309,3.13.063,6.662-.016,9.979-.142l-2.6,53.088-68.429-3.079a6.125,6.125,0,0,0-4.4,1.635,6,6,0,0,0-1.888,4.3l-1.2,91.493a6.027,6.027,0,0,0,1.817,4.4,6.231,6.231,0,0,0,4.443,1.706l18.492-.739a5.956,5.956,0,0,0,5.066,6.175,6.017,6.017,0,0,0,6.826-5.079v-.01l4.436-30.306,10.677.039-1.03,20.765a6.019,6.019,0,0,0,5.708,6.315h.01l.306.008a6.008,6.008,0,0,0,6-5.726l1.039-20.836c.008-.165-.063-.306-.071-.472l14.851.063a5.912,5.912,0,0,0-.96,2.636l-1.824,18.775a6.026,6.026,0,0,0,5.409,6.586h0c.2.016.4.024.59.024a6.03,6.03,0,0,0,5.993-5.442l1.825-18.784a5.9,5.9,0,0,0-.983-3.752l16.928.071a5.99,5.99,0,0,0-1.7,4.169V153a6.022,6.022,0,0,0,12.043.013V134.237a5.991,5.991,0,0,0-1.675-4.129l14.768.063c6.025.032,12.175.322,15.4,3.507,3.3,3.273,3.563,9.557,3.555,15.708l-.133,90.43-17.364-.55,4.838-57.962a6.045,6.045,0,0,0-1.644-4.664,5.672,5.672,0,0,0-4.57-1.864l-64.506,2.265a6.026,6.026,0,0,0-5.82,5.914l-.772,43.662a6.022,6.022,0,0,0,5.8,6.127l26.783.991a5.822,5.822,0,0,0,5.875-3.908,41.378,41.378,0,0,0,2.273-19.436,6.023,6.023,0,1,0-11.955,1.478h0a29.463,29.463,0,0,1-.426,9.651l-16.194-.6.565-32.044,52.016-1.817-4.468,53.517c-.087,1.046-.283,3.5-.81,4.074-.347.385-1.581.8-5.562.614l-59.973-2.794c-2.556-.118-7.315-.338-8.9-2.257-1.573-1.88-.991-6.506-.677-9.006l5.035-40.957a6.028,6.028,0,0,0-11.964-1.479L861.7,213.478l-14.07-.81a5.925,5.925,0,0,0-4.46,1.612,6.023,6.023,0,0,0-1.912,4.342l-.629,63.452a6.023,6.023,0,0,0,5.38,6.049l52.621,5.655c4.263.456,10.493,1.14,16.172-1.338l27.333,1.668,2.368,56.64Z" transform="translate(-499.968 38.561)" fill="#d10057"/>
</svg>
