<svg xmlns="http://www.w3.org/2000/svg" width="490.001" height="513.191" viewBox="0 0 490.001 513.191">
  <g id="glifo_serpiente" transform="translate(583.609 65.992)">
    <g id="Grupo_454" data-name="Grupo 454">
      <path id="Trazado_565" data-name="Trazado 565" d="M-371.308-42.766c-4.435-.573-47.972-1.124-56.655-1.228a6.822,6.822,0,0,0-4.539,1.957,6.125,6.125,0,0,0-1.572,4.674l2.457,25.881A6.068,6.068,0,0,0-425.579-6h.167c.364-.021,37.468-.989,52.938-.01a6.055,6.055,0,0,0,6.423-5.653c.01-.125.01-.26.01-.4v-24.7A6.063,6.063,0,0,0-371.308-42.766Zm-48.774,24.527-1.291-13.554c2.571.031,5.278.062,8.006.114.271,2.228.614,4.758.947,7.371.271,2.061.531,4.039.771,5.913C-414.887-18.343-417.781-18.28-420.082-18.239Zm41.944-.135c-6.309-.187-13.992-.2-21.331-.156-.271-2.228-.593-4.747-.947-7.36-.25-1.937-.49-3.811-.719-5.6,9.151.166,17.7.333,23,.5Z" fill="#d10057"/>
      <path id="Trazado_566" data-name="Trazado 566" d="M-208.349,19.02-254.162,17.7a6.189,6.189,0,0,0-6.236,5.881,6.065,6.065,0,0,0,5.881,6.229L-208.7,31.13h.174a6.056,6.056,0,0,0,6.063-6.049A6.057,6.057,0,0,0-208.349,19.02Z" fill="#d10057"/>
      <path id="Trazado_567" data-name="Trazado 567" d="M-284.645,13.361l-.117.005a6.053,6.053,0,0,0-5.791,6.3v.007l.961,22.092a6.053,6.053,0,0,0,6.04,5.79l.265-.008a6.056,6.056,0,0,0,5.79-6.311l-.961-22.092A5.991,5.991,0,0,0-284.645,13.361Z" fill="#d10057"/>
      <path id="Trazado_568" data-name="Trazado 568" d="M-329.211,37.828-331.066,15.6a6.081,6.081,0,0,0-6.538-5.525,6.056,6.056,0,0,0-5.525,6.54l1.854,22.213a6.04,6.04,0,0,0,6.024,5.548c.166,0,.344,0,.507-.015a6.048,6.048,0,0,0,5.533-6.522Z" fill="#d10057"/>
      <path id="Trazado_569" data-name="Trazado 569" d="M-179.313,153.845a6.055,6.055,0,0,0-6.051,6.059v.006l.03,60.488a6.055,6.055,0,0,0,6.059,6.051,6.055,6.055,0,0,0,6.051-6.059v-.007l-.03-60.487A6.054,6.054,0,0,0-179.313,153.845Z" fill="#d10057"/>
      <path id="Trazado_570" data-name="Trazado 570" d="M-204.224,162.2a6.055,6.055,0,0,0-6.051,6.059v.007l.03,40.511a6.055,6.055,0,0,0,6.059,6.051,6.055,6.055,0,0,0,6.051-6.059v-.007l-.03-40.511A6.055,6.055,0,0,0-204.224,162.2Z" fill="#d10057"/>
      <path id="Trazado_571" data-name="Trazado 571" d="M-230.977,226.462a6.053,6.053,0,0,0,6.079-6.026l.465-59.67v-.052a6.057,6.057,0,0,0-6.029-6.082,6.055,6.055,0,0,0-6.081,6.029l-.459,59.67v.052A6.052,6.052,0,0,0-230.977,226.462Z" fill="#d10057"/>
      <path id="Trazado_572" data-name="Trazado 572" d="M-220.357,250.42l-25.375-.635a6.046,6.046,0,0,0-6.2,5.89v.153a6.049,6.049,0,0,0,5.9,6.055l25.387.638a6.053,6.053,0,0,0,6.2-5.9v-.151A6.051,6.051,0,0,0-220.357,250.42Z" fill="#d10057"/>
      <path id="Trazado_573" data-name="Trazado 573" d="M-511.278,262.111l25.377.636a6.053,6.053,0,0,0,6.2-5.9v-.16a6.062,6.062,0,0,0-5.9-6.055L-510.972,250a6.073,6.073,0,0,0-6.21,5.9A6.177,6.177,0,0,0-511.278,262.111Z" fill="#d10057"/>
      <path id="Trazado_574" data-name="Trazado 574" d="M-221.482,295.878l-21.291.629a6.05,6.05,0,0,0-5.873,6.055v.181a6.054,6.054,0,0,0,6.229,5.874l21.284-.629a6.185,6.185,0,0,0,5.88-6.229A6.066,6.066,0,0,0-221.482,295.878Z" fill="#d10057"/>
      <path id="Trazado_575" data-name="Trazado 575" d="M-506.3,227.448l21.291-.635a6.072,6.072,0,0,0,5.874-6.055v-.19a6.064,6.064,0,0,0-6.237-5.865l-21.29.635a6.067,6.067,0,0,0-5.874,6.055v.182A6.069,6.069,0,0,0-506.3,227.448Z" fill="#d10057"/>
      <path id="Trazado_576" data-name="Trazado 576" d="M-319.7,389.015l-.221.008a6.056,6.056,0,0,0-5.836,6.267l.817,22.917a6.06,6.06,0,0,0,6.271,5.84,6.06,6.06,0,0,0,5.839-6.271l-.825-22.926A6.056,6.056,0,0,0-319.7,389.015Z" fill="#d10057"/>
      <path id="Trazado_577" data-name="Trazado 577" d="M-482.2,318.011l-.008-.23a6.056,6.056,0,0,0-6.267-5.836l-22.917.817a6.061,6.061,0,0,0-5.841,6.274,6.061,6.061,0,0,0,6.273,5.841l22.926-.818A6.067,6.067,0,0,0-482.2,318.011Z" fill="#d10057"/>
      <path id="Trazado_578" data-name="Trazado 578" d="M-224.059,327.825l-14.882-.5c-8.041-.267-8.031,12.226,0,12.493l14.882.495C-216.018,340.585-216.028,328.092-224.059,327.825Z" fill="#d10057"/>
      <path id="Trazado_579" data-name="Trazado 579" d="M-279.076,390.811c-.6-3.321-4.64-5.2-7.683-4.362-3.5.96-4.967,4.352-4.363,7.684q1.641,9.048,3.281,18.1c.6,3.322,4.64,5.2,7.684,4.363,3.5-.961,4.967-4.353,4.363-7.684Z" fill="#d10057"/>
      <path id="Trazado_580" data-name="Trazado 580" d="M-250.432,376.367c-5.778-5.6-14.622,3.229-8.833,8.834q8.622,8.348,17.243,16.7c5.779,5.6,14.623-3.229,8.834-8.834Z" fill="#d10057"/>
      <path id="Trazado_581" data-name="Trazado 581" d="M-231.529,352.607a5.639,5.639,0,0,0-.568.138c-.1,0-.229,0-.409.006-.569.017-1.137.015-1.705-.021.045-.029-1.177-.227-1.256-.248-.176-.047-1.823-.648-1.008-.285-2.977-1.327-6.853-.964-8.546,2.241-1.438,2.72-.946,7.126,2.24,8.546a22.9,22.9,0,0,0,14.573,1.669,6.29,6.29,0,0,0,4.363-7.684A6.4,6.4,0,0,0-231.529,352.607Z" fill="#d10057"/>
      <path id="Trazado_582" data-name="Trazado 582" d="M-98.3,25.971C-102.781,11.009-111.743.182-127.365-3.136-150.23-7.993-173.92-9-197.224-9.445c-26.644-.5-53.282.322-79.927.341-.808,0-52.1,1.765-52.1,1.765l-10.1-52.105a6.075,6.075,0,0,0-5.871-4.914l-131.947-1.634a6.512,6.512,0,0,0-5.955,4.633c-.9,3.737-1.384,10.285-1.894,17.208-.271,3.707-.573,7.725-.916,10.89L-577.8-29.576a6.061,6.061,0,0,0-5.8,6.3,2.832,2.832,0,0,0,.032.427l7.63,68.335a6.064,6.064,0,0,0,6.164,5.382l118.764-3.03c1.166,5.164,1.239,17.813,1.27,26.568.146,24.642.531,35.657,8.141,38.343,13.648,4.809,186.223,2.766,239.848,1.308l.02,11.339c-120.034,13.429-112.035,15.993-113.814,17.114-2.023,1.275-3.6,3.123-3.623,5.507L-320.525,319.4l-91.845,5.243.68-85.349,71.625.579h.04a6.05,6.05,0,0,0,6.063-5.853l1.468-44.707a6.069,6.069,0,0,0-5.583-6.243l-184.108-4.525a6.043,6.043,0,0,0-6.038,5.944l-1.5,75.916-2.395,74.682.295,0-1.59,32.677c-.576,11.842-1.309,23.678.239,35.478,2.205,16.808,9.144,45.359,30.656,43.7a6.962,6.962,0,0,0,1.388.173c13.715.362,27.535-.464,41.24-.861q38.036-1.1,76.062-2.447c39.359-1.354,78.883-1.963,118.185-4.586,13.4-.895,27.059-1.321,40.381-3.02,5.213-.664,10.15-2.651,13.055-7.287,3.082-4.918,3.3-10.931,3.923-16.533,3.129-28.3,13.2-161.821,13.2-161.821l87.632-2.923a6.054,6.054,0,0,0,5.872-5.788c-.348,7.862,2.409-46.554,5.145-120.842a6.765,6.765,0,0,0,.209-1.653C-96.107,88.4-89.21,56.341-98.3,25.971ZM-568.633,1.823c2.415.02,5,.062,7.829.114,1.915,3.571,3.727,6.715,5.528,9.807q1.187,2.061,2.394,4.185c-5.185.031-9.932.073-14.158.125Zm131.007,72.52c-.031-4.935-.084-9.172-.188-13.055l20.355-.146,1.125,14.835-21.271.76C-437.616,75.925-437.616,75.1-437.626,74.343ZM-312.467,371.78l-.438-13.109c1.187.031,2.374.063,3.55.083l0-.069a6.684,6.684,0,0,0,2.034.327c7.05.078,13.389-1.611,18.309-6.194l15.546,10.749a15.428,15.428,0,0,1-1.409,1.946c-4.993,5.843-10.843,5.96-17.964,6.242A168.5,168.5,0,0,1-312.467,371.78Zm48.617-171.351c-2.644.562-6.017,1.259-9.453,1.967-1.791.365-3.571.729-5.247,1.083.073-6.673.135-9.049.177-15.181,2.332-.4,5.153-.916,8.1-1.458,2.436-.458,4.747-.874,6.819-1.238C-263.569,191.671-263.7,193.974-263.85,200.429Zm.822-52.662c.021,9.15-.062,14.39-.229,25.508-2.457.406-5.819,1.031-9.213,1.656-2.051.385-4.029.739-5.872,1.072.011-11.972-.083-17.576-.333-26.394C-273.792,149.026-268.535,148.412-263.028,147.767Zm-15.7,68.111h.011c2.352-.489,5.09-1.062,7.849-1.624,2.332-.479,4.633-.947,6.715-1.385-.333,13.222-.729,17.646-1.145,31.784l-14.117.416C-279.143,231.671-278.9,228.121-278.727,215.878Zm-.947,41.309,14-.416c-.312,10.036-.635,27.277-.968,37.459-1.978.031-4.435.093-6.934.156-2.436.062-4.872.135-6.8.166C-280.122,284.3-279.893,267.119-279.674,257.187Zm-.989,49.473c2.051-.031,4.726-.094,7.412-.167,2.218-.062,4.393-.114,6.226-.156q-.187,6.027-.4,12.056c-.025.841-.056,1.69-.083,2.537a6.986,6.986,0,0,0-.191,1.37c-.33,8.014-.923,15.994-1.89,23.957-.181,1.484-.318,3-.472,4.519l-12.367-8.551c1.923-6.027,1.645-31,1.75-35.565Zm-65.215-78.93-66.878-.546c-3.978-.325-10.625-.023-10.928-.128,0,0-.457,109.233-.448,110.388l115.475-5.83c.01-.573.031-1.145.041-1.707.042-2.1.073-4.206.1-6.309h.073l1.354-170.418c3.633-.52,9.328-1.239,16.334-2.1.978,38.509-.583,98.835-2.457,172.885.077,0,.722,11.534-1.946,16.609-2.646,5.033-6.879,6.007-12.165,5.948a6.663,6.663,0,0,0-1.694.2l0-.058c-6.591-.163-104.705,4.831-124.384,5.4-6.451-4.637-4.918-23.63-5.489-24.547.841-34.316,1.665-78.892,2.271-112.739,19.639.193,50.546.306,62.538.306,10.837,0,20.406-.08,28.616-.3ZM-444.706,378.1a95.471,95.471,0,0,1,10.1-13.3c1.262-1.313,2.258-.649,3.147-.837l38.993-2.053,1.8,13.245C-409.71,376.173-441.582,378.187-444.706,378.1Zm-9.342-133.552c1.645-.365,3.217-.729,4.737-1.1-.271,11.743-.562,44.7-.864,56.819l-13.086,1.177c.333-11.65.635-43.952.885-54.821C-460.232,245.955-457,245.216-454.048,244.55Zm-8.047-10.557c.218-10.733.395-10.266.5-19.719l13.118-.489c-.167,8.995-.354,7.6-.552,17.075-2.124.614-5.028,1.27-7.693,1.874C-458.6,233.161-460.4,233.577-462.1,233.993Zm13.825-32.347v.01l-13.232.5c.007-1.5.014-7.38.017-11.984l13.294,0C-448.216,194.668-448.242,200.042-448.27,201.646Zm-15.345,106.993,13.138-1.177q-.341,13.363-.689,26.781c.095,0,.787,17.85,6.161,24.243a110.657,110.657,0,0,0-10.457,14.223,30.7,30.7,0,0,1-3.336-7.5,114.9,114.9,0,0,1-5.488-34.656C-464.056,323.185-463.83,315.857-463.615,308.639Zm84.809,65.881c-.015-.217-.018-.432-.047-.65q-.854-6.294-1.708-12.587l55.528-2.924.437,13.336C-325.482,371.666-351.9,373.079-378.806,374.52ZM-344.79,194.7l-.259,7.961c-11.916.31-27.059.389-44.508.26l-.34-11.8Zm-56.883,8.121c-4.309-.052-22.961-.108-34.723-.17.079-4.461.154-8.644.222-12.481l34.112,0ZM-163.51,237.19l-39.136,1.333a6.051,6.051,0,0,0-5.861,5.788s-8.268,131.869-10.96,156.219c-.624,5.636-.992,11.369-1.894,16.967-.236,1.462-.468,3.747-1.493,4.914-1.763,2.01-6.178,1.649-8.514,1.819-11.424.831-22.846,1.73-34.275,2.493-13.24.884-26.531,1.223-39.788,1.737q-74.18,2.879-148.382,5.118c-15.525.462-31.184,1.425-46.723,1.049a6.646,6.646,0,0,0-2.736-.055c-8.017,1.442-11.837-10.126-13.679-15.788a96.666,96.666,0,0,1-4.681-28.417c-.33-19.52,4.007-129.585,4.007-129.585l1.384-70.128h42.621c-.147,31.873-1.27,88.984-2.661,135.8-.33.744,1.532,33.96,7.678,47.939,2.617,5.954,6.685,11.135,12.742,13.815,6.47,2.863,13.528,2.44,20.385,1.637a7.13,7.13,0,0,0,1.085-.221c14.612-.307,106.592-4.976,122.22-5.335,7.782.548,15.427-.02,23.243-.153,8.914-.151,16.8-3,22.889-9.788,6.229-6.953,7.212-14.7,8.378-23.61,1.238-9.452,2.066-18.911,2.459-28.437a6.575,6.575,0,0,0-.177-1.835c.018-.559.039-1.118.055-1.677,2.336-71.589,4.549-131.1,4.4-172.427,21.914-2.54,36.089-6.277,55.952-8.494,3.071-.344,5.393-3.977,5.383-7.069v-7.1a22.97,22.97,0,0,0,0-2.832v-7.021l-.027,6.438c-.207-3.913-.838-9.5-1.483-10.8.083-7.246-9.942-7.568-9.942-7.568-91.738,2.5-216.393,2.428-235.132-.32-.7-2.426-1.041-7.329-1.228-12.743l246.64-7.641s4.066.062,5.414-.083c7.463,1.668,16.836,2.208,22.5,7.264,2.266,2.023,1.879,6.891,1.919,10.086.055,4.381-.149,8.762-.4,13.138-.156-.006-.314-.01-.47-.017C-162.925,169.679-163.435,215.428-163.51,237.19ZM-405.32,61.08l32.294-.2c-.177,2.322-.354,4.56-.531,6.736v.01c-.177,2.29-.364,4.643-.531,7.079l-30.139.906Zm43.392,13.263c.145-1.978.291-3.873.447-5.757.2-2.5.4-5.081.594-7.777l26.724-.156,2.155,12.795ZM-321.9,60.58l37.447-.239,1.937,11.514-37.27,1.218Zm49.721-.312,36.479-.219.562,10.38L-270.3,71.49Zm81.2.395c.157.106.38-.029.568-.048l-.142,8.481-32.471.968-.551-10.088S-193.088,59.236-190.975,60.663Zm50.316,175.851-10.743.322c.021-5.746.073-14.381.156-24.24l10.764-.635c-.124,8.443-.187,16.162-.187,21.513C-140.669,234.619-140.659,235.535-140.659,236.514Zm.365-33.7-10.838.635c.105-9.443.219-10.042.375-21.442l11.035.927C-139.94,193.693-140.138,193.772-140.294,202.819Zm.833-32-11.129-.947c.135-9.141.281-13.693.447-23.521l11.4-1.957C-139,155.129-139.243,160.691-139.461,170.821Zm-10.463-36.794c.048-2.742.1-9.536.154-15.08a6.523,6.523,0,0,0,.663-2.568,201.33,201.33,0,0,0,.607-20.563c-.239-5.445-.723-11.475-4.766-15.559-6.531-6.6-15.947-8.275-24.828-10.225l.474-9.273c3.046.3,6.072.719,9.007,1.152,7.194,1.059,16.552,1.878,22.792,5.983.059.039.09.058.121.076.053.049.129.116.246.216a16.162,16.162,0,0,1,1.3,1.28,9.994,9.994,0,0,1,1.8,2.509,29.007,29.007,0,0,1,3.115,8.473c2.455,10.824,1.422,22.458.2,33.369a5.4,5.4,0,0,0,.752,3.648c-.058,5.182-.117,12.172-.175,14.594Zm21.373,102.133c-.118-20.743,1.139-69.4,2.457-123.766l-.294,0c1.882-17.243,3.643-42.45-11.759-54.279-6.853-5.263-17.03-6.647-25.313-7.966-8.381-1.334-17.466-2.851-26.035-2.121l-.7-.364-120.232.707a6.024,6.024,0,0,0,5.642-6.246l-.822-20.269a6.053,6.053,0,0,0-6.049-5.8h-.124A6.056,6.056,0,0,0-317.7,22.1v.624a3.919,3.919,0,0,0,.052.791l.77,19.1a6.029,6.029,0,0,0,5.83,5.767l-127.553.791c-.968-7.516-2.925-11.7-7.142-13.19a6.76,6.76,0,0,0-2.175-.354l-116.6,2.978-1.166-10.463c37.28-.427,115.7-.208,116.547-.208h.01a6.072,6.072,0,0,0,5.049-2.707c4.154-6.3,3.061-20.457,2.395-26.255a6.062,6.062,0,0,0-5.768-5.362c-.895-.042-87.845-3.592-122.533-3.925l-.832-7.422,90.332-3.634a6.061,6.061,0,0,0,5.643-4.622c.906-3.758,1.395-10.317,1.9-17.282.26-3.581.541-7.443.874-10.556L-350.3-52.3l10.067,51.9a6.057,6.057,0,0,0,5.591,4.893S-184.826.343-141.855,6.9c7.123,1.087,16.19,1.582,22.052,6.226,4.121,3.264,6.855,8.5,8.589,13.48,5.164,14.828,5.232,31.227,4.857,46.742-.372,15.346-2.3,30.66-2.359,46a6.811,6.811,0,0,0,.164,1.525c-2.312,62.608-4.548,106.969-4.883,114.817ZM-546.761,2.26c9.432.25,19.812.572,30.264.916l-4.966,12.618c-5.986.01-11.9.031-17.615.052-1.988-3.717-3.862-6.965-5.725-10.171C-545.449,4.561-546.115,3.415-546.761,2.26Zm38.322,13.513,4.778-12.16c7.735.271,15.21.542,22.1.8,1.385,3.144,2.644,5.58,3.9,7.974.573,1.093,1.145,2.207,1.739,3.394C-485.484,15.773-496.779,15.762-508.439,15.773Zm40.57-10.848L-453.3,5.5a62.166,62.166,0,0,1-.208,10.327c-2.269,0-5.351-.011-9.057-.021-.791-1.853-1.53-3.456-2.249-4.914s-1.416-2.8-2.113-4.122C-467.244,6.174-467.567,5.529-467.869,4.925Z" fill="#d10057"/>
      <path id="Trazado_583" data-name="Trazado 583" d="M-125.876,32.82c-13.349-9.985-30.192-13.331-46.452-10.188-7.886,1.524-4.547,13.567,3.321,12.046,13.108-2.533,26.223,1,36.826,8.929C-125.741,48.425-119.507,37.585-125.876,32.82Z" fill="#d10057"/>
      <path id="Trazado_584" data-name="Trazado 584" d="M-482.624,344.982c0-3.12-2.869-6.581-6.247-6.246l-14.557,1.444c-3.357.332-6.246,2.632-6.246,6.246,0,3.12,2.869,6.581,6.246,6.246l14.557-1.444C-485.514,350.9-482.624,348.6-482.624,344.982Z" fill="#d10057"/>
      <path id="Trazado_585" data-name="Trazado 585" d="M-399.561,400.641q.1,7.731.2,15.461c.106,8.032,12.6,8.055,12.493,0l-.2-15.461C-387.174,392.609-399.667,392.586-399.561,400.641Z" fill="#d10057"/>
      <path id="Trazado_586" data-name="Trazado 586" d="M-432.671,400.871q.211,8.422.424,16.843c.2,8.025,12.7,8.056,12.493,0q-.213-8.421-.424-16.843C-420.38,392.846-432.874,392.816-432.671,400.871Z" fill="#d10057"/>
      <path id="Trazado_587" data-name="Trazado 587" d="M-472.184,393.552q-8.357,10.115-16.714,20.23c-2.165,2.62-2.518,6.26,0,8.833,2.189,2.238,6.691,2.594,8.834,0q8.356-10.114,16.714-20.23c2.165-2.62,2.517-6.26,0-8.833C-465.539,391.314-470.041,390.958-472.184,393.552Z" fill="#d10057"/>
    </g>
  </g>
</svg>
