<svg xmlns="http://www.w3.org/2000/svg" width="462.35" height="261.853" viewBox="0 0 462.35 261.853">
  <g id="glifo_cocodrilo" transform="translate(-445.636 -81.834)">
    <g id="Grupo_21" data-name="Grupo 21" transform="translate(445.636 81.834)">
      <path id="Trazado_31" data-name="Trazado 31" d="M650.757,343.687c-2.415,0-4.706-.082-6.817-.156l-153.187-5.573c-6.58-.237-14.781-.54-21.794-4.984-10.426-6.613-13.569-18.856-15.4-31.107a716.252,716.252,0,0,1-4.87-172.247c1.359-14.641,4.141-29.47,15.247-38.718,11.318-9.412,27.3-9.174,37.941-9.027l184.67,2.709c6.711.1,14.3.213,21.548,2.8,8.953,3.192,15.468,9.788,17.423,17.653,1.293,5.189.5,10.263-.2,14.747-.671,4.247-1.236,7.914-.049,10.7,2,4.722,9.248,6.866,21.188,6.482l102.364-3.617c11.417-.4,24.339-.851,36.37,3.683a5.015,5.015,0,0,1,.573.245c22.825,11.408,21.737,25.125,20.591,39.635-.328,4.125-.663,8.389-.581,13.1.336,18.455.859,36.909,1.375,55.364l.769,28.251c.27,10.631-.016,20.869-6.367,29.2-9.731,12.742-27.776,12.636-37.8,12.734l-179.989-.147c-.1,7.39-1.637,18.267-9.166,22.874C667.141,342.852,658.392,343.687,650.757,343.687ZM497.93,94.118c-10.23,0-19.7.851-26.147,6.22-8.053,6.711-9.837,19.216-10.869,30.42a703.876,703.876,0,0,0,4.78,169.285c1.407,9.371,3.568,18.586,9.845,22.563,4.206,2.668,10.3,2.889,15.664,3.085l153.186,5.573c7.652.278,17.154.622,23.8-3.445,2.627-1.612,3.814-10.95,3.077-17.906a6.142,6.142,0,0,1,6.105-6.776h.008l186.389.147h.172c10.6,0,22.318-.646,27.842-7.9,3.953-5.172,4.084-12.775,3.863-21.45l-.769-28.218c-.515-18.488-1.031-36.991-1.375-55.479-.09-5.32.287-10.091.622-14.3,1.072-13.634,1.571-19.9-13.553-27.539-9.665-3.544-20.656-3.151-31.312-2.791l-102.372,3.617c-6.531.254-26.59.941-32.916-13.945-2.561-6.015-1.612-12.063-.777-17.4.565-3.65,1.1-7.1.417-9.87-1.138-4.558-5.72-7.676-9.641-9.068-5.328-1.907-11.572-2-17.6-2.087L501.694,94.151C500.434,94.126,499.182,94.118,497.93,94.118Z" transform="translate(-445.636 -81.834)" fill="#be1b67"/>
    </g>
    <g id="Grupo_22" data-name="Grupo 22" transform="translate(545.459 222.556)">
      <path id="Trazado_32" data-name="Trazado 32" d="M491.047,183.381h-.229l-26.835-1a6.143,6.143,0,0,1-5.917-6.154c.016-3.257-.041-7.554-.1-12.448-.622-48.424.769-60.365,7.423-63.892,2.423-1.277,4.853-1.195,19.854.671,2.709.336,5.009.638,6.08.712a6.429,6.429,0,0,1,2.856.491,6.136,6.136,0,0,1,3.715,5.7l-.712,69.85a6.144,6.144,0,0,1-6.138,6.073Zm-20.73-13.045,14.649.548.6-57.918c-.573-.065-1.186-.147-1.833-.221-3.028-.377-8.486-1.056-11.834-1.334-2.209,9.043-1.825,38.849-1.653,52.213C470.276,166.015,470.293,168.274,470.317,170.336Z" transform="translate(-457.834 -99.029)" fill="#be1b67"/>
    </g>
    <g id="Grupo_23" data-name="Grupo 23" transform="translate(598.54 224.39)">
      <path id="Trazado_33" data-name="Trazado 33" d="M494.767,188.826a6.153,6.153,0,0,1-5.623-3.675,6.066,6.066,0,0,1-.393-3.666c-1.31-6.8-13.282-37.22-18.5-50.495-3.495-8.863-5.189-13.193-5.655-14.747a6.116,6.116,0,0,1,2.66-7.03c1.342-.818,13.323-8.069,21.09-9.813a6.143,6.143,0,0,1,6.645,2.905c9.78,16.785,16.27,31.418,23.128,46.9,2.717,6.13,5.524,12.48,8.683,19.281a6.135,6.135,0,0,1-3.1,8.2l-25.935,11.384-.54.245A6.2,6.2,0,0,1,494.767,188.826Zm-16.753-71.659c.99,2.553,2.3,5.892,3.65,9.33,9.665,24.568,15.132,38.89,17.718,47.459l13.659-6c-2.152-4.763-4.174-9.322-6.155-13.774-6.375-14.4-11.965-27.007-20.034-41.37A94.785,94.785,0,0,0,478.014,117.167Z" transform="translate(-464.32 -99.253)" fill="#be1b67"/>
    </g>
    <g id="Grupo_24" data-name="Grupo 24" transform="translate(623.928 112.531)">
      <path id="Trazado_34" data-name="Trazado 34" d="M497.156,143.782c-.287,0-.573-.008-.859-.008a33.744,33.744,0,0,1-14.993-3.29,25.625,25.625,0,0,1-13.782-20.337c-.81-8.912,3.363-18.389,10.893-24.748,6.007-5.074,14.15-8.372,23.561-9.534,10.075-1.252,24.814,1.6,33.284,10.844a23.134,23.134,0,0,1,5.557,21.286C536.749,136.907,512.246,143.782,497.156,143.782Zm9.591-45.936a25.843,25.843,0,0,0-3.265.2h-.008c-7.03.867-12.955,3.2-17.137,6.727-4.517,3.822-7.046,9.281-6.588,14.256a13.421,13.421,0,0,0,7.128,10.516,21.992,21.992,0,0,0,9.641,1.956c12.292.164,29.961-5.262,32.294-16.09A11.014,11.014,0,0,0,526.2,105C521.74,100.12,513.491,97.845,506.747,97.845Zm-4.027-5.892h0Z" transform="translate(-467.422 -85.585)" fill="#be1b67"/>
    </g>
    <g id="Grupo_25" data-name="Grupo 25" transform="translate(651.042 137.525)">
      <path id="Trazado_35" data-name="Trazado 35" d="M476.874,101.038a6.138,6.138,0,0,1-.1-12.276l7.161-.123h.1a6.138,6.138,0,0,1,.107,12.276l-7.161.123Z" transform="translate(-470.735 -88.639)" fill="#be1b67"/>
    </g>
    <g id="Grupo_26" data-name="Grupo 26" transform="translate(687.645 166.55)">
      <path id="Trazado_36" data-name="Trazado 36" d="M656.724,215.644h-.172L483.028,210.9a6.121,6.121,0,0,1-4.812-2.545c-3.74-5.2-3.928-22.882-.925-85.972.4-8.348.745-15.615.909-20.722a6.139,6.139,0,0,1,5.41-5.884C528.842,90.4,648.5,92.631,653.565,92.721a6.131,6.131,0,0,1,5.7,8.094l-15,44.676a6.136,6.136,0,0,1-10.492,2.013c-2.807-3.3-7.022-8.037-10.336-11.752l-3.871-4.378c-7.988-3.625-58.351-2-105.122,1.776-.016,8.29-.557,16.237-1.089,23.971-.377,5.5-.761,11.122-.949,16.875l20.893-.025,14.649-19.47a6.144,6.144,0,0,1,8.6-1.2c1.383,1.039,2.464,2.643,4.829,6.146,2.333,3.462,9.428,13.978,12.612,14.944,4.926,1.039,54.628,1.4,83.885-.5a6.014,6.014,0,0,1,5.614,2.881c2.75,4.419,2.513,15.795-.72,33.824A6.134,6.134,0,0,1,656.724,215.644ZM487.971,198.761l163.564,4.468a133.026,133.026,0,0,0,1.587-16.769c-27.833,1.408-75.406,1.416-81.97-.123-6.514-1.539-12.464-9.084-18.422-17.767L541.265,183.8a6.147,6.147,0,0,1-4.894,2.447l-30.231.033h-.008a6.161,6.161,0,0,1-6.138-6.179c.049-8.282.6-16.18,1.113-23.815.655-9.665,1.277-18.79.982-28.595a6.146,6.146,0,0,1,5.622-6.3c73.8-6.261,114.412-5.77,120.705,1.473l4.182,4.73c1.072,1.2,2.251,2.512,3.429,3.846l8.929-26.573c-27.326-.393-114.3-1.3-154.684,2.545-.2,4.419-.442,9.722-.72,15.549C488.544,144.116,486.555,185.92,487.971,198.761Zm131.172-67.853.049.057Z" transform="translate(-475.207 -92.186)" fill="#be1b67"/>
    </g>
    <g id="Grupo_27" data-name="Grupo 27" transform="translate(487.064 107.52)">
      <path id="Trazado_37" data-name="Trazado 37" d="M494.235,187.929a135.157,135.157,0,0,1-35.363-4.755,6.137,6.137,0,0,1-4.509-5.385c-.328-3.552-.868-7.431-1.432-11.49-2.16-15.378-4.608-32.809,2.447-46.174,14.42-27.359,52.893-33.57,68.762-34.978,4.42-.4,10.827-.442,15.28,3.642,4.828,4.428,5.213,11.441,5.2,19.486,0,2.864-.36,28.366-12.145,38.587-8.8,7.644-28.98,9.477-42.286,6.392-8.9-2.062-14.911-6.2-17.358-11.99-1.8-4.256-1.506-9.2.859-14.289,3.061-6.58,9.256-12.423,15.058-14.216,5.86-1.809,18.2-1.268,23.169,1.007a6.136,6.136,0,0,1-5.1,11.163c-2.071-.892-11.073-1.481-14.445-.442-2.25.7-5.819,3.936-7.554,7.668-.818,1.768-1.08,3.388-.687,4.321.63,1.49,3.29,3.535,8.822,4.82,11.555,2.692,26.982.2,31.475-3.707,5.131-4.452,7.906-18.43,7.914-29.331.008-6.162-.409-9.673-1.227-10.426-.033-.033-1.039-.9-5.892-.458-10.828.958-47.058,5.843-59,28.48-5.2,9.862-3.044,25.206-1.146,38.743.376,2.668.736,5.262,1.039,7.75,29.724,6.981,59.849,2.815,89.573-12.464a6.158,6.158,0,0,1,7.374,1.359c2.8,3.118,2.848,7.39.115,10.877a6.127,6.127,0,0,1-7.8,1.588C535.13,183.182,514.67,187.929,494.235,187.929Z" transform="translate(-450.698 -84.973)" fill="#be1b67"/>
    </g>
  </g>
</svg>
