<svg xmlns="http://www.w3.org/2000/svg" width="524.1" height="444.377" viewBox="0 0 524.1 444.377">
  <path id="glifo_lagarto" d="M1078.406,369.836h27.611a6.042,6.042,0,0,0,0-12.083h-27.611a6,6,0,0,0-1.356.276l-.883-21.061,28.715.5h.11a6.038,6.038,0,0,0,.11-12.076l-33.1-.575a5.687,5.687,0,0,0-1.789-.449l-34.43-2.1a6.122,6.122,0,0,0-3.373.788c-2.514,1.435-6.322,1.159-10.673.694l-47.293-5.084.52-51.77,7,.4-.528,4.272c-.536,4.3-1.537,12.312,3.366,18.224,5.005,6.022,13.25,6.408,17.672,6.613l60.1,2.79c.686.032,1.521.071,2.459.071,3.7,0,8.946-.607,12.612-4.635a11.913,11.913,0,0,0,1.04-1.529l26.287.843h.189a6.026,6.026,0,0,0,6.038-6.03l.15-96.84c.016-6.44.031-17.23-7.141-24.34-7.007-6.944-17.57-6.991-23.883-7.015l-93.34-.394a5.956,5.956,0,0,0-6,5.155l-3.531,24.159a3.718,3.718,0,0,0-.41-.071l-13.873.552,1.041-79.082,68.346,3.074a5.875,5.875,0,0,0,3.626-1.159h22.85a6.038,6.038,0,0,0,0-12.075h-19.8l.953-19.359,21.8.694h.189a6.035,6.035,0,0,0,.2-12.068l-21.6-.694.741-15.086,22.969-.922a6.048,6.048,0,0,0,5.8-6.274,5.983,5.983,0,0,0-6.275-5.793l-21.96.875a5.967,5.967,0,0,0-6.329-6.046c-8.072.465-18.105.654-20.037.244a6.047,6.047,0,0,0-7.764,5.518c-.338,7.827-.678,13.613-1.025,19.374-.259,4.327-.52,8.639-.772,13.786l-79.295-3.476a5.912,5.912,0,0,0-4.453,1.687,6.039,6.039,0,0,0-1.837,4.4l1,124.546-80.043-2.349-1.372-60.5a6.026,6.026,0,0,0-5.565-5.88l-85.7-6.7-.449-32.884,20.123-.654a6.061,6.061,0,0,0,5.833-5.612l2.932-41.555a6.01,6.01,0,0,0-1.332-4.2l3.137-25.231a6.033,6.033,0,1,0-11.973-1.49l-3.035,24.387c-3.452.032-7.661.118-12.17.229l1.9-29.716a6.038,6.038,0,0,0-12.052-.765L739.811,39.2c-4.816.158-9.332.323-13.013.473V15.09a6.034,6.034,0,1,0-12.068,0V42.047a6,6,0,0,0-1.577,4.343l5.336,107.537a6.037,6.037,0,0,0,5.849,5.738l58.115,1.734-10.822,65.359c-27.556-.489-56.814-.969-86.113-1.45-30.417-.5-60.811-1.009-89.163-1.513h-.11a6.047,6.047,0,0,0-6.038,5.793c-5.131,125.61-.244,130.75,2.113,133.217a6.047,6.047,0,0,0,3.988,1.868c3.224.2,78.215,4.989,101.136,4.989.363,0,.71-.008,1.041-.008a6.025,6.025,0,0,0,5.975-5.73c1.277-25.1,3.791-83.622,3.791-83.622a6.047,6.047,0,0,0-1.726-4.493A5.955,5.955,0,0,0,702.071,274l-59.29,1.427a6.041,6.041,0,0,0-5.888,5.762l-1.214,27.462a6.038,6.038,0,0,0,1.695,4.469,5.96,5.96,0,0,0,4.406,1.837l32.065-.378L671.031,330l-48.1-1.143c.324-13.628,1.379-47.482,4.3-69.2,23.086,1.348,47.845,2.7,72.6,4.059,24.931,1.364,49.863,2.719,73.107,4.083.315,2.633.678,5.652,1.072,8.923,5.88,49.106,8.308,64.421,10.83,68.315,7.78,11.957,51.92,15.37,75.212,16.34.82,9.065,1.4,30.985,1.8,46.324.355,13.518.686,26.279,1.143,33.72a6.029,6.029,0,0,0,6.022,5.667h37.59a6.042,6.042,0,0,0,5.612-3.807c1.048-2.641,1.1-13.644.8-25.649a1.787,1.787,0,0,0,.2.047c4.264.166,6.59.339,8.922.5,2.428.173,4.856.347,9.293.528h.252a6.036,6.036,0,0,0,.229-12.068c-4.257-.166-6.582-.339-8.907-.5-2.436-.173-4.864-.347-9.317-.528a5.821,5.821,0,0,0-1.048.173c-.2-5.313-.442-10.3-.647-14.409l20.738-.118a6.039,6.039,0,0,0,6.014-6.061,6.289,6.289,0,0,0-6.053-6.014l-21.353.118a3.249,3.249,0,0,0-.378.079,5.992,5.992,0,0,0-5.021-3.7c-4.469-.386-6.936-.765-9.4-1.151-1.521-.236-3.026-.473-4.926-.709l-2.042-47.845a6.037,6.037,0,0,0-5.683-5.77L829.1,317l4.146-27.257,106.181,8.938,13.928,52.842a6.034,6.034,0,0,0,5.683,4.493l77.435,1.947c.291,4.706.788,10.948,1.316,17.42.725,9.049,1.482,18.413,1.521,22.212a6.034,6.034,0,0,0,5.651,5.975l27.382,1.75a6.181,6.181,0,0,0,4.612-1.71,5.917,5.917,0,0,0,1.616-3.429l23.756,2.444c.2.016.418.031.623.031a6.042,6.042,0,0,0,.607-12.052l-25.254-2.593-.765-18.358A5.3,5.3,0,0,0,1078.406,369.836Zm-27.265,22.031c-.283-4.7-.8-10.956-1.317-17.451-.741-9.128-1.505-18.563-1.529-22.393a6.035,6.035,0,0,0-5.888-5.99l-78.53-1.971-13.864-52.574a6.028,6.028,0,0,0-5.329-4.477l-116.049-9.766a5.944,5.944,0,0,0-6.471,5.108l-6,39.387a6.03,6.03,0,0,0,5.612,6.936l55.948,3.271,2.033,47.608a6.037,6.037,0,0,0,5.518,5.754c4.454.386,6.928.772,9.388,1.151,1.545.244,3.09.481,5.037.725.654,12.21,1.686,37.74,1.513,47.829H874.762c-.307-7.307-.568-17.246-.835-27.627-1.1-42.083-1.671-51.274-3.405-54.624a6.034,6.034,0,0,0-5.171-3.271c-34.335-1.1-66.581-6.172-70.159-10.641-2.191-5.108-6.921-44.589-9.191-63.57-.67-5.612-1.253-10.475-1.7-13.967a6.027,6.027,0,0,0-5.628-5.265c-24.663-1.466-51.423-2.932-78.183-4.39-26.712-1.466-53.433-2.924-78.065-4.383a6.079,6.079,0,0,0-6.306,5.029c-4.563,27.178-5.352,80.122-5.383,82.361a6.036,6.036,0,0,0,5.888,6.124l59.274,1.4h.15a6.041,6.041,0,0,0,5.943-4.958l5.052-27.69a6.041,6.041,0,0,0-1.332-4.982,6.732,6.732,0,0,0-4.682-2.144l-33,.394.686-15.449,47.2-1.127c-.638,14.48-2.183,49.989-3.216,71.294-23.079-.457-76.2-3.7-91.449-4.65-1.8-12.493-1.505-58.2.8-116.9,26.658.465,54.963.93,83.284,1.4,31.268.52,62.552,1.033,91.709,1.553h.1A6.036,6.036,0,0,0,783.171,233a5.325,5.325,0,0,0-.174-.946l12.5-75.5a6.036,6.036,0,0,0-5.778-7.023l-59.447-1.773L725.5,51.782c10.034-.441,29.495-1.009,39.308-1.119l-2.1,29.763-20.6.67a6.036,6.036,0,0,0-5.833,6.124l.607,44.321a6.036,6.036,0,0,0,5.565,5.935l85.75,6.7,1.38,60.772a6.026,6.026,0,0,0,5.856,5.9l92.033,2.688a5.714,5.714,0,0,0,4.406-1.718,6.02,6.02,0,0,0,1.813-4.367L932.672,83l78.948,3.46a5.955,5.955,0,0,0,4.343-1.576,6.058,6.058,0,0,0,1.955-4.185c.347-7.945.694-13.786,1.041-19.634.252-4.185.5-8.371.749-13.337,3.137.063,6.676-.016,10-.142l-2.609,53.2L958.525,97.7a6.135,6.135,0,0,0-4.414,1.639,6.008,6.008,0,0,0-1.892,4.312l-1.2,91.686a6.041,6.041,0,0,0,1.821,4.406,6.246,6.246,0,0,0,4.453,1.71l18.531-.741A5.968,5.968,0,0,0,980.9,206.9a6.029,6.029,0,0,0,6.842-5.1l4.445-30.37,10.7.039-1.033,20.809a6.032,6.032,0,0,0,5.73,6.329l.307.008a6.021,6.021,0,0,0,6.014-5.738l1.041-20.88c.008-.166-.063-.307-.071-.473l14.882.063a5.92,5.92,0,0,0-.962,2.641l-1.828,18.815a6.039,6.039,0,0,0,5.423,6.6c.2.016.4.024.591.024a6.043,6.043,0,0,0,6.006-5.454l1.829-18.823a5.917,5.917,0,0,0-.985-3.76l16.963.071a6,6,0,0,0-1.7,4.178v18.791a6.034,6.034,0,1,0,12.068,0V175.871a6,6,0,0,0-1.679-4.138l14.8.063c6.037.032,12.2.323,15.433,3.515,3.31,3.279,3.571,9.577,3.563,15.741l-.134,90.621-17.4-.552,4.848-58.084a6.057,6.057,0,0,0-1.648-4.674,5.685,5.685,0,0,0-4.579-1.868l-64.642,2.27a6.039,6.039,0,0,0-5.833,5.927l-.773,43.754a6.035,6.035,0,0,0,5.809,6.14l26.839.993a5.835,5.835,0,0,0,5.888-3.917,41.463,41.463,0,0,0,2.278-19.477,6.036,6.036,0,1,0-11.981,1.482,29.519,29.519,0,0,1-.426,9.671l-16.229-.6.567-32.112,52.125-1.821-4.477,53.63c-.087,1.048-.284,3.508-.812,4.083-.347.386-1.584.8-5.573.615l-60.1-2.8c-2.561-.118-7.33-.339-8.922-2.262-1.576-1.884-.993-6.519-.678-9.025l5.045-41.043a6.04,6.04,0,0,0-11.989-1.482l-3.042,24.758-14.1-.812a5.936,5.936,0,0,0-4.469,1.616,6.032,6.032,0,0,0-1.916,4.351l-.631,63.586a6.036,6.036,0,0,0,5.392,6.061l52.732,5.667c4.272.457,10.515,1.143,16.206-1.34l27.39,1.671,2.373,56.76Z" transform="translate(-587.947 -2.712)" fill="#be1b67"/>
</svg>
