<svg xmlns="http://www.w3.org/2000/svg" width="1292.797" height="882.033" viewBox="0 0 1292.797 882.033">
  <g transform="translate(-2766.452 -686.978)">
    <path d="M4046.853,1419.966c-3.868-1.125-33.193-12.753-33.193-12.753l13.251-1.6,7.875-1.259c2.553-.383,5.107-.771,7.63-1.3,8.892-1.876,15.347-8.029,15.7-14.973.387-7.681-5.635-15.048-14.327-17.517a102.33,102.33,0,0,0-11.523-2.314c-1.692-.274-3.384-.553-5.058-.851-38.249-6.934-65.13-24.959-82.179-55.11l-1.11-1.956.737-2.126c9.806-28.363,7.6-41.371-9.115-53.536-18.727-13.63-26.785-31.993-32.872-48.141a153.762,153.762,0,0,0-6.861-15.366c-45.53-89.865-118.217-149.2-222.209-181.406-5.162-1.6-10.334-3.167-15.691-4.8l-12.061-3.674.218-3.9c.1-1.807.144-3.5.181-5.107a62.024,62.024,0,0,1,.776-10c13.3-70.929,33.475-130.817,61.669-183.084,10.3-19.08,21.8-37.831,32.925-55.971,4.941-8.054,9.88-16.1,14.729-24.2,6.142-10.259,8.507-17.243,3.428-24.765-4.409-6.511-11.14-8.442-23.16-6.63-12.038,1.807-24.79,3.893-36.752,7.8-47.114,15.362-85.825,47.374-118.357,97.879-24.689,38.339-40.295,80.263-53.477,119.856-.875,2.638-1.876,5.237-3.12,8.462-.647,1.682-1.359,3.544-2.161,5.685l-4.066,10.822-7.1-14.5c-.941-1.877-1.524-3.067-2.046-4.281l-32.684-76.43q-26.365-61.668-52.751-123.325c-.567-1.324-1.09-2.723-1.618-4.127-2.936-7.84-4.579-10.732-9.876-10.608-5.226.174-6.929,3.37-9.831,11.17-.537,1.453-1.08,2.9-1.663,4.266q-24.244,56.665-48.393,113.375-16.972,39.8-33.949,79.585c-1.146,2.693-2.475,5.307-4.183,8.651-.864,1.717-1.844,3.629-2.944,5.869l-5.332,10.782-6.5-19.279c-1.646-4.918-3.031-9.04-4.466-13.136-15.978-45.727-35.127-93.7-66.816-134.8-30.937-40.121-66.065-65.424-107.412-77.351a164.91,164.91,0,0,0-39.051-6.446c-7.472-.249-13.415,2.116-16.476,6.73-3.171,4.789-3.045,11.683.33,18.906a104.45,104.45,0,0,0,8.755,14.316l1.274,1.862c51.58,75.583,86.25,161.58,103.036,255.611a38.566,38.566,0,0,1,.263,9.065c-.049.851-.1,1.632-.1,2.31v3.455L3175.9,1001c-8.4,3.121-16.715,6.058-24.925,8.95-17.631,6.217-34.282,12.1-50.46,19.378-84.632,38.085-145.251,99.641-180.176,182.95-6.173,14.74-12.559,29.982-28.687,40.644-12.793,8.442-18.772,21.185-16.841,35.87.533,4.057,2.116,8.208,3.793,12.609.842,2.2,1.687,4.425,2.445,6.7l.647,1.991-.961,1.857a93.721,93.721,0,0,1-49.2,44.87c-11.316,4.594-23.352,7.436-35,10.189-3.637.861-7.282,1.717-10.9,2.628-6.91,1.742-18.438,6.411-17.98,18.144.218,5.506,2.369,13.121,18.467,15.69,2.135.334,4.245.826,6.357,1.324l16.376,3.619-12.654,6.292c-7.1,3.529-13.783,4.594-21.151,5.525-3.221.408-9.483,1.847-8.512,6.009,4.236,18.249,58.071,31.395,86.175,29.821l5.915-.328-.691,5.879c-.245,2.071-.454,4.017-.652,5.889-.418,3.953-.807,7.551-1.374,11.121-1.244,7.805-2.539,15.6-3.834,23.4-2.379,14.376-4.838,29.24-6.964,43.879l-.358,2.329c-1.175,7.258-1.315,10.951,2.413,13.425,4.745,3.141,9.259.871,16.238-3.126l.583-.334a116.731,116.731,0,0,0,40.6-37.8c1.791-2.753,3.713-5.431,5.809-8.343,1.01-1.414,2.071-2.882,3.175-4.45l3.6-5.122,4.177,4.674c1.016,1.145,1.891,2.16,2.688,3.082a53.094,53.094,0,0,0,3.653,4l7.946,7.556c8.532,8.124,17.356,16.536,26.332,24.366,6.78,5.914,10.609,3.161,12.051,2.135,3.6-2.583,3.444-5.62,2.131-13.012-2.271-12.828-4.266-25.85-6.2-38.449q-1.167-7.624-2.36-15.262l-1.173-7.522,7.361,1.937c4.585,1.209,9.01,2.389,13.321,3.544,9.98,2.668,19.413,5.187,28.84,7.457,9.818,2.37,11.166-1.075,11.6-2.21,1.091-2.813.432-8.149-1.667-13.585a102.962,102.962,0,0,0-6.408-12.813c-2.016-3.609-4.1-7.347-5.844-11.285-10.593-23.943-14.038-50.366-10.235-78.54l.3-2.225,1.866-1.245c.526-.353.966-.692,1.353-.985a10.708,10.708,0,0,1,4.027-2.2,32.233,32.233,0,0,0,20.3-15.859,37.686,37.686,0,0,0,3.331-29.106c-2.638-8.527-6.347-16.84-10.271-25.64-1.855-4.167-3.752-8.422-5.6-12.843l-.741-1.767.636-1.8c.3-.861.539-1.822.793-2.822,1.194-4.729,3.194-12.634,12.23-14.451l2.641-.527,1.892,1.931c2.872,2.927,5.477,6,7.995,8.965,5.068,5.969,9.852,11.593,15.446,14.381,5.556,2.773,25.835,4.863,24.177-19.414-.233-3.424-1.185-10.3-1.185-10.3-5.275-34.323,6.547-69.107,30.858-90.771,19.37-17.258,44.129-23.42,67.907-16.924l3.887,1.065-1.94,33.571-4.133.5c-49.35,5.979-77.737,29.8-86.787,72.83h0a43.439,43.439,0,0,0-.643,13.958l.464,3.987c2.425,20.887,10.642,37.065,25.138,49.459,15.535,13.281,34.46,11.853,54.517,10.344l5.35-.4v5.366c0,1.21.025,2.24.042,3.151a36.2,36.2,0,0,1-.1,4.973c-1.109,9.9-2.3,19.8-3.488,29.693-2.758,22.9-5.611,46.582-7.308,69.9a105.288,105.288,0,0,0,4.922,38.339c6.556,20.668,21.331,32.834,43.93,36.149,34.222,5.008,67.907,1.936,96.354-1.732a95.279,95.279,0,0,1,12.057-.8c26.2,0,44.995,12.255,52.381,34.681,2.772,8.422,12.6,15.072,26.278,17.79,17.213,3.425,34.576-.433,42.267-9.363a48.1,48.1,0,0,0,5.151-8.054l.275-.487a96.554,96.554,0,0,0,4.6-9.578c5.092-12.136,14.55-19.971,26.641-22.062,9.4-1.623,19.857-2.2,32.884-1.842,10.19.289,20.515.931,30.49,1.548,17.167,1.07,34.924,2.16,52.147,1.479,41.764-1.657,62.428-23.839,61.417-65.936-.5-20.643-2.489-41.685-4.42-62.034-.763-8.039-1.518-16.073-2.2-24.118-.571-6.74-1.388-13.495-2.254-20.642-.413-3.415-.841-6.909-1.25-10.528l-.687-5.993,6.009.463c22.846,1.752,40.126,2.026,54.825-10.483,13.868-11.8,22.205-27.687,25.486-48.538l.289-1.842a60.77,60.77,0,0,0-.054-19.25h0c-19.912-48.738-26.513-54.109-88.336-71.81l-3.315-.951-2.466-31.071,3.515-1.319c20.827-7.795,43.964-3.465,63.478,11.9,26.547,20.9,40.943,57,36.671,91.97l-.388,8.587c-.419,9.2,3.6,18.368,11.375,23.311a14.028,14.028,0,0,0,8.323,2.588c5.844-.334,12.052-5.934,18.446-16.636a51.506,51.506,0,0,1,4.467-6.033c.97-1.195,2.094-2.574,3.413-4.276l4.518-5.819,15.668,26.83-1.7,2.584c-15.317,23.222-20.843,43.531-15.984,58.723,3.54,11.091,12.55,19.508,26.776,25.029l2.679,1.036.441,2.832c.195,1.219.434,2.5.688,3.818a72.331,72.331,0,0,1,1.447,10.5c1.325,31.818-6.873,61.715-24.349,88.858-4.243,6.581-4.741,9.324-2.312,12.759,2.505,3.534,5.795,4.33,13.067,3.111l2.023-.324a59.271,59.271,0,0,0,6.039-1.16c7.117-1.932,14.226-3.942,21.956-6.122l16.84-4.734-.428,6.984c-.175,2.857-.294,5.545-.4,8.124-.239,5.525-.469,10.747-1.195,15.909-1.007,7.044-2.415,14.082-3.778,20.887-.572,2.872-1.149,5.734-1.692,8.6-1.354,7.128-1.334,10.518,2.3,13.067,3.965,2.783,7,1.3,13.5-3.016a24.8,24.8,0,0,0,3.456-2.608c9.249-8.821,18.488-17.671,27.856-26.646l13.172-12.624,9.5,14.67c12.644,19.458,27.742,33.1,46.176,41.719,4.012,1.872,10.024,2.33,13.38,1.011,3.121-1.23,3.21-4.774,2.235-12.255-.517-3.9-1.208-7.79-1.9-11.668-.464-2.594-.927-5.181-1.334-7.78-2.748-17.268-5.467-34.541-8.238-52.123l-3.082-19.558,5.306-.468c1-.084,1.833-.179,2.558-.254a33.386,33.386,0,0,1,4.008-.269c27.368.507,50.949-5.386,72.208-17.99,7.641-4.53,9.611-7.362,8.458-12.121C4057.839,1421.733,4054.329,1422.136,4046.853,1419.966ZM3531.076,955.431c13.544-46.523,29.692-95.888,55.915-141.624,29.256-51.023,65.592-84.269,111.074-101.637,8.31-3.171,17.036-5.167,25.477-7.1,3.822-.871,7.647-1.747,11.429-2.733l3.536-.916,5.308,8.472-1.825,2.688c-95.774,141.091-134.476,298.037-115.031,466.476l.326,2.8-46.217,35.562s-.25-98.257-14.447-145.293c-6.192-20.534-13.67-41.132-20.9-61.053-4.274-11.782-8.7-23.968-12.826-36.054C3530.2,967.124,3529.587,960.539,3531.076,955.431Zm-170.834,314.444-69.48,29.051-4.436-11.389c-8.856-22.654-17.218-44.049-20.8-67.116l-2.553-15.128,9.975,6.008ZM3286.5,1201.9l-9.91-5.785c39.871-16.014,162.828-54.94,162.828-54.94l-68.649,117.367Zm161.028,53.656,48.166,92.776,5.927,9.249L3486.838,1355c-12.022-2.658-24.069-5.212-36.115-7.771-42.246-8.955-147.657-36.821-147.657-36.821l15.646-7.984Zm15.664-3.828,88.456-25.591,10.968-3.047-47.334,129.523Zm103.24-45.667-110.731-74,12.105-2.773,95.255-16.148,3.37,83ZM3556.1,1097.045,3455.9,1116.862l-.549-5.451c-2.808-27.9,4.261-94.046,4.261-94.046Zm-18.9,107.476,9.149,6.227-159.833,48.8,7.212-10.618,59.575-99.327Zm-100.359-80.5-160.259-15.566,21.866-9.134,143.63-73.219Zm-62.8,8.517,21.659,2.578-128,48.081-8.68,3.992,3.334-66.1Zm-114.828,233.1c1.656-13.47,3.589-27.065,5.455-40.216q1.233-8.654,2.434-17.258l2.11-15.247,7.212,13.594c9.649,18.154,15.11,38.22,20.385,57.628,6.262,23.018,12.743,46.822,26.262,68.241l3.6,5.709-6.516,1.758c-3.883,1.045-7.547,2.185-11.065,3.285-7.771,2.42-15.1,4.7-22.749,5.351-1.319.109-2.624.169-3.893.169-8.5,0-15.79-2.484-20.8-7.148-5.375-5-8.049-12.111-7.933-21.136.182-14.421,2.1-28.906,3.966-42.919C3258.2,1373.513,3258.728,1369.571,3259.212,1365.638Zm62.555,30.543c-4.524-14.047-8.239-28.323-11.822-42.132-1.562-6-3.1-11.927-4.684-17.726l-2.195-8.069,203.717,47.971-.195,4.132c-1.617,34.347-23.241,56.159-56.446,56.931-11.574.269-23.587.4-36.573.4-11.056,0-22.8-.095-35.592-.294C3347.338,1436.935,3331.057,1424.988,3321.767,1396.182Zm180.765,35.825c13.411-20.14,19.329-42.59,25.057-64.3,3.511-13.3,7.143-27.064,12.449-40.1,1.959-4.814,3.784-9.682,5.717-14.824l9.839-25.885,5.995,43.785c3.385,24.734,6.675,48.738,9.891,72.751a82.228,82.228,0,0,1,1,15.73c-.583,10.1-4.665,18.542-11.495,23.769a29,29,0,0,1-17.88,5.724,38.4,38.4,0,0,1-7.905-.841c-6.635-1.379-13.1-3.31-19.95-5.356-3.179-.946-6.466-1.926-9.92-2.9l-6.59-1.852Zm8.682-471.269,38.293,103.3,6.6,17.551-85.713-74.543,37.956-55.413Zm-98.442-228.756,34.964,82.318-87.15,41.629,4.294-11.449Zm40.848,96.321,33.061,77.2-7.626-.07c-44.46-.408-130.278-25.133-130.278-25.133l11.808-6.367Zm-109.153,63.86s83.572,28.055,120.377,27.2l13.9-.293-10.546,9.049C3444.784,942.648,3362.3,968.3,3326.7,968.3c-2.971,0-14.042-1.528-14.042-1.528Zm-40.685,97.565,1.18-2.818,3.041-.224A499.731,499.731,0,0,0,3480.994,942.3l10.955-4.993s-15.714,52.237-66.338,80.491c-30.1,16.795-62.433,30.728-92.594,46.373-13.344,6.919-26.691,13.838-40.082,20.648-2.642,1.344-5.336,2.574-8.766,4.132-1.811.827-3.827,1.752-6.167,2.842l-9.427,4.381,2.494-10.095C3278.635,1055.49,3288.721,1025.768,3303.783,989.728Zm-220-276.184-1.631-2.34,4.714-10.144,4.055,1.115c4,1.105,8.054,2.091,12.1,3.077,9.005,2.2,18.314,4.47,27.139,8.024,35.745,14.406,66.534,39.4,91.5,74.293,21.057,29.424,37.9,63.7,54.617,111.151,2.856,8.123,5.529,16.317,8.208,24.511,2.916,8.965,5.944,18.233,9.164,27.214,2.863,7.985,2.618,15.675-.792,24.934l-6.027,16.287c-9.174,24.725-18.661,50.3-26.726,75.793-14.988,47.364-19.293,93.448-13.161,140.877l1.527,11.852-50.505-38.627.374-2.852c10.454-79.939,5.8-161.361-13.828-242.022A662.145,662.145,0,0,0,3083.783,713.544Zm-77.937,756.6s-32.665-15.262-37.891-18.637c-4.385-2.828-8.138-3.853-10.284-2.833-1.947.931-3.356,4.067-3.857,8.607-.762,6.864-.509,13.833-.234,21.2.124,3.4.253,6.8.278,10.185s.016,6.75.011,10.119l5.908,25.432s-36.925-49.276-37.751-50.47c-1.816-2.633-4.291-4.057-6.631-3.967-2.379.114-4.55,1.7-6.108,4.47a47.457,47.457,0,0,0-3.4,8.661c-.487,1.508-.971,3.012-1.513,4.49-7.2,19.8-20.234,37.179-33.2,44.282l-8.879,4.859,12.269-77.978a55.265,55.265,0,0,0,.881-6.59c.264-5.3-.367-8.641-1.936-10.214-1.667-1.673-5.476-2.623-11.439-2.056-32.794,3.126-54.278-10.548-54.278-10.548s27.11-16.935,32.929-21.788c6.027-5.023,5.55-9.045,4.464-11.992-1.467-3.963-4.3-4.709-12.031-4.953l-1.777-.045a44.274,44.274,0,0,1-12.748-1.578l-12.674-3.947,12.135-5.361c3.051-1.349,6.135-2.643,9.216-3.933,6.535-2.748,13.3-5.585,19.551-8.9,17.96-9.478,32.975-23.585,44.612-41.928a41.807,41.807,0,0,1,6.979-7.765c1.224-1.155,2.544-2.4,3.924-3.823l4.659-4.814,3.265,5.849c15.983,28.637,31.813,26.109,42.351,21.693l3.191-1.334,31.843,34.019-.409,2.429c-4.052,24.287.678,54.935,13.326,86.3Zm14.442-148.234c2.317,9.433-1.031,17.925-8.961,22.714a17.265,17.265,0,0,1-9.055,2.633c-6.778,0-12.244-4.167-14.77-6.088a37.549,37.549,0,0,1-7.043-7.751l-1.15-1.543c-10.792-14.1-15.227-15.65-31.754-10.946-1.333.378-2.682.682-4.594,1.11l-7.347,1.683-1.782-3.435c-1.483-2.862-2.712-5.859-3.9-8.751-2.349-5.715-4.565-11.116-7.955-13.515-2.957-2.09-8.676-2.135-14.733-2.185-3.409-.025-6.938-.055-10.6-.408l-3.968-.383-.493-3.957c-.064-.523-.214-1.14-.363-1.827-.563-2.524-1.323-5.979-.622-9.527,1.43-7.243,7.751-15.018,16.915-20.782,9.1-5.734,18.811-8.049,25.945-6.2,25.934,6.69,46.89,16.676,64.059,30.519C3008.888,1291.951,3015.937,1304.232,3020.288,1321.908Zm162.033-195.783h-.166c-38.881,0-67.145,10.8-88.954,33.994-22.32,23.739-31.056,53.218-26.719,90.118l1.633,13.9-10.047-9.742c-9.885-9.592-18.651-13.9-26.806-13.1-8.535.812-16.922,7.248-25.629,19.677l-2.335,3.325-71.555-31.091.367-3.629C2940.3,1150,3082.947,1028.62,3178.293,1020.1l4.565-.408.781,4.52c5.029,28.986,4.445,57.743,3.833,88.187l-.258,13.734Zm528.17,108.029c13.619,24.969,8.99,55.7-11.016,73.069a40.765,40.765,0,0,1-36.314,9.119,33.8,33.8,0,0,1-23.879-20.379c-2.6-6.536-1.295-15.262,1.151-21.006,1.835-4.326,7.023-10.971,21.239-6.88,8.507,2.435,10.495.876,11.967-3.838.672-2.136,2.241-7.138-8.647-11.454a29.674,29.674,0,0,0-29.657,4.376c-9.8,7.536-14.743,19.652-13.23,32.415a152.734,152.734,0,0,0,3.986,19.234,172.942,172.942,0,0,1,4.082,19.458c5.745,43.76,10.343,82.841,14.063,119.483,1.015,9.971-1.7,20.494-3.834,27.542-4.868,16.089-16.157,25.716-30.971,26.4-26.292,1.235-52.406,1.349-74.483,1.274-6.54-.02-13.112-.5-19.468-.98-9.353-.7-18.183-1.349-26.974-.657-24.242,1.917-40.709,13.774-48.948,35.243a41.4,41.4,0,0,1-3.2,6.232l-.618,1.055a20.837,20.837,0,0,1-1.946,2.7l-.528.921-1.807,4.187H3394.15l-1.4-2.634c-.912-1.7-1.773-3.206-2.565-4.6a62,62,0,0,1-4.191-8.254c-12.21-31.45-42.685-36.91-65.917-35.91-9.294.388-18.581.891-27.876,1.389-19.318,1.04-39.294,2.111-59.006,2.121h-.031a69.808,69.808,0,0,1-34.143-9.1c-12.1-7.148-18.308-21.156-17.507-39.439,1.012-23.157,2.884-47.369,5.566-71.964,2-18.278,5.081-36.676,8.064-54.467l.987-5.879a191.062,191.062,0,0,1,5.883-23.391c3.633-12.116,2.468-24.282-3.185-33.371a30.639,30.639,0,0,0-21.633-14.162c-6.9-1.14-15.486,1.618-22.2,4.152a5.43,5.43,0,0,0-3.27,2.932,7.883,7.883,0,0,0,.412,6.107c1.086,2.543,2.948,4.973,8.7,3.664l1.667-.393c7.4-1.777,18.574-4.44,24.124,8.866,4.739,11.354-.469,25.909-11.847,33.132a41.785,41.785,0,0,1-56.274-10.9c-10.688-14.854-13.913-33.894-8.862-52.237a67.765,67.765,0,0,1,38.6-44.288c25.029-10.876,48.076-6.874,68.515,11.853,19.516,17.88,30.578,41.963,32.878,71.581,2.313,29.942-1.843,59.226-6.213,83.92-.449,2.564-.937,5.132-1.419,7.7-1.761,9.338-3.584,19-3.745,28.3-.213,13.146,1.23,23.645,4.417,32.092,8.088,21.444,30.19,30.275,57.642,23.092,5.512-1.438,11.1-3.419,16.492-5.326,5.341-1.891,10.867-3.853,16.517-5.376a50.984,50.984,0,0,1,20.056-1.439c37.979,5.491,77.852,5.566,118.515.214,7.852-1.041,16,.488,22.222,1.926,5.87,1.364,11.692,3.131,17.322,4.844,9.457,2.867,18.388,5.575,27.538,6.546,14.415,1.513,26.631-2.13,35.318-10.588,9.815-9.547,14.47-24.381,13.112-41.769-1.111-14.182-3.421-28.6-5.651-42.545-1.493-9.294-3.026-18.9-4.21-28.433-3.385-27.2-5.94-58.773,6.725-89.233,11.538-27.741,28.861-44.526,52.963-51.316C3664.008,1191.579,3695.478,1206.647,3710.491,1234.154Zm82.985,6.989c-7.035-.6-14.695,3.061-24.172,11.424l-8.408,7.417.139-11.215c.971-77.7-37.613-118.2-117.954-123.818l-4.569-.324-.066-4.575q-.1-6.548-.228-13.1c-.51-26.87-1.036-54.656,3.453-82.084l.682-4.121,4.181-.045c.3,0,.622,0,.925,0,84.6,0,235.87,128.223,246.064,208.939l.473,3.733-71.2,30.216-2.364-2.877C3810,1248,3801.436,1241.785,3793.476,1241.143Zm21.813,103.833c-11.244-5.834-12.957-18-8.831-27.015l.3-.667c5.382-11.773,11.485-25.108,21.346-34.024,16.047-14.5,36.707-24.466,63.148-30.479,15.605-3.524,39.425,10.9,43.208,26.2.816,3.3.345,6.586-.114,9.762-.19,1.339-.394,2.748-.5,4.236l-.388,5.257-5.228-.687c-2.2-.289-4.215-.587-6.1-.866-3.58-.533-6.665-.986-9.651-1.17-8.816-.528-12.047,1.916-14.322,10.906a67.6,67.6,0,0,1-3.564,9.712c-.682,1.608-1.414,3.335-2.172,5.257l-2.049,5.227-4.943-2.663c-18.7-10.081-31.162-6.412-43,12.643-3.674,5.9-10.254,10.728-17.914,10.732A19.918,19.918,0,0,1,3815.289,1344.975Zm151.306,95.061c-8.06-.537-12.892-.129-14.854,1.921-1.837,1.936-2.255,6.476-1.24,13.5,2.395,16.521,5.072,32.983,7.9,50.421,1.28,7.88,2.593,15.949,3.917,24.292l2.241,14.043-10.509-9.577c-16.6-15.148-27.339-30.688-33.775-48.922-.557-1.578-1.03-3.261-1.5-4.953-2.1-7.591-3.385-10.478-8.627-10.7-4.8-.144-6.372,2.3-9.358,8.975a56.328,56.328,0,0,1-3.01,6.033c-3.4,5.6-6.826,11.17-10.6,17.3l-22.774,25.705s9.712-51.1,9.105-61.521c-.279-4.819-4.1-15.322-6.677-17.706-1.662-1.533-3.482-.98-9.363,2.823l-1.374.886a181.626,181.626,0,0,1-23.839,12.943l-10.6,4.729,3.882-10.941c12.365-34.815,16.587-64.776,12.537-89.053l-.422-2.524,32.262-32.266,2.768.727c20.956,5.525,27.272.687,43.179-20.732l2.906-3.918,3.971,2.828c.727.512,1.543.975,2.36,1.443,2.459,1.409,5.251,3.007,6.994,5.9,16.471,27.219,41.1,46.627,75.3,59.345l25.929,9.647h-27.667c-1.881,0-3.793-.1-5.705-.2-3.922-.219-7.64-.413-10.8.383-4.241,1.08-8.154,3.748-8.617,4.953-.806,2.638.6,8.268,2.554,10.185,5.779,5.664,50.236,25.6,50.236,25.6S4005.476,1442.615,3966.594,1440.037Z" transform="translate(0)" fill="#ffaf00"/>
    <path d="M2977.917,747.288c-9.485,23.714-19.285,48.234-27.562,72.74-6.527,19.324-11.181,39.788-15.686,59.575-1.181,5.187-2.359,10.374-3.574,15.546-.841,3.614-.513,6.585.941,8.357,1.821,2.23,5.177,2.588,7.786,2.544,3.534-.169,4.934-2.484,6.76-11.2,12.355-59.037,31-115.087,55.415-166.6,1.68-3.554,3.054-7.263,4.434-11.066,1.494-4.107.571-6.765-3.082-8.891a7.619,7.619,0,0,0-3.768-1.214c-1.807,0-3.8.97-5.979,3.918a37.964,37.964,0,0,0-4.7,8.616C2985.283,728.85,2981.6,738.074,2977.917,747.288Z" transform="translate(653.109 79.95)" fill="#ffaf00"/>
    <path d="M2849.033,723.731c.453.871.9,1.737,1.3,2.578a750.391,750.391,0,0,1,55.5,165.418,51.394,51.394,0,0,0,3.1,10.792c.856,1.821,3.326,5.824,7.821,3.842,1.867-.836,3.7-3.12,5.325-5.132.249-.314.5-.612.732-.911-.275-1.742-.524-3.35-.753-4.844-.591-3.838-1.063-6.939-1.727-10a797.325,797.325,0,0,0-47.761-147.587,297.446,297.446,0,0,0-13.536-27.324,6.585,6.585,0,0,0-4.066-3.454,3.545,3.545,0,0,0-.727-.075,4.489,4.489,0,0,0-2.693,1.011c-2.188,1.647-4.266,5.794-4.838,9.647C2846.53,718.9,2848.038,721.81,2849.033,723.731Z" transform="translate(319.19 79.787)" fill="#ffaf00"/>
    <path d="M3029.542,889.6c11.047-4.057,18.208-14.346,19.767-28.3.891-2.907-.33-9.637-.995-12.031-1.62-5.809-3.232-8.039-6.458-12.569-5.719-8.024-11.179-13.8-25.719-15.332a17.819,17.819,0,0,0-1.787-.09c-8.606,0-17.378,6.362-21.36,15.745-5.884,13.853-3.464,27.418,7.381,41.465C3008.48,888.964,3019.67,893.235,3029.542,889.6Zm-17.98-49.987,2.39-2.937,3.469,1.528c9.575,4.221,13,10.194,14.176,14.466,1.171,4.236,1.315,11.046-4.638,19.428l-2.525,3.554-3.853-2.031c-10.24-5.4-13.476-11.872-14.386-16.357C3005.368,853.213,3005.633,846.867,3011.563,839.609Z" transform="translate(888.714 534.193)" fill="#ffaf00"/>
    <path d="M2848.228,844.6c-2.011-9.826-6.587-16.92-13.237-20.509-6.844-3.7-15.611-3.613-25.372.269-13.35,5.306-15.351,16.158-17.473,27.641-.343,1.862-.68,3.7-1.064,5.486.069,1.573.11,2.942.14,4.161a45.076,45.076,0,0,0,.347,5.551c1.414,9.079,6.6,16.446,14.237,20.215a24.6,24.6,0,0,0,22.928-.712C2842.194,879.374,2851.3,859.7,2848.228,844.6ZM2820.3,872.932l-3.1,2.3-3-2.43c-5.96-4.823-8.871-10.866-8.2-17.019.781-7.183,6.321-13.7,15.6-18.358l4.036-2.021,2.411,3.828C2836.445,852.593,2834.125,862.673,2820.3,872.932Z" transform="translate(97.975 534.639)" fill="#ffaf00"/>
  </g>
</svg>
