<svg xmlns="http://www.w3.org/2000/svg" width="579.817" height="579.849" viewBox="0 0 579.817 579.849">
  <g transform="translate(-161.092 -307.076)">
    <g transform="translate(-1193.717 88.016)">
      <path d="M1519.625,406.207v.017a.98.98,0,0,1,.115.306A.568.568,0,0,0,1519.625,406.207Z" transform="translate(49.705 58.815)" fill="#13235a"/>
      <path d="M1534.623,397.322a13.754,13.754,0,0,0-9.415.058,21.109,21.109,0,0,0-4.533,2.317,15.726,15.726,0,0,0-3.338,2.711c-3.615,4.256-3.323,10.188-.743,14.91a14.022,14.022,0,0,0,4.8,5.189,15.875,15.875,0,0,0,8.949,2.07,14.076,14.076,0,0,0,4.285-27.255Zm1.866,13.759a.827.827,0,0,1-.015.189,9.839,9.839,0,0,0-.248,1.239c-.029.117-.073.335-.131.525-.029.029-.044.087-.087.146a17.071,17.071,0,0,1-.918,1.574.2.2,0,0,1-.058.044c-.2.219-.394.437-.612.641-.146.146-.291.277-.437.408a.65.65,0,0,0-.1.1,1.364,1.364,0,0,0-.146.073c-.408.233-.787.466-1.2.685-.131.058-.452.2-.525.219a8.787,8.787,0,0,1-1.064.277,2.816,2.816,0,0,1-.393.058,5.647,5.647,0,0,1-.7.044c-.452.015-.9-.015-1.355-.044-.16-.029-.5-.073-.568-.073-.262-.058-.525-.117-.787-.189s-.525-.146-.787-.219c-.2-.073-.408-.131-.612-.219a.443.443,0,0,0-.16-.044c-.015,0-.029-.015-.044-.015h-.015a.014.014,0,0,1-.015-.015h-.014l-.015-.015a.02.02,0,0,0-.029,0,5.2,5.2,0,0,1-.467-.306c-.087-.058-.175-.131-.262-.189-.277-.262-.554-.51-.8-.787a2.7,2.7,0,0,0-.321-.394l-.131-.175c-.2-.321-.408-.641-.583-.977a7.359,7.359,0,0,0-.467-.977c0-.015-.015-.029-.015-.044-.087-.219-.146-.452-.219-.67s-.087-.656-.16-.991c0,.146-.1.189-.116-.19v-.131a4.382,4.382,0,0,1-.029-.437c-.014-.35.015-.685.029-1.035.058-.219.087-.437.16-.641.029-.146.088-.277.131-.423.029-.044.044-.087.088-.16.073-.146.175-.277.262-.423a.109.109,0,0,1-.058.029c0-.029.044-.087.116-.131a.3.3,0,0,0,.058-.087c.262-.248.7-.641.758-.7a.615.615,0,0,1,.1-.073c.277-.189.539-.379.816-.568a18.636,18.636,0,0,1,1.72-1.049c.292-.16.583-.306.889-.452l.146-.073a11.968,11.968,0,0,1,1.6-.481c.087-.029.291-.058.408-.087.248-.015.481-.029.729-.029s.525,0,.787.015a2.3,2.3,0,0,0,.277.015c.015.015.029.015.058.015.539.131,1.064.262,1.589.437a.11.11,0,0,1,.073.015c.014.015.014.015.044.015.219.131.452.248.685.379.2.117.408.262.612.393.087.073.175.16.277.233.2.2.568.481.816.772a.439.439,0,0,0,.073.189c.175.277.364.539.525.831.117.219.219.437.321.656.014.015.014.029.014.058a14.64,14.64,0,0,1,.408,1.428c.015.073.029.16.044.233s.029.16.029.19a3.164,3.164,0,0,0-.044-.423c.1.058.058.875.073,1.006C1536.5,410.541,1536.5,410.8,1536.488,411.081Z" transform="translate(47.424 54.383)" fill="#13235a"/>
      <path d="M1520.153,403.981c-.018.031-.031.051-.054.093l-.033.054a1.107,1.107,0,0,0,.127-.188Z" transform="translate(49.907 57.777)" fill="#13235a"/>
      <path d="M1576.622,412.229a34.656,34.656,0,0,0-5.7-9.853c-8.8-10.494-23.189-14.939-36.467-15.508a59.167,59.167,0,0,0-18.773,2.1c-4.912,1.414-10.071,3.658-13.584,7.506-3.717,4.037-4.912,9.824-4.314,15.187.977,8.687,6.5,16.309,13.074,21.8,6.457,5.393,15.042,8.147,23.2,9.62,7.418,1.355,16.178,2.332,23.422-.394,8.526-3.4,16.951-9.415,20.143-18.394C1579.027,420.362,1578.094,416,1576.622,412.229Zm-9.838,15.916a31.582,31.582,0,0,1-11.237,7.521,20.5,20.5,0,0,1-7.215,1.312,55.306,55.306,0,0,1-9.459-.452,55.931,55.931,0,0,1-18.919-5.684,31.488,31.488,0,0,1-13.671-14.9,16.139,16.139,0,0,1-1.3-7.885c.014-.233.029-.452.058-.685.015-.087.088-.656.088-.685.116-.583.233-1.166.379-1.749.116-.437.262-.86.394-1.3.116-.2.219-.423.335-.627.189-.335.408-.656.627-.977a.155.155,0,0,0,.058-.044c.131-.16.277-.321.408-.466a13.025,13.025,0,0,1,1.02-.991c.131-.117.262-.233.408-.35.087-.073.146-.131.189-.175a.649.649,0,0,0,.146-.087,26.713,26.713,0,0,1,2.463-1.53c.437-.248.9-.481,1.355-.7.219-.1.423-.189.641-.292a5.357,5.357,0,0,0,.539-.233,46.092,46.092,0,0,1,14.75-2.988c11.193-.554,23.364,1.866,32.036,8.614,5.043,3.935,9.24,9.634,10.1,16.178C1571.4,422.3,1569.233,425.565,1566.784,428.145Z" transform="translate(39.647 49.941)" fill="#13235a"/>
      <path d="M1616.71,406.574a1.065,1.065,0,0,1,.111-.35v-.017A.532.532,0,0,0,1616.71,406.574Z" transform="translate(94.12 58.815)" fill="#13235a"/>
      <path d="M1616.33,407.882l0-.009a.484.484,0,0,1,.022-.12A.3.3,0,0,0,1616.33,407.882Z" transform="translate(93.947 59.522)" fill="#13235a"/>
      <path d="M1616.3,403.995l-.06-.06a1.208,1.208,0,0,0,.149.207C1616.363,404.094,1616.334,404.044,1616.3,403.995Z" transform="translate(93.909 57.775)" fill="#13235a"/>
      <path d="M1615.474,409.34l.039-.041c.019-.02.022-.034.038-.052.038-.051.063-.1.1-.147C1615.708,408.976,1615.614,409.007,1615.474,409.34Z" transform="translate(93.556 60.108)" fill="#13235a"/>
      <path d="M1616.779,405.361c0-.041,0-.077,0-.117a1.558,1.558,0,0,0-.018-.16C1616.718,405.422,1616.762,405.488,1616.779,405.361Z" transform="translate(94.136 58.301)" fill="#13235a"/>
      <path d="M1629.565,404.25c-1.4-2.551-4.023-4.358-6.53-5.7A15.555,15.555,0,0,0,1612.8,396.8c-6.486,1.093-10.8,7.113-11.033,13.453a14.165,14.165,0,0,0,10.6,13.89,16.63,16.63,0,0,0,9.853-.743,13.11,13.11,0,0,0,5.9-4.766C1631.066,414.6,1632.013,408.739,1629.565,404.25Zm-5.9,6.355a.051.051,0,0,1-.015.029v.117c-.015.335-.088.335-.1.233-.044.262-.073.554-.117.729-.029.117-.321.831-.408,1.151.073-.189.248-.423.073-.058-.029.058-.073.117-.1.189-.1.219-.2.423-.321.627-.175.335-.379.656-.583.977-.044.058-.1.131-.16.2a1.433,1.433,0,0,1-.1.146c-.015.015-.029.044-.044.058a.309.309,0,0,0-.058.087.088.088,0,0,1,.015-.058,9.959,9.959,0,0,1-.772.8c-.044.044-.146.117-.233.189a1.533,1.533,0,0,1-.16.117c-.117.073-.292.2-.452.292a.863.863,0,0,1-.394.16c.131-.044.262-.1.394-.16l-.612.219c-.248.087-.51.16-.772.233a13.879,13.879,0,0,1-1.545.335c-.116.015-.277.029-.35.044-.379.015-.758.029-1.137.015a2.926,2.926,0,0,1-.365-.015c-.131-.015-.262-.015-.379-.029h.1c-.015,0-.029-.015-.058-.015-.146-.029-.481-.058-.539-.073a8.443,8.443,0,0,1-.918-.248c-.146-.044-.437-.175-.525-.2-.219-.117-.437-.219-.641-.35-.1-.058-.671-.466-.743-.5a12.9,12.9,0,0,1-1.108-1.079l-.044-.044c-.19-.262-.379-.539-.554-.831-.131-.248-.248-.5-.379-.743l-.029-.029a.361.361,0,0,0-.015-.117c-.146-.525-.306-1.049-.422-1.574v-.117c0-.35-.029-.714-.029-1.064.015-.248.029-.5.044-.729a.053.053,0,0,0,.015-.044c.087-.393.175-.8.292-1.2.015-.058.058-.248.116-.423a.47.47,0,0,0,.044-.087c.248-.5.525-.947.787-1.4a.489.489,0,0,0,.087-.175c.117-.131.262-.262.35-.364.189-.2.641-.816.9-.845-.1.087-.219.16-.335.248.131-.1.277-.189.423-.291s.277-.175.423-.262c.233-.131.466-.248.685-.379.029,0,.029-.015.044-.015.058-.015.1-.029.2-.058a12.693,12.693,0,0,1,1.458-.393h.044c.248,0,.5-.044.743-.044.335-.015.656.015.991.015h.1l.058.029c.67.2,1.341.335,2,.583.029.015.044.029.073.044.306.146.6.292.889.452.5.262.976.554,1.443.86l.831.568c0,.015.189.131.335.248.117.087.292.233.306.248.043.029.277.262.466.452a.2.2,0,0,1,.044.058l.015.015a.661.661,0,0,1,.131.16.053.053,0,0,1-.044-.015c.087.131.175.277.248.408a.443.443,0,0,1,.058.117c.043.1.1.233.1.248a5.26,5.26,0,0,1,.175.641l.015.015v.029c0,.058.014.117.014.16v.117c.015.321.058.656.044.933C1623.677,410.327,1623.662,410.459,1623.662,410.6Z" transform="translate(87.286 54.407)" fill="#13235a"/>
      <path d="M1661.681,399.136c-2.682-4.445-7.4-7.142-12.1-8.993a53.415,53.415,0,0,0-17.869-3.294c-13.263-.393-27.459,3.1-37.545,12.083a32.023,32.023,0,0,0-7.04,8.832c-2.1,3.964-4.081,8.832-3.673,13.424.437,4.941,3.673,9.532,7.113,12.9a41.187,41.187,0,0,0,13.686,8.6c6.4,2.4,13.934,1.807,20.551.86,7.506-1.064,15.187-3.177,21.76-7.04a38.049,38.049,0,0,0,16.222-19.458C1664.712,411.525,1664.771,404.281,1661.681,399.136Zm-5.057,12.739a21.889,21.889,0,0,1-3.527,8.366,32.607,32.607,0,0,1-3.644,4.5c-.845.889-1.72,1.764-2.638,2.594-.6.554-1.239,1.108-1.545,1.341-5.772,4.227-13.015,6.238-20.011,7.462-6.325,1.108-13.394,1.647-19.064-.481a32.439,32.439,0,0,1-10.071-6.34c-2.274-2.143-4.839-5.276-5.378-8.206-.466-2.609.977-6.253,2.245-8.832a23.768,23.768,0,0,1,4.883-6.821c7.841-7.856,19.676-11.092,30.622-11.339a48.654,48.654,0,0,1,15.625,1.866c1.2.335,2.361.743,3.527,1.181.1.044.219.1.335.146s.5.219.554.248c.554.262,1.108.539,1.647.831a26.684,26.684,0,0,1,2.463,1.53.309.309,0,0,1,.1.073c.014.015.014.015.029.015.146.117.277.233.408.35.394.335.772.7,1.137,1.064.175.189.335.379.5.568a.156.156,0,0,0,.058.044c.219.321.438.641.627.977.087.146.277.6.364.758.131.379.262.772.365,1.166A17.062,17.062,0,0,1,1656.623,411.875Z" transform="translate(78.883 49.945)" fill="#13235a"/>
      <path d="M1574.861,468.024c-5.32-2.4-8.738-7.745-13.529-11.288-5.547-4.1-13.412-5.912-19.634-2.25-4.04,2.377-.377,8.679,3.677,6.293,4.246-2.5,9.8.047,13.19,3.021,4.12,3.615,7.5,8.2,12.618,10.517a3.755,3.755,0,0,0,4.985-1.307C1577.082,471.449,1576.662,468.838,1574.861,468.024Z" transform="translate(59.001 79.997)" fill="#13235a"/>
      <path d="M1641.119,277.65h-.16c-71.111,2.813-130.738,29-172.422,75.732-37.108,41.6-57.556,96.851-57.556,155.588s20.434,113.991,57.542,155.6c41.67,46.727,101.311,72.919,172.437,75.746h.16c127.56,0,231.334-103.774,231.334-231.334S1768.679,277.65,1641.119,277.65Zm.073,454.856c-68.925-2.755-126.627-28.042-166.84-73.137-35.84-40.169-55.574-93.586-55.56-150.4s19.735-110.231,55.574-150.4c40.227-45.1,97.915-70.368,166.825-73.123,123.217.044,223.449,100.305,223.449,223.537S1764.409,732.477,1641.192,732.506Z" fill="#13235a"/>
      <path d="M1549.111,317.066c-5.611-5.1-14.269-6.515-21.411-3.994a22.284,22.284,0,0,0-8.716,5.859,17.91,17.91,0,0,0-3.906,5.976,17.243,17.243,0,0,0-1.268,6.573c.087,8.556,6.69,15.668,14.415,18.437a20.517,20.517,0,0,0,24.457-9.007A19.163,19.163,0,0,0,1549.111,317.066Zm-2.725,20.172a13.835,13.835,0,0,1-6.442,5.7,12.487,12.487,0,0,1-7.142.685c-5.291-1.035-10.159-4.81-11.485-10.261a9.851,9.851,0,0,1,1.705-8.045,18.284,18.284,0,0,1,5.786-4.868,4.073,4.073,0,0,1,1.181-.466c.481-.16.962-.291,1.458-.408a15.959,15.959,0,0,1,3.731-.321,12.574,12.574,0,0,1,7.4,1.909A11.826,11.826,0,0,1,1546.385,337.238Z" transform="translate(47.044 15.648)" fill="#13235a"/>
      <path d="M1488.244,474.393a20.037,20.037,0,0,0-21.207-10.785c-9.823,1.516-18.073,10.217-18.335,20.259a18.284,18.284,0,0,0,4.562,12.651,14.528,14.528,0,0,0,6.107,4.1c3.134.991,6.019-1.006,6.894-4.023.423-1.443.2-2.157.729-3.542a9.017,9.017,0,0,1,1.443-2.2,7.5,7.5,0,0,1,5.131-2.376c3.92-.015,6.879,3.789,6.719,7.754a1.755,1.755,0,0,1-.015.277,1.755,1.755,0,0,1-.015.277,3.061,3.061,0,0,0,1.137,2.609,3.062,3.062,0,0,0,1.763.933.276.276,0,0,0,.117.029,1.556,1.556,0,0,0,.365.044,1.6,1.6,0,0,0,.262.029c.073,0,.131-.015.2-.015.029,0,.044-.015.073-.015a3.3,3.3,0,0,0,2.3-1.093,3.728,3.728,0,0,0,.568-.685A24.641,24.641,0,0,0,1488.244,474.393ZM1468.8,482.1c-4.387,1.749-8.162,5.466-9.168,10.2a1.175,1.175,0,0,0-.044.219,6.376,6.376,0,0,1-1.05-1.02c-.131-.131-.248-.277-.364-.408l-.058-.058a.194.194,0,0,0-.044-.073,11.209,11.209,0,0,1-.772-1.253,6.236,6.236,0,0,1-.831-2.011c-.1-.364-.19-.714-.262-1.079-.044-.189-.087-.379-.117-.568-.014-.1-.044-.379-.058-.5a17.492,17.492,0,0,1,.015-2.623,4.263,4.263,0,0,1,.058-.452c.015-.1.044-.248.044-.248.117-.5.2-.977.35-1.458a7.016,7.016,0,0,1,.86-2.07,19.919,19.919,0,0,1,1.458-2.347,15.6,15.6,0,0,1,9.9-5.684,12.046,12.046,0,0,1,4.854.277c.394.1.772.2,1.151.335.2.073.393.146.583.219a16.725,16.725,0,0,1,2.289,1.283.347.347,0,0,0,.16.087.7.7,0,0,1,.1.073c.015.029.015.029.029.029l.015.015h.015v.015c.015.015.029.015.044.029l.015.015h.015c.014.015.029.044.058.058.292.248.583.5.86.772s.554.539.8.816c.117.117.51.6.583.67a18.2,18.2,0,0,1,1.428,2.245c.219.408.408.8.6,1.21v.015l.029.058c.087.262.189.525.291.787a20.882,20.882,0,0,1,.7,2.653c.044.175.131.831.16.918.044.452.088.918.1,1.37s.029.8.029,1.151C1479.907,481.9,1474.15,479.976,1468.8,482.1Z" transform="translate(17.255 84.962)" fill="#13235a"/>
      <path d="M1525.078,480.509c.755-.07.347-.041,0,0Z" transform="translate(52.2 92.789)" fill="#13235a"/>
      <path d="M1607.261,454.129c-6.3-3.55-13.937-1.548-19.4,2.644-4.548,3.491-7.77,8.717-12.777,11.094a3.676,3.676,0,0,0-1.307,4.986,3.724,3.724,0,0,0,4.985,1.307c4.964-2.357,8.174-6.875,12.137-10.485,3.253-2.963,8.592-5.559,12.683-3.253S1611.353,456.435,1607.261,454.129Z" transform="translate(74.265 79.901)" fill="#13235a"/>
      <path d="M1688.316,463.1a20.078,20.078,0,0,0-23.437,7.579c-5.407,7.739-5.232,18.685-.175,26.526a4.067,4.067,0,0,0,.612.714,3.344,3.344,0,0,0,2.536,1.093,2.21,2.21,0,0,0,.306-.044,1.8,1.8,0,0,0,.292-.029.752.752,0,0,1,.16-.029,4.38,4.38,0,0,0,1.079-.394,3.407,3.407,0,0,0,.67-.539,3.1,3.1,0,0,0,1.137-2.609,7.41,7.41,0,0,1,5.393-8.177,6.5,6.5,0,0,1,4.912,1.006,7.115,7.115,0,0,1,1.924,1.705,9.152,9.152,0,0,1,1.166,2.128c.35,1.181.2,1.661.554,2.959a6.154,6.154,0,0,0,2.551,3.717c2.536,1.53,5.466.364,7.681-1.181a17.081,17.081,0,0,0,7.069-11.31C1704.377,475.971,1697.862,466.585,1688.316,463.1Zm6.967,23.174c-.131.423-.262.816-.408,1.21l-.015.015v.015l-.014.015v.015a.054.054,0,0,0-.014.044l-.015.015c0,.015-.015.029-.015.044-.087.16-.175.335-.262.5-.2.379-.423.743-.656,1.108a2.566,2.566,0,0,1-.539.714c-.292.306-.6.612-.918.9l-.2.2c-.015.015-.044.015-.058.029v-.015a13.191,13.191,0,0,0-1.326-3.571,15.113,15.113,0,0,0-4.679-5.16,13.632,13.632,0,0,0-15.071-.51,14.856,14.856,0,0,0-2.944,2.463c-.015-.772.044-1.545.088-2.3,0-.015.014-.117.029-.2a3.644,3.644,0,0,1,.058-.379c.088-.452.175-.9.277-1.341.189-.772.437-1.53.7-2.288.014-.044.1-.262.146-.379a.9.9,0,0,1,.073-.16c.219-.452.437-.9.685-1.341a16.63,16.63,0,0,1,1.239-1.924c.015-.015.015-.015.015-.029.116-.146.248-.292.364-.423q.437-.5.918-.962c.306-.306.641-.6.977-.875.073-.073.116-.1.146-.131s.073-.044.16-.1a24.179,24.179,0,0,1,2.3-1.326c.029-.015.088-.029.146-.058.131-.058.262-.1.394-.146.394-.131.772-.248,1.152-.364.408-.1.8-.189,1.209-.262a3.2,3.2,0,0,1,.365-.058c.175-.015.627-.058.627-.058a13.816,13.816,0,0,1,5.553.729,15.162,15.162,0,0,1,8.541,7.2,7.916,7.916,0,0,1,.889,2.055c.131.423.233.845.335,1.268.044.19.073.364.1.554.029.117.029.131.044.117a1.66,1.66,0,0,0,.015.219A11.8,11.8,0,0,1,1695.283,486.276Z" transform="translate(114.323 84.288)" fill="#13235a"/>
      <path d="M1748.2,333.25a15.07,15.07,0,0,0-2.434-1.705c-.146-.073-.277-.117-.423-.175-29.369-19.049-63.051-29.616-96.341-32.269a3.3,3.3,0,0,0-.845-.058q-7.958-.612-15.843-.612h-.015a211.264,211.264,0,0,0-91.05,20.609,3.171,3.171,0,0,0-1.764.875,194.073,194.073,0,0,0-24.967,14.648,3.234,3.234,0,0,0-.831.568c-46.1,32.24-80.381,86.269-83.471,164.348,0,49.234,19.282,96.938,54.306,134.338a213.008,213.008,0,0,0,126.948,65.733c3.338,8.206,8.22,16.47,17.038,19.428,11.849,3.964,21.046-5.67,27.022-14.6.976-1.472,1.909-2.959,2.827-4.475,87.363-11.237,155.879-77.583,172.276-161.622a3.934,3.934,0,0,0,.233-1.137v-.029a203.288,203.288,0,0,0,3.527-37.778C1831.25,419.8,1795.688,365.227,1748.2,333.25Zm78.515,158.969q-22.387-7.98-44.76-15.974a2.231,2.231,0,0,0-.423-.1c-.044-1.458-.088-2.93-.117-4.387a172.132,172.132,0,0,0,40.854-12.534A241.289,241.289,0,0,1,1826.718,492.219Zm-45.474-27.794c-.233-10.771-.525-21.586-1.924-32.24,11.981,7.506,24.209,14.59,36.19,22.081A165.079,165.079,0,0,1,1781.244,464.424Zm38.492-16.091c-13.934-8.73-28.2-16.907-42.034-25.8-.5-2.346-1.035-4.679-1.676-7a77.608,77.608,0,0,0-4.839-13.015,244.558,244.558,0,0,1,32.283,24.6c4.868,4.431,9.576,9.022,14.181,13.7C1818.4,443.305,1819.081,445.812,1819.736,448.334Zm-7.3-22.737a265.248,265.248,0,0,0-37.953-29.733q10.319-2.252,20.667-4.489A189.71,189.71,0,0,1,1812.434,425.6Zm-21.673-40.723q-12.658,2.755-25.3,5.495c-.918-.525-1.822-1.049-2.74-1.56,3.338-8.716,6.136-17.621,9.313-26.4A180.032,180.032,0,0,1,1790.761,384.874Zm-36.977-38.711q4.941,3.826,9.605,7.987c1.006.889,1.968,1.793,2.944,2.7-3.527,9.284-6.471,18.787-9.94,28.1-6.836-4.343-15.114-6.675-22.985-8.264a32.388,32.388,0,0,0,11.223-7.317A34.918,34.918,0,0,0,1753.784,346.163Zm-27.9-8.672a14.83,14.83,0,0,1,.816,7.914,17.366,17.366,0,0,1-.481,2.128c-.073.262-.146.51-.233.758a1.3,1.3,0,0,1-.073.189.492.492,0,0,0-.044.117,10.826,10.826,0,0,1-.67,1.122,3.736,3.736,0,0,1-.306.379c-.2.2-.423.423-.641.627-.015,0-.015,0-.029.015a.611.611,0,0,0-.058.044c-.219.131-.423.262-.641.394-.379.219-.772.408-1.18.6-.117.044-.787.321-.948.364-.583.219-1.166.408-1.763.6a15.435,15.435,0,0,1-14.735-2.828,13.658,13.658,0,0,1-4.387-6.223,8.494,8.494,0,0,1,.452-6.894,9.813,9.813,0,0,1,6.53-4.62c4.139-.962,8.964.044,13.219.9C1723.265,333.512,1724.78,334.955,1725.888,337.491ZM1685.894,312.7a195.475,195.475,0,0,1,34.878,12.986c-8.5-1.589-18.262-2.3-24.369,5-5.713,6.821-4.168,16.193,1.472,22.547a22.994,22.994,0,0,0,21.76,7.083,25.126,25.126,0,0,0,8.337-3.323,13.739,13.739,0,0,0,5.495-8.322c1.355-5.743.554-13.249-3.236-18.058q5.706,3.17,11.15,6.719a3.606,3.606,0,0,0,.7.51,7.567,7.567,0,0,1,3.673,4.358,16.227,16.227,0,0,1,.5,7.185,26.826,26.826,0,0,1-5.8,13.788c-7.419,8.526-19.735,10-30.389,9.474a27.474,27.474,0,0,1-11.631-3.309,36.018,36.018,0,0,1-10.057-8.177,45.645,45.645,0,0,1-7.142-11.135,46.42,46.42,0,0,1-3.527-12.287C1676.639,328.134,1679.015,319.331,1685.894,312.7Zm-31.249,30.272c5.378-5.378,10.611-10.917,15.639-16.63.233-.262.452-.554.7-.816-2.594,13.409,2.23,28.494,10.917,39.236a44.779,44.779,0,0,0,8.133,7.8c-2.521-.175-5.043-.364-7.564-.525A349.252,349.252,0,0,0,1654.646,342.971Zm17.636,28.48c-2.667-.146-5.349-.321-8.016-.452q-19.742-.984-39.5-1.3,12.812-10.253,24.676-21.629Q1661.4,359.222,1672.281,371.451Zm-22.8-65.034a205.918,205.918,0,0,1,25.04,3.6,359.341,359.341,0,0,1-44.06,45.532q-7.258,6.3-14.852,12.185a2.761,2.761,0,0,0-1.02,1.866q-8.767-.022-17.5.146c-4.256.073-8.512.2-12.768.364a36.9,36.9,0,0,0,16.616-10.844,42.624,42.624,0,0,0,8.73-16.28C1620.613,328.513,1634.765,316.867,1649.486,306.417Zm-17.184-.7h.015c1.924,0,3.848.029,5.757.087a192.75,192.75,0,0,0-26.862,24.107c-.029-.9-.1-1.793-.2-2.682a28.473,28.473,0,0,0-2.361-9.313,26.879,26.879,0,0,0-5.451-7.273,37.557,37.557,0,0,0-2.871-2.492A209.1,209.1,0,0,1,1632.3,305.717Zm-87.683,19.589a196.606,196.606,0,0,1,42.078-14.575,2.363,2.363,0,0,0,.321.015,8.451,8.451,0,0,1,4.854.772,20.155,20.155,0,0,1,5.422,3.585,18.072,18.072,0,0,1,6.165,10.509,33.473,33.473,0,0,1-.5,14.327,2.815,2.815,0,0,0-.35,1.283,36.286,36.286,0,0,1-5.305,10.975,31.208,31.208,0,0,1-49,1.239C1541.719,345.449,1539.664,334.5,1544.619,325.306Zm-9.415,4.853a32.865,32.865,0,0,0,4.81,24.18,37.982,37.982,0,0,0,24.7,16.907c-8.6.685-17.155,1.661-25.652,3.061a152.516,152.516,0,0,0-17.344,3.775l-1.618-38.653Q1527.428,334.445,1535.2,330.16Zm-20.624,58.023.962-.394c.758-.292,1.516-.568,2.288-.845.292-.1.612-.19.918-.306a2.688,2.688,0,0,0,1.341-.423c.772-.262,1.545-.525,2.332-.758,15.887-4.722,31.978-6.267,48.418-7.36,21.075-1.385,42.238-1.443,63.343-.933,22.125.539,44.235,1.734,66.287,3.411,10.64.8,21.571,1.122,32.021,3.352a85.557,85.557,0,0,1,12.243,3.44,3.573,3.573,0,0,0,.9.641c3.046,1.53,6.063,3.119,9.036,4.737a26.844,26.844,0,0,1,4.547,4.372c5.99,7.317,9.139,16.688,11.106,25.812,2.23,10.319,2.944,20.886,3.338,31.424.175,4.606.321,9.241.467,13.861a3.6,3.6,0,0,0,.043,1.37q.241,7.477.408,14.954c.16,6.049.248,12.243-1.662,18.044a21.447,21.447,0,0,1-7.331,10.13,39.862,39.862,0,0,1-10,5.743,68.7,68.7,0,0,1-13.059,3.556,91.208,91.208,0,0,1-26.716.364,73.578,73.578,0,0,1-11.792-2.551c-4.052-1.268-9.051-2.959-11.31-6.865-2.4-4.125.656-8.658,4.314-10.785,4.912-2.842,11.237-2.084,16.6-1.355,6.325.875,12.651,1.968,19.02.67a27.978,27.978,0,0,0,14.138-8.016c8.949-9.2,10.713-21.994,9.809-34.295-.86-11.485-2.376-23.218-9.139-32.867a54.745,54.745,0,0,0-23.495-18.5c-20.434-8.8-43.433-4.824-64.99-4.751-13.948.044-27.911-.087-41.859-.058-5.874,0-11.777.19-17.65-.015-10.494-.394-20.944-1.676-31.424-2.259-9.692-.539-19.909-.875-29.369,1.72-16.776,4.883-25.1,22.416-29.106,38.1a146.413,146.413,0,0,0-4.1,35.607c-.044,11.733,8.978,20.8,19.6,24.442,6.559,2.259,13.38,1.487,20.1.525,5.728-.816,12.636-2.084,18.058.67,3.7,1.895,7.273,6.194,5.349,10.538-1.836,4.168-7.113,6.049-11.135,7.317a79.72,79.72,0,0,1-24.923,3.5,74.525,74.525,0,0,1-26.541-4.445c-7.258-2.769-14.852-7.7-17.636-15.245-2.128-5.757-2.128-11.937-2-17.985.1-5.014.408-10.028.568-15.041.627-20.653.525-42.763,8.658-62.148a52.524,52.524,0,0,1,6.777-11.849,19.548,19.548,0,0,1,2.58-2.682c.233-.189.467-.379.685-.568.044-.029.058-.058.088-.073.51-.364,1.02-.729,1.545-1.079a48.7,48.7,0,0,1,7-3.717c.073-.029.131-.058.175-.073A1.448,1.448,0,0,1,1514.58,388.183Zm183.995,247.4c5.48-2,11.412-4.97,15.2-9.547,7.579-9.138,5.684-22.562,2.988-33.2-.714-2.813-2.813-5.407-4.678-7.579a34.854,34.854,0,0,0-6.442-5.713,44.542,44.542,0,0,0-15.333-6.632c-6.734-1.589-13.584-1.676-20.463-1.734-17.606-.19-35.213-.087-52.834-.233-8.424-.073-16.834-.437-25.244-.568-6.836-.087-14.429.015-20.842,2.623a29.175,29.175,0,0,0-13.292,11.631c-6.165,9.59-7.973,22.329-3.221,32.881,2.536,5.641,7.739,9.459,12.811,12.724a54.68,54.68,0,0,0,17.534,7.491,50.021,50.021,0,0,0,9.649,1.166,2.013,2.013,0,0,0,.525-.044q1.29,6.952,2.769,13.861c-25.652-.087-54.423-10.45-62.264-37.2-3.8-12.986-2.711-27.911,6.252-38.143a38.65,38.65,0,0,1,15.654-10.683,58.7,58.7,0,0,1,10.917-2.857.883.883,0,0,1,.219-.029,1.331,1.331,0,0,0-.233.015c.364-.029.729-.087,1.093-.131.787-.073,1.589-.131,2.376-.19,10.858-.758,21.819-.554,32.692-.481,13.234.087,26.468.306,39.7.437,5.276.044,10.538.087,15.8.058,7.244-.058,14.473-.481,21.717-.335,16.994.364,36.773,4.431,46.1,20.288,7.681,13.059,6.413,30.345-1.312,43.084-8.424,13.875-23.874,22.067-39.469,25a70.088,70.088,0,0,1-10.028,1.079c.481-1.807.948-3.629,1.4-5.451q1.006-3.979,1.895-7.987A71.579,71.579,0,0,0,1698.574,635.579Zm-16.732-3.862c3.265-15.668,5.7-31.511,7.885-47.354.189-1.312.364-2.638.539-3.964a32.959,32.959,0,0,1,13.977,7.258,25.638,25.638,0,0,1,4.591,5.364c1.355,2.143,1.676,4.839,2.128,7.317.86,4.664,1.341,9.736.306,14.415-1.035,4.722-3.673,7.827-7.725,10.392a44.246,44.246,0,0,1-15.668,5.743C1685.88,631.264,1683.854,631.512,1681.843,631.716Zm-19.2-53.315q-5.728,20.747-11.456,41.51c-3.8,13.8-7.389,27.678-11.485,41.393a87.51,87.51,0,0,1-5.087,13.511,259.006,259.006,0,0,1-19.093-74.274q-1.137-11.15-1.326-22.343C1630.349,578.357,1646.5,578.313,1662.647,578.4Zm-69.013,53.17c-10.917-.466-21.746-5.509-29.7-12.957-6.7-6.267-5.874-18.379-2.361-26.031,2.026-4.416,5.029-8.716,9.2-11.368,4.956-3.163,11.485-3.454,17.213-3.556.277,0,.554.015.831,0C1588.461,595.672,1590.632,613.818,1593.635,631.57Zm-71.65-81.037c0-.044.292-1.006.364-1.181,1.414-2.988,4.606-5.422,6.981-7.623a90.915,90.915,0,0,1,8.614-7.273c2.449-1.793,4.285-2.317,6.807-.831,2.784,1.647,4.387,4.416,5.888,7.185,1.618,2.959,3.513,6.151,3.921,9.561.787,6.865-6.5,10.188-12.3,10.042a30.71,30.71,0,0,1-10.377-2.769c-2.857-1.239-6.427-2.478-8.7-4.664l-.233-.233a3.984,3.984,0,0,1-.394-.466,3.06,3.06,0,0,1-.422-.714.758.758,0,0,1-.088-.233c-.015-.073-.029-.146-.044-.2v-.248A1.554,1.554,0,0,1,1521.984,550.534Zm-3.5-8.293a57.82,57.82,0,0,0-7.74-14.415,86.936,86.936,0,0,0,19.91,2.594h.481c-1.312,1.108-2.565,2.245-3.775,3.279A75.483,75.483,0,0,0,1518.486,542.24Zm56.944-37.4a18.987,18.987,0,0,0-13.671-11.194c-6.923-1.545-13.788-.117-20.7.743-6.107.758-12.024.627-17.534-2.361-4.212-2.288-8.25-5.83-9.94-10.421-.962-2.653-.86-5.291-.8-8.075.058-3.265.2-6.544.438-9.794a129.773,129.773,0,0,1,2.361-16.922c1.909-9.036,4.781-17.84,9.926-25.521a34.97,34.97,0,0,1,6.7-7.506c.088-.073.189-.146.277-.233a.212.212,0,0,0,.044-.029.259.259,0,0,1,.1-.073c.014-.029.044-.044.058-.058a.84.84,0,0,0,.1-.058c.306-.219.612-.452.933-.656q.984-.678,2.055-1.268c.583-.321,1.18-.612,1.793-.9.16-.058.656-.262.743-.306.758-.277,1.516-.51,2.288-.729,9.707-2.653,20.434-1.938,30.491-1.283,10.377.685,20.755,2.041,31.176,2.143,14.152.146,28.334-.073,42.486-.044,6.4.015,12.811.146,19.21-.029,11.529-.306,23.073-1.151,34.616-.568,10.275.525,19.909,2.74,28.829,8,8.177,4.839,15.114,12,18.379,21.046,2.041,5.67,2.682,11.762,3.28,17.723.641,6.632.875,13.482-.816,19.982-2.667,10.232-11.135,18.379-22.008,18.394-12.185.015-25.871-5.83-36.248,3.513-4.329,3.906-6.777,10.217-4.678,15.887,2.055,5.568,7.054,8.876,12.316,11.033a63.94,63.94,0,0,0,13.016,3.687,28.739,28.739,0,0,0-6.53,8.687c-2.259,4.168-4.533,8.614-4.679,13.453a14.224,14.224,0,0,0,1.516,6.879c-15.333-3.381-31.19-1.72-46.771-1.764-25.87-.058-51.8-1.239-77.67-.262a76.584,76.584,0,0,0-16.222,2.23,14.256,14.256,0,0,0,1.181-3.177c1.2-5.116-.568-10.086-2.828-14.619-1.924-3.833-4.023-8-7.273-10.888-.248-.219-.525-.423-.787-.641a70.672,70.672,0,0,0,7-1.647c4.985-1.414,10.013-3.308,13.9-6.836A14.027,14.027,0,0,0,1575.43,504.841Zm143.636,55.574c-4.955.117-11.456-2.186-12.287-7.827-.466-3.25,1.181-6.573,2.638-9.372,1.516-2.93,3.017-6.107,5.48-8.366,1.778-1.632,3.95-2.726,6.15-1.822a18.408,18.408,0,0,1,4.212,2.871c1.545,1.239,3.061,2.521,4.547,3.833a60.241,60.241,0,0,1,8.25,8.1,5.965,5.965,0,0,1,1.268,2.609v.015c0,.058.029.568.029.583a1.978,1.978,0,0,1-.35.9,8.421,8.421,0,0,1-2.638,2.347c-1.72,1.02-3.615,1.851-5.436,2.7A33.179,33.179,0,0,1,1719.067,560.415Zm17.854-24.063q-2.667-2.47-5.48-4.766c-.467-.379-.933-.772-1.414-1.166a86.312,86.312,0,0,0,20.361-2.667,56.383,56.383,0,0,0-7.944,13.948C1740.725,539.763,1738.714,538.014,1736.921,536.352ZM1501.244,354.136q5.685-5.072,11.777-9.634.765,17.949,1.5,35.913a58.756,58.756,0,0,0-8.352,3.76c-.029.015-.073.015-.1.044-.189.1-.364.2-.554.306a.2.2,0,0,1-.058.044c-.015,0-.029.015-.058.029a91.233,91.233,0,0,0-18.86-15.726A182.206,182.206,0,0,1,1501.244,354.136Zm-19.472,20.332c1.705,1.049,3.4,2.143,5.029,3.308.831.583,1.647,1.2,2.463,1.807.073.044.1.073.146.1l.058.058c.219.175.437.35.67.525q.59.459,1.181.962a87.048,87.048,0,0,1,7.579,7.083c-6.748,3.906-13.424,7.958-19.822,12.4a195.135,195.135,0,0,0-21.673,17.65c-1.283,1.2-2.536,2.434-3.8,3.658A186.172,186.172,0,0,1,1481.771,374.468Zm-33.814,63.255a4.352,4.352,0,0,0,.86-.656,311.346,311.346,0,0,1,22.635-21.44,178.347,178.347,0,0,1,19.02-13.686c-.991,2.07-1.865,4.183-2.667,6.267a95.683,95.683,0,0,0-4.358,15.668c-12.68,8.162-25.637,15.872-38.39,23.888Q1446.391,442.671,1447.958,437.723Zm33.974-4.27c-.277,2.186-.539,4.372-.743,6.559-.787,8.1-1.122,16.251-1.385,24.4a151.584,151.584,0,0,1-31.482-10.1C1459.487,447.284,1470.782,440.478,1481.932,433.453Zm-39.629,26.1c12,5.436,24.3,9.838,37.283,12.185-.015.321-.029.641-.029.962-.043,1.151-.087,2.288-.146,3.454a1.369,1.369,0,0,0-.408.087q-20.507,7.3-41,14.633A244.181,244.181,0,0,1,1442.3,459.556Zm-4.8,40.067c.015-.335.029-.67.044-.991a3.73,3.73,0,0,0,.8-.16q20.354-7.258,40.693-14.531c-.306,8.118-.073,16.28,3.192,23.728.029.058.058.1.087.16a45.89,45.89,0,0,0-13.613-1.866,36,36,0,0,0-24.457,9.809,33.778,33.778,0,0,0-5.305,6.632A182.651,182.651,0,0,1,1437.507,499.623ZM1441.851,539v-.117c-.67-13.307,10.917-23.947,23.553-25.419,13.438-1.574,26.979,4.839,36.059,14.517,15.158,16.135,17.636,41.568,5.422,60.049-7.666,11.6-22.329,21.119-36.525,16.484A189.861,189.861,0,0,1,1441.851,539Zm48,89.826a197.514,197.514,0,0,1-13.351-15.814c12.622.525,25.127-6.792,33.042-16.411a54.761,54.761,0,0,0,12.432-35.68c1.283.7,2.609,1.341,3.891,1.938,4.956,2.361,10.028,4.285,15.522,4.751-11.325,9.459-16.5,23.728-15.085,38.434a54.787,54.787,0,0,0,21.527,39.148c11.937,9.036,26.978,13.292,41.728,14.488,3.265.262,6.53.335,9.794.292a325.264,325.264,0,0,0,9.255,31.8A205.891,205.891,0,0,1,1489.846,628.83ZM1654.4,692.086a95.187,95.187,0,0,1-7.331,11.689c-2.755,3.7-6.311,7.55-10.99,8.614-8.541,1.938-14.473-7.419-17.344-14.109a207.033,207.033,0,0,1-8.716-26.22c-2.842-10.159-5.218-20.449-7.244-30.812-3.892-19.982-6.7-40.416-6.69-60.821,0-.9.029-1.807.044-2.711,3.6.087,7.2.219,10.785.335a268.428,268.428,0,0,0,14.91,83.762q4.088,11.653,9.226,22.912c1.21,2.682,4.912,2.041,6.3,0,7.594-11.281,10.45-25.1,14.007-38.011q5.947-21.535,11.893-43.084,3.389-12.243,6.763-24.515a3.917,3.917,0,0,0,.131-.7,114.153,114.153,0,0,1,13.016.67c-2.551,18.656-5.364,37.3-9.416,55.691C1669.425,654.395,1663.973,674.3,1654.4,692.086Zm8.366-.175a185.434,185.434,0,0,0,12.126-31.963c.131,0,.248.029.379.029,17.752-.364,35.825-6.5,48.753-18.977a52.467,52.467,0,0,0,15.231-47.033,42.317,42.317,0,0,0-11.529-22.3,44.675,44.675,0,0,0-5.159-4.372,46.048,46.048,0,0,0,11.164-3.615c1.705-.772,3.513-1.545,5.218-2.463a56.465,56.465,0,0,0,12.229,35.053,49.724,49.724,0,0,0,20.638,14.925,39.935,39.935,0,0,0,17.9,3.075A194.283,194.283,0,0,1,1662.764,691.911ZM1795.6,605.744a2.822,2.822,0,0,0-1.253.131c-5.976,2.113-12.4,1.166-18.292-.845a42.488,42.488,0,0,1-15.931-9.678,48.622,48.622,0,0,1-13.846-37.837c1.764-23.8,24.3-47.077,49.191-44.031,6.777.831,13.219,3.95,18.685,7.943,4.926,3.6,9.4,8.832,9.43,15.071A194.183,194.183,0,0,1,1795.6,605.744Zm30.156-83.179a33.545,33.545,0,0,0-3.921-4.212,49.555,49.555,0,0,0-19.152-10.771,43.2,43.2,0,0,0-24.151.292c3.411-7.331,3.556-15.756,3.294-23.961q22.649,8.089,45.284,16.164A197.366,197.366,0,0,1,1825.756,522.564Z" transform="translate(8.802 9.507)" fill="#13235a"/>
      <path d="M1574.228,429.29a3.638,3.638,0,0,0-4.547,1.487c-.189.306-.364.612-.539.933a3.662,3.662,0,0,0-.277,3c-.641,4.518-1.137,9.051-1.443,13.613a3.673,3.673,0,0,0,3.644,3.644,3.733,3.733,0,0,0,3.644-3.644c.175-2.58.393-5.16.685-7.725.117-1.122.248-2.259.408-3.381.015-.058.015-.117.029-.175V437c0-.015.015-.044.015-.058.015-.117.029-.233.029-.292l.131-.918c.116-.714.219-1.428.335-2.143A3.725,3.725,0,0,0,1574.228,429.29Z" transform="translate(71.569 69.244)" fill="#13235a"/>
      <path d="M1576.266,445.672a3.642,3.642,0,0,0,1.458,1.122,2.754,2.754,0,0,0,1.405.313l.63-.051a3.739,3.739,0,0,0,3.485-2.66l2.336-2.5a3.8,3.8,0,0,0,1.068-2.575,4.058,4.058,0,0,0-1.068-2.577,3.666,3.666,0,0,0-2.575-1.067,3.707,3.707,0,0,0-2.577,1.067q-1.937,2.07-3.875,4.139c-.191.246-.38.491-.57.737l-.367.87c-.044.324-.088.646-.13.969a2.736,2.736,0,0,0,.313,1.4A1.813,1.813,0,0,0,1576.266,445.672Z" transform="translate(75.26 72.298)" fill="#13235a"/>
      <path d="M1560.4,444.874a3.512,3.512,0,0,0,3.631,1.74,2.708,2.708,0,0,0,1.355-.433,3.675,3.675,0,0,0,1.673-2.178c.044-.322.088-.646.131-.968a3.621,3.621,0,0,0-.5-1.839q-1.974-2.639-3.951-5.276a3.512,3.512,0,0,0-3.631-1.74,2.706,2.706,0,0,0-1.354.433,3.676,3.676,0,0,0-1.675,2.178q-.066.483-.13.969a3.618,3.618,0,0,0,.5,1.838Q1558.427,442.236,1560.4,444.874Z" transform="translate(66.325 71.582)" fill="#13235a"/>
    </g>
    <g transform="translate(-1761.052 81.639)">
      <path d="M2160.288,260.51a.552.552,0,0,1-.092-.434l5.9-32.064a.574.574,0,0,1,.672-.464l5.55,1.021a.564.564,0,0,1,.374.24.57.57,0,0,1,.091.434l-4.9,26.657a.212.212,0,0,0,.193.28l9.961,1.831a.566.566,0,0,1,.372.241.554.554,0,0,1,.092.434l-.847,4.6a.551.551,0,0,1-.238.373.559.559,0,0,1-.434.092l-16.317-3A.554.554,0,0,1,2160.288,260.51Z" transform="translate(89.958 0.794)" fill="#13235a"/>
      <path d="M2189.717,266.313l.517-4.666c.045-.153-.026-.258-.212-.31l-5.894-1.667c-.186-.052-.3,0-.345.154l-2,4.245a.542.542,0,0,1-.747.339l-5.43-1.535q-.6-.169-.294-.734L2191,232.7a.577.577,0,0,1,.748-.34l6.266,1.772a.578.578,0,0,1,.459.681l-2.1,33.288-.005.2c-.079.278-.29.369-.629.273l-5.568-1.575A.543.543,0,0,1,2189.717,266.313Zm-3.324-11.464,4.177,1.181c.154.044.237-.015.251-.18l1.4-13.286c-.005-.1-.04-.16-.1-.178s-.12.015-.176.1l-5.671,12.079Q2186.208,254.8,2186.393,254.849Z" transform="translate(95.635 2.603)" fill="#13235a"/>
      <path d="M2228.161,246.377a.568.568,0,0,1,.445.017l5.131,2.345a.574.574,0,0,1,.285.767l-13.55,29.651a.574.574,0,0,1-.766.287l-5.132-2.345a.577.577,0,0,1-.287-.767l5.473-11.974a.215.215,0,0,0-.12-.32l-4.387-2a.212.212,0,0,0-.318.12l-5.473,11.974a.573.573,0,0,1-.767.285l-5.131-2.345a.577.577,0,0,1-.285-.766l13.55-29.653a.573.573,0,0,1,.766-.285l5.133,2.345a.566.566,0,0,1,.3.324.557.557,0,0,1-.018.442l-5.453,11.931a.213.213,0,0,0,.12.32l4.386,2a.214.214,0,0,0,.32-.12l5.452-11.93A.556.556,0,0,1,2228.161,246.377Z" transform="translate(106.223 5.998)" fill="#13235a"/>
      <path d="M2221.3,277.393a9.293,9.293,0,0,1,1.17-7.341l7.708-13.37a9.292,9.292,0,0,1,5.768-4.69,10.981,10.981,0,0,1,12.3,7.093,9.24,9.24,0,0,1-1.15,7.353l-7.707,13.37a9.245,9.245,0,0,1-5.787,4.679,10.983,10.983,0,0,1-12.3-7.093Zm10.106,1.01a3.64,3.64,0,0,0,1.95-1.742l8-13.871a3.643,3.643,0,0,0,.529-2.56,2.739,2.739,0,0,0-1.411-1.9,2.662,2.662,0,0,0-2.329-.258,3.711,3.711,0,0,0-1.929,1.754l-8,13.871a3.718,3.718,0,0,0-.55,2.549,2.665,2.665,0,0,0,1.389,1.886A2.742,2.742,0,0,0,2231.407,278.4Z" transform="translate(112.936 9.931)" fill="#13235a"/>
      <path d="M2236.238,286.122a8.7,8.7,0,0,1,1.685-6.931l9.418-13.305a8.689,8.689,0,0,1,5.977-3.894,11.012,11.012,0,0,1,11.383,8.086,8.74,8.74,0,0,1-1.681,6.964l-1.06,1.5a.575.575,0,0,1-.806.138l-4.6-3.26a.575.575,0,0,1-.138-.806l1.115-1.575a3.453,3.453,0,0,0,.721-2.355,2.606,2.606,0,0,0-1.177-1.926,2.549,2.549,0,0,0-2.17-.442,3.455,3.455,0,0,0-1.98,1.463l-9.473,13.385a3.455,3.455,0,0,0-.722,2.355,2.549,2.549,0,0,0,1.14,1.9,2.6,2.6,0,0,0,2.208.469,3.445,3.445,0,0,0,1.981-1.463l2.229-3.149a.216.216,0,0,0-.058-.336l-1.732-1.226a.556.556,0,0,1-.238-.375.563.563,0,0,1,.1-.431l2.48-3.5a.576.576,0,0,1,.807-.138l7.008,4.959a.576.576,0,0,1,.138.806l-5.155,7.284a8.656,8.656,0,0,1-6,3.88,11.051,11.051,0,0,1-11.4-8.066Z" transform="translate(118.638 13.782)" fill="#13235a"/>
      <path d="M2250.455,296.728a10.006,10.006,0,0,1,2.731-7.22l15.354-17.9a.576.576,0,0,1,.816-.062l4.282,3.674a.577.577,0,0,1,.062.817l-15.794,18.412a3.879,3.879,0,0,0-1.046,2.406,2.46,2.46,0,0,0,.909,2.05,2.393,2.393,0,0,0,2.145.57,3.972,3.972,0,0,0,2.2-1.415l15.795-18.413a.553.553,0,0,1,.394-.2.559.559,0,0,1,.421.139l4.282,3.673a.576.576,0,0,1,.062.816l-15.354,17.9a10.015,10.015,0,0,1-6.72,3.8,10.212,10.212,0,0,1-10.542-9.043Z" transform="translate(124.066 17.372)" fill="#13235a"/>
      <path d="M2293.34,300.715a.563.563,0,0,1-.406-.176l-7.036-7.216a.214.214,0,0,0-.342-.006l-5.455,5.32a.212.212,0,0,0,0,.34l4.04,4.145a.575.575,0,0,1-.011.818l-3.35,3.264a.556.556,0,0,1-.412.165.55.55,0,0,1-.406-.175l-4.039-4.143a.213.213,0,0,0-.341,0l-5.491,5.353a.212.212,0,0,0,0,.34l7.037,7.216a.577.577,0,0,1-.011.82l-3.35,3.266a.578.578,0,0,1-.817-.011l-11.548-11.845a.576.576,0,0,1,.01-.817l23.343-22.76a.557.557,0,0,1,.412-.164.551.551,0,0,1,.406.175l11.548,11.845a.575.575,0,0,1-.011.818l-3.35,3.266A.566.566,0,0,1,2293.34,300.715Z" transform="translate(128.143 22.3)" fill="#13235a"/>
      <path d="M2280.548,328.366l7.981-11.282a.286.286,0,0,0,0-.309l-1.035-1.272a.213.213,0,0,0-.339-.034l-10.213,8.31a.575.575,0,0,1-.814-.084l-3.561-4.376a.578.578,0,0,1,.084-.814l25.286-20.576a.576.576,0,0,1,.814.083l6.15,7.556a8.828,8.828,0,0,1,1.991,4.473,8.507,8.507,0,0,1-.762,4.755,11.926,11.926,0,0,1-3.4,4.227,11.088,11.088,0,0,1-4.574,2.325,8.215,8.215,0,0,1-4.522-.208.367.367,0,0,0-.184-.036.16.16,0,0,0-.132.106l-8.235,12.422-.12.158a.448.448,0,0,1-.708-.107l-3.652-4.488A.636.636,0,0,1,2280.548,328.366Zm17.416-21.694-6.4,5.2a.213.213,0,0,0-.035.339l1.37,1.684a2.968,2.968,0,0,0,2.453,1.144,4.921,4.921,0,0,0,3.044-1.265,5,5,0,0,0,1.895-2.753,2.967,2.967,0,0,0-.62-2.635l-1.37-1.684A.212.212,0,0,0,2297.964,306.672Z" transform="translate(132.378 27.345)" fill="#13235a"/>
      <path d="M2291.311,341.552l3.424-3.212c.133-.09.148-.214.04-.375l-3.4-5.094c-.107-.161-.228-.2-.362-.107l-4.278,1.928a.543.543,0,0,1-.788-.227l-3.133-4.693q-.347-.523.255-.75l31.054-12.2a.578.578,0,0,1,.79.227l3.613,5.417a.579.579,0,0,1-.093.816l-23.214,23.949-.132.147c-.241.161-.459.094-.656-.2l-3.212-4.814A.544.544,0,0,1,2291.311,341.552Zm4.921-10.877,2.408,3.612c.089.134.19.143.306.026l9.695-9.192c.062-.08.076-.147.042-.2s-.1-.068-.2-.041l-12.156,5.5C2296.189,330.471,2296.159,330.568,2296.232,330.674Z" transform="translate(136.253 34.51)" fill="#13235a"/>
      <path d="M2306.7,373.477a.553.553,0,0,1,.334-.292l30.886-10.438a.577.577,0,0,1,.733.362l1.808,5.346a.581.581,0,0,1-.364.734l-25.677,8.677a.212.212,0,0,0-.15.306l3.241,9.594a.576.576,0,0,1-.361.734l-4.432,1.5a.561.561,0,0,1-.442-.029.555.555,0,0,1-.291-.335l-5.312-15.716A.55.55,0,0,1,2306.7,373.477Z" transform="translate(145.304 51.879)" fill="#13235a"/>
      <path d="M2315.3,399.643l4.33-1.816c.155-.036.212-.149.168-.336l-1.409-5.961c-.044-.189-.145-.263-.3-.226l-4.685.314a.543.543,0,0,1-.659-.488l-1.3-5.492q-.145-.61.5-.613l33.358-.6a.578.578,0,0,1,.66.488l1.5,6.336a.579.579,0,0,1-.372.733l-30.107,14.352-.176.091q-.422.1-.544-.416l-1.331-5.633A.543.543,0,0,1,2315.3,399.643Zm8.4-8.478,1,4.225c.036.156.128.2.278.132l12.293-5.235c.085-.054.12-.112.106-.175s-.073-.1-.174-.107l-13.312.918C2323.741,390.96,2323.677,391.04,2323.707,391.165Z" transform="translate(147.112 60.082)" fill="#13235a"/>
      <path d="M2351.48,424.1a.556.556,0,0,1,.2.394l.449,5.626a.578.578,0,0,1-.531.623l-32.5,2.595a.574.574,0,0,1-.623-.53l-.449-5.625a.549.549,0,0,1,.135-.422.56.56,0,0,1,.394-.2l13.126-1.049a.212.212,0,0,0,.22-.259l-.383-4.807a.214.214,0,0,0-.26-.222l-13.123,1.049a.559.559,0,0,1-.423-.135.545.545,0,0,1-.2-.4l-.451-5.625a.579.579,0,0,1,.531-.623l32.5-2.6a.559.559,0,0,1,.423.136.548.548,0,0,1,.2.4l.449,5.625a.575.575,0,0,1-.529.623l-13.078,1.044a.212.212,0,0,0-.22.259l.384,4.808a.213.213,0,0,0,.26.222l13.075-1.046A.561.561,0,0,1,2351.48,424.1Z" transform="translate(149.244 70.466)" fill="#13235a"/>
      <path d="M2320.6,433.682a9.286,9.286,0,0,1,6.986-2.538l15.43.249a9.286,9.286,0,0,1,6.9,2.764,10.988,10.988,0,0,1-.23,14.2,9.251,9.251,0,0,1-6.987,2.563l-15.431-.251a9.248,9.248,0,0,1-6.9-2.788,10.982,10.982,0,0,1,.23-14.2Zm4.02,9.327a3.658,3.658,0,0,0,2.47.86l16.01.259a3.636,3.636,0,0,0,2.495-.78,2.736,2.736,0,0,0,.976-2.154,2.665,2.665,0,0,0-.905-2.162,3.707,3.707,0,0,0-2.47-.835l-16.009-.26a3.726,3.726,0,0,0-2.5.755,2.672,2.672,0,0,0-.976,2.132A2.744,2.744,0,0,0,2324.62,443.009Z" transform="translate(149.552 77.738)" fill="#13235a"/>
      <path d="M2320.087,451.062a8.693,8.693,0,0,1,6.872-1.921l16.21,1.709a8.685,8.685,0,0,1,6.319,3.308A11.009,11.009,0,0,1,2348,468.041a8.731,8.731,0,0,1-6.9,1.94l-1.822-.192a.577.577,0,0,1-.515-.637l.591-5.611a.577.577,0,0,1,.636-.515l1.918.2a3.456,3.456,0,0,0,2.407-.522,2.6,2.6,0,0,0,1.1-1.969,2.542,2.542,0,0,0-.674-2.108,3.461,3.461,0,0,0-2.246-1.013L2326.2,455.9a3.445,3.445,0,0,0-2.407.524,2.544,2.544,0,0,0-1.1,1.921,2.6,2.6,0,0,0,.67,2.155,3.464,3.464,0,0,0,2.245,1.014l3.839.4a.215.215,0,0,0,.264-.216l.222-2.11a.575.575,0,0,1,.636-.514l4.269.449a.557.557,0,0,1,.39.211.566.566,0,0,1,.125.424l-.9,8.538a.557.557,0,0,1-.209.391.567.567,0,0,1-.427.124l-8.871-.934a8.655,8.655,0,0,1-6.318-3.333,11.051,11.051,0,0,1,1.462-13.884Z" transform="translate(149.148 84.515)" fill="#13235a"/>
      <path d="M2318.351,468.367a10.007,10.007,0,0,1,7.634-1.146l23.12,4.652a.576.576,0,0,1,.453.682l-1.112,5.531a.577.577,0,0,1-.684.453l-23.78-4.784a3.893,3.893,0,0,0-2.611.262,2.465,2.465,0,0,0-1.345,1.8,2.4,2.4,0,0,0,.55,2.152,3.975,3.975,0,0,0,2.312,1.228l23.781,4.784a.563.563,0,0,1,.368.245.555.555,0,0,1,.085.437l-1.113,5.531a.554.554,0,0,1-.247.369.567.567,0,0,1-.434.085l-23.12-4.652a10.015,10.015,0,0,1-6.6-4.008,10.212,10.212,0,0,1,2.739-13.617Z" transform="translate(148.112 91.27)" fill="#13235a"/>
      <path d="M2335.507,507.7a.563.563,0,0,1-.045-.442l2.873-9.66a.213.213,0,0,0-.163-.3l-7.3-2.172a.212.212,0,0,0-.3.163l-1.649,5.546a.577.577,0,0,1-.719.39l-4.485-1.332a.562.562,0,0,1-.345-.28.555.555,0,0,1-.044-.441l1.648-5.546a.213.213,0,0,0-.161-.3l-7.351-2.185a.214.214,0,0,0-.3.163l-2.872,9.662a.576.576,0,0,1-.719.39l-4.484-1.334a.548.548,0,0,1-.344-.278.554.554,0,0,1-.047-.441l4.714-15.856a.56.56,0,0,1,.28-.344.553.553,0,0,1,.441-.045l31.25,9.29a.563.563,0,0,1,.346.278.569.569,0,0,1,.044.442l-4.714,15.854a.55.55,0,0,1-.278.344.557.557,0,0,1-.442.047l-4.484-1.334A.557.557,0,0,1,2335.507,507.7Z" transform="translate(146.072 97.346)" fill="#13235a"/>
      <path d="M2305.2,510.258l13.739,1.484c.143-.014.233-.063.269-.153l.608-1.524a.211.211,0,0,0-.135-.311l-12.229-4.879a.579.579,0,0,1-.322-.752l2.09-5.242a.579.579,0,0,1,.752-.322l30.281,12.08a.566.566,0,0,1,.317.31.556.556,0,0,1,.005.442l-3.61,9.049a8.834,8.834,0,0,1-2.939,3.917A8.509,8.509,0,0,1,2329.5,526a11.926,11.926,0,0,1-5.348-.914,11.086,11.086,0,0,1-4.256-2.866,8.224,8.224,0,0,1-2.017-4.051.373.373,0,0,0-.058-.179.164.164,0,0,0-.158-.063l-14.858-1.149-.2-.028c-.3-.12-.382-.343-.25-.671l2.145-5.377A.633.633,0,0,1,2305.2,510.258Zm27.426,4.66-7.66-3.056a.212.212,0,0,0-.313.135l-.8,2.016a2.967,2.967,0,0,0,.193,2.7,4.926,4.926,0,0,0,2.586,2.043,5.008,5.008,0,0,0,3.326.316,2.97,2.97,0,0,0,2-1.824l.8-2.016A.212.212,0,0,0,2332.624,514.918Z" transform="translate(143.663 103.199)" fill="#13235a"/>
      <path d="M2297.619,527.192l4.47,1.432c.144.074.259.025.346-.146l2.8-5.447c.088-.171.061-.294-.082-.368l-3.764-2.8a.543.543,0,0,1-.185-.8l2.581-5.018q.287-.558.779-.142l25.746,21.219a.579.579,0,0,1,.186.8l-2.98,5.789a.577.577,0,0,1-.758.316l-32.21-8.655-.194-.046c-.258-.131-.306-.355-.143-.67l2.646-5.145A.544.544,0,0,1,2297.619,527.192Zm11.9-.985-1.984,3.861c-.074.143-.033.236.124.281l12.744,4.007c.1.017.167-.005.2-.062s.01-.121-.062-.194l-10.715-7.953C2309.674,526.073,2309.574,526.092,2309.515,526.206Z" transform="translate(140.573 108.945)" fill="#13235a"/>
      <path d="M2277.2,556.4a.561.561,0,0,1,.417.15l24.157,21.891a.574.574,0,0,1,.04.818l-3.789,4.181a.576.576,0,0,1-.816.041l-20.086-18.2a.212.212,0,0,0-.34.015l-6.8,7.505a.556.556,0,0,1-.4.19.563.563,0,0,1-.417-.15l-3.468-3.14a.569.569,0,0,1-.189-.4.553.553,0,0,1,.15-.417l11.139-12.294A.555.555,0,0,1,2277.2,556.4Z" transform="translate(129.761 125.075)" fill="#13235a"/>
      <path d="M2257.341,578.024l3.7,2.891c.108.117.234.112.377-.018l4.514-4.139c.143-.13.158-.255.05-.373l-2.559-3.934a.544.544,0,0,1,.1-.814l4.16-3.814q.461-.424.778.138l16.805,28.822a.577.577,0,0,1-.1.814l-4.8,4.4a.58.58,0,0,1-.821.033l-27.221-19.274-.165-.109c-.2-.214-.163-.44.1-.679l4.267-3.911A.543.543,0,0,1,2257.341,578.024Zm11.5,3.2-3.2,2.934c-.119.107-.111.209.021.309l10.568,8.172c.088.048.156.051.2.008s.051-.112.01-.2l-7.3-11.172C2269.039,581.148,2268.938,581.133,2268.841,581.219Z" transform="translate(124.668 129.322)" fill="#13235a"/>
      <path d="M2254.018,621.237a.552.552,0,0,1-.245.367l-4.688,3.142a.559.559,0,0,1-.434.09.567.567,0,0,1-.369-.247l-18.153-27.079a.576.576,0,0,1,.158-.8l4.686-3.142a.573.573,0,0,1,.8.158l7.331,10.935a.214.214,0,0,0,.336.066l4-2.685a.214.214,0,0,0,.068-.335l-7.333-10.936a.577.577,0,0,1,.16-.8l4.687-3.142a.554.554,0,0,1,.434-.09.561.561,0,0,1,.369.247l18.154,27.08a.58.58,0,0,1-.158.8l-4.688,3.142a.558.558,0,0,1-.434.088.572.572,0,0,1-.369-.247l-7.3-10.9a.214.214,0,0,0-.335-.066l-4.005,2.687a.212.212,0,0,0-.066.333l7.306,10.9A.561.561,0,0,1,2254.018,621.237Z" transform="translate(116.353 136.534)" fill="#13235a"/>
      <path d="M2229.427,598.481a9.287,9.287,0,0,1,5.638,4.842l7.353,13.57a9.29,9.29,0,0,1,.976,7.37,10.986,10.986,0,0,1-12.488,6.764,9.238,9.238,0,0,1-5.662-4.831l-7.351-13.57a9.242,9.242,0,0,1-.955-7.38,10.985,10.985,0,0,1,12.489-6.766Zm-6.155,8.079a3.634,3.634,0,0,0,.463,2.574l7.627,14.078a3.648,3.648,0,0,0,1.9,1.794,2.741,2.741,0,0,0,2.356-.208,2.669,2.669,0,0,0,1.438-1.849,3.721,3.721,0,0,0-.484-2.563l-7.626-14.078a3.723,3.723,0,0,0-1.884-1.8,2.667,2.667,0,0,0-2.335.194A2.743,2.743,0,0,0,2223.272,606.56Z" transform="translate(111.258 140.85)" fill="#13235a"/>
      <path d="M2214,606.5a8.694,8.694,0,0,1,5.021,5.068l6.395,14.993a8.7,8.7,0,0,1,.185,7.132,11.016,11.016,0,0,1-12.852,5.455,8.732,8.732,0,0,1-5.052-5.082l-.719-1.684a.576.576,0,0,1,.306-.761l5.191-2.214a.578.578,0,0,1,.758.306l.758,1.775a3.449,3.449,0,0,0,1.627,1.848,2.6,2.6,0,0,0,2.258.008,2.55,2.55,0,0,0,1.511-1.616,3.451,3.451,0,0,0-.207-2.454l-6.435-15.083a3.448,3.448,0,0,0-1.627-1.848,2.546,2.546,0,0,0-2.213-.026,2.6,2.6,0,0,0-1.557,1.634,3.455,3.455,0,0,0,.207,2.454l1.514,3.548a.213.213,0,0,0,.316.128l1.952-.834a.565.565,0,0,1,.444-.005.559.559,0,0,1,.315.311l1.686,3.948a.576.576,0,0,1-.306.759l-7.9,3.368a.575.575,0,0,1-.759-.3l-3.5-8.207a8.654,8.654,0,0,1-.161-7.14A11.052,11.052,0,0,1,2214,606.5Z" transform="translate(105.181 143.808)" fill="#13235a"/>
      <path d="M2197.932,613.378a10,10,0,0,1,4.712,6.114l7.174,22.466a.578.578,0,0,1-.376.727l-5.374,1.715a.55.55,0,0,1-.442-.034.561.561,0,0,1-.285-.339l-7.38-23.11a3.873,3.873,0,0,0-1.5-2.152,2.466,2.466,0,0,0-2.223-.3,2.4,2.4,0,0,0-1.614,1.528,3.984,3.984,0,0,0,.051,2.615l7.38,23.109a.578.578,0,0,1-.376.728l-5.374,1.717a.576.576,0,0,1-.729-.375l-7.174-22.467a10.01,10.01,0,0,1,.3-7.714,10.21,10.21,0,0,1,13.231-4.225Z" transform="translate(98.876 146.216)" fill="#13235a"/>
      <path d="M2172.278,647.231a.552.552,0,0,1,.362-.254l9.84-2.187a.213.213,0,0,0,.183-.287l-1.652-7.439a.212.212,0,0,0-.288-.182l-5.649,1.255a.581.581,0,0,1-.692-.441l-1.014-4.566a.576.576,0,0,1,.439-.69l5.649-1.255a.214.214,0,0,0,.183-.288l-1.663-7.485a.214.214,0,0,0-.288-.183l-9.84,2.185a.56.56,0,0,1-.437-.074.566.566,0,0,1-.254-.364l-1.014-4.568a.555.555,0,0,1,.074-.435.561.561,0,0,1,.364-.255l16.149-3.588a.58.58,0,0,1,.69.44L2190.5,648.4a.564.564,0,0,1-.077.435.556.556,0,0,1-.364.255l-16.148,3.588a.554.554,0,0,1-.437-.076.564.564,0,0,1-.255-.364l-1.014-4.567A.553.553,0,0,1,2172.278,647.231Z" transform="translate(92.205 147.641)" fill="#13235a"/>
      <path d="M2155.609,621.476l5.386,12.725c.081.119.168.174.264.16l1.625-.209a.213.213,0,0,0,.209-.269l-1.685-13.058a.579.579,0,0,1,.5-.648l5.6-.722a.559.559,0,0,1,.428.114.553.553,0,0,1,.221.384l4.171,32.334a.577.577,0,0,1-.5.649l-9.664,1.246a8.83,8.83,0,0,1-4.852-.663,8.5,8.5,0,0,1-3.639-3.153,11.934,11.934,0,0,1-1.8-5.116,11.066,11.066,0,0,1,.435-5.113,8.214,8.214,0,0,1,2.558-3.734.374.374,0,0,0,.128-.138.159.159,0,0,0-.022-.168l-6.22-13.542-.073-.185c-.041-.318.114-.5.464-.546l5.739-.741A.636.636,0,0,1,2155.609,621.476Zm9.268,26.229-1.055-8.178a.213.213,0,0,0-.269-.209l-2.154.278a2.968,2.968,0,0,0-2.264,1.483,4.93,4.93,0,0,0-.528,3.255,5.016,5.016,0,0,0,1.342,3.06,2.977,2.977,0,0,0,2.567.86l2.152-.278A.212.212,0,0,0,2164.876,647.7Z" transform="translate(85.606 148.901)" fill="#13235a"/>
      <path d="M2137.467,622.453l.927,4.6c.005.161.106.238.3.232l6.123-.208c.191-.007.287-.09.281-.251l.613-4.653a.545.545,0,0,1,.607-.553l5.64-.19c.419-.014.586.189.5.61l-5.977,32.822a.58.58,0,0,1-.609.553l-6.508.221a.577.577,0,0,1-.644-.508l-8.143-32.344-.055-.192c-.01-.289.163-.44.515-.452l5.785-.2A.543.543,0,0,1,2137.467,622.453Zm6.658,9.907-4.339.147c-.16.006-.222.087-.185.247l2.712,13.083c.036.1.087.141.15.139s.112-.052.139-.149l1.723-13.233C2144.319,632.433,2144.251,632.356,2144.125,632.36Z" transform="translate(78.748 149.65)" fill="#13235a"/>
      <path d="M2111.329,620.475a.55.55,0,0,1,.1.431l-5.552,32.126a.579.579,0,0,1-.668.473l-5.562-.962a.577.577,0,0,1-.471-.668l4.615-26.708a.211.211,0,0,0-.2-.278l-9.98-1.725a.577.577,0,0,1-.471-.668l.8-4.61a.574.574,0,0,1,.668-.471l16.348,2.825A.557.557,0,0,1,2111.329,620.475Z" transform="translate(64.618 148.129)" fill="#13235a"/>
      <path d="M2082.9,615.108l-.408,4.675c-.04.156.034.259.22.306l5.931,1.527c.188.048.3-.005.34-.161l1.9-4.289a.544.544,0,0,1,.738-.358l5.465,1.407c.405.1.508.346.312.728l-14.995,29.8a.578.578,0,0,1-.74.355l-6.307-1.622a.577.577,0,0,1-.473-.671l1.31-33.326,0-.2q.107-.42.621-.288l5.6,1.443A.547.547,0,0,1,2082.9,615.108Zm3.594,11.383-4.2-1.083c-.156-.039-.239.022-.248.186l-1.087,13.315c.007.1.042.161.1.176s.121-.018.176-.1l5.385-12.21C2086.66,626.617,2086.616,626.524,2086.494,626.491Z" transform="translate(57.723 146.45)" fill="#13235a"/>
      <path d="M2047.109,636.738a.553.553,0,0,1-.444,0l-5.206-2.177a.576.576,0,0,1-.31-.756l12.579-30.077a.572.572,0,0,1,.755-.311l5.207,2.177a.576.576,0,0,1,.31.758l-5.079,12.146a.213.213,0,0,0,.13.316l4.449,1.862a.213.213,0,0,0,.315-.131L2064.9,608.4a.575.575,0,0,1,.757-.311l5.2,2.177a.575.575,0,0,1,.312.757l-12.579,30.077a.575.575,0,0,1-.756.311l-5.206-2.177a.578.578,0,0,1-.312-.756l5.063-12.1a.214.214,0,0,0-.131-.317l-4.448-1.86a.215.215,0,0,0-.317.13l-5.061,12.1A.553.553,0,0,1,2047.109,636.738Z" transform="translate(44.956 142.823)" fill="#13235a"/>
      <path d="M2052.1,604.174a9.291,9.291,0,0,1-.938,7.375l-7.28,13.608a9.294,9.294,0,0,1-5.615,4.871,10.988,10.988,0,0,1-12.524-6.7,9.255,9.255,0,0,1,.916-7.387l7.281-13.607a9.245,9.245,0,0,1,5.635-4.86,10.984,10.984,0,0,1,12.524,6.7Zm-10.133-.69a3.652,3.652,0,0,0-1.895,1.8l-7.552,14.118a3.638,3.638,0,0,0-.449,2.577,2.744,2.744,0,0,0,1.469,1.853,2.674,2.674,0,0,0,2.336.183,3.72,3.72,0,0,0,1.874-1.816l7.553-14.117a3.708,3.708,0,0,0,.47-2.566,2.664,2.664,0,0,0-1.448-1.841A2.736,2.736,0,0,0,2041.968,603.484Z" transform="translate(39 140.468)" fill="#13235a"/>
      <path d="M2037.269,595.755a8.684,8.684,0,0,1-1.5,6.974l-9.053,13.556a8.69,8.69,0,0,1-5.868,4.055,11.012,11.012,0,0,1-11.6-7.774,8.739,8.739,0,0,1,1.491-7.008l1.018-1.524a.578.578,0,0,1,.8-.16l4.692,3.135a.552.552,0,0,1,.248.367.562.562,0,0,1-.088.435l-1.071,1.6a3.452,3.452,0,0,0-.659,2.373,2.606,2.606,0,0,0,1.231,1.895,2.55,2.55,0,0,0,2.18.383,3.454,3.454,0,0,0,1.94-1.517l9.105-13.634a3.452,3.452,0,0,0,.658-2.374,2.542,2.542,0,0,0-1.189-1.867,2.6,2.6,0,0,0-2.221-.409,3.449,3.449,0,0,0-1.94,1.516l-2.143,3.208a.216.216,0,0,0,.066.336l1.767,1.177a.582.582,0,0,1,.16.8l-2.385,3.57a.574.574,0,0,1-.8.158l-7.139-4.768a.576.576,0,0,1-.16-.8l4.955-7.42a8.646,8.646,0,0,1,5.889-4.04,11.048,11.048,0,0,1,11.609,7.754Z" transform="translate(32.84 136.972)" fill="#13235a"/>
      <path d="M2023.956,586.126a10.016,10.016,0,0,1-2.585,7.274L2006.379,611.6a.576.576,0,0,1-.815.079l-4.356-3.587a.554.554,0,0,1-.208-.39.56.56,0,0,1,.129-.424l15.422-18.726a3.9,3.9,0,0,0,1-2.427,2.474,2.474,0,0,0-.951-2.032,2.407,2.407,0,0,0-2.158-.528,3.974,3.974,0,0,0-2.173,1.462l-15.42,18.724a.574.574,0,0,1-.814.079l-4.355-3.585a.561.561,0,0,1-.209-.393.553.553,0,0,1,.131-.423l14.99-18.2a10.019,10.019,0,0,1,6.644-3.934,10.217,10.217,0,0,1,10.722,8.83Z" transform="translate(26.197 132.949)" fill="#13235a"/>
      <path d="M1981.89,583.14a.559.559,0,0,1,.409.171l7.125,7.129a.213.213,0,0,0,.34,0l5.39-5.386a.212.212,0,0,0,0-.34l-4.091-4.1a.574.574,0,0,1,0-.817l3.31-3.307a.556.556,0,0,1,.409-.171.564.564,0,0,1,.411.171l4.09,4.094a.213.213,0,0,0,.34,0l5.425-5.421a.212.212,0,0,0,0-.34l-7.125-7.129a.58.58,0,0,1,0-.818l3.31-3.307a.575.575,0,0,1,.818,0l11.692,11.7a.576.576,0,0,1,0,.818l-23.059,23.044a.578.578,0,0,1-.82,0l-11.691-11.7a.558.558,0,0,1-.171-.411.569.569,0,0,1,.171-.409l3.308-3.306A.558.558,0,0,1,1981.89,583.14Z" transform="translate(21.109 127.72)" fill="#13235a"/>
      <path d="M1994.062,555.432l-7.922,11.324a.282.282,0,0,0,0,.307l1.042,1.266a.212.212,0,0,0,.339.034L1997.694,560a.58.58,0,0,1,.814.08l3.584,4.358a.561.561,0,0,1,.131.424.552.552,0,0,1-.211.39l-25.179,20.707a.577.577,0,0,1-.816-.079l-6.187-7.523a8.827,8.827,0,0,1-2.016-4.463,8.51,8.51,0,0,1,.739-4.759,11.938,11.938,0,0,1,3.377-4.245,11.073,11.073,0,0,1,4.564-2.347,8.19,8.19,0,0,1,4.521.183.359.359,0,0,0,.186.034.161.161,0,0,0,.131-.106l8.168-12.465.118-.16a.45.45,0,0,1,.71.1l3.676,4.47A.635.635,0,0,1,1994.062,555.432Zm-17.3,21.785,6.37-5.239a.212.212,0,0,0,.033-.339l-1.378-1.677a2.97,2.97,0,0,0-2.461-1.13,4.925,4.925,0,0,0-3.037,1.28,5.016,5.016,0,0,0-1.88,2.763,2.971,2.971,0,0,0,.635,2.632l1.378,1.677A.213.213,0,0,0,1976.759,577.217Z" transform="translate(17.231 122.618)" fill="#13235a"/>
      <path d="M1983.722,540.806l-3.425,3.208c-.134.088-.148.214-.04.373l3.4,5.1c.106.161.228.2.361.108l4.281-1.924a.543.543,0,0,1,.788.227l3.128,4.7c.231.349.147.6-.255.75l-31.065,12.17a.576.576,0,0,1-.788-.227l-3.609-5.419a.579.579,0,0,1,.094-.816l23.233-23.93.133-.149q.362-.24.656.2l3.208,4.816A.544.544,0,0,1,1983.722,540.806Zm-4.926,10.87-2.407-3.613c-.089-.132-.19-.142-.307-.025l-9.7,9.184c-.062.08-.076.146-.041.2s.1.068.2.041l12.161-5.492C1978.836,551.881,1978.867,551.783,1978.8,551.676Z" transform="translate(12.933 116.944)" fill="#13235a"/>
      <path d="M1967.918,507.88a.543.543,0,0,1-.335.289l-30.924,10.321a.576.576,0,0,1-.732-.365l-1.787-5.352a.57.57,0,0,1,.031-.444.561.561,0,0,1,.335-.289l25.71-8.58a.213.213,0,0,0,.153-.306l-3.206-9.605a.577.577,0,0,1,.365-.733l4.438-1.481a.557.557,0,0,1,.441.032.549.549,0,0,1,.291.335l5.252,15.737A.555.555,0,0,1,1967.918,507.88Z" transform="translate(4.522 100.474)" fill="#13235a"/>
      <path d="M1959.964,480.2l-4.329,1.815c-.156.037-.211.15-.168.336l1.408,5.962c.044.187.145.263.3.226l4.683-.313a.544.544,0,0,1,.66.489l1.3,5.491q.145.61-.5.613l-33.358.59a.578.578,0,0,1-.66-.489l-1.5-6.336a.577.577,0,0,1,.371-.732l30.113-14.343.177-.091c.282-.068.464.073.544.416l1.33,5.633A.543.543,0,0,1,1959.964,480.2Zm-8.405,8.476-1-4.225c-.037-.156-.128-.2-.278-.132l-12.294,5.231c-.085.054-.121.112-.107.175s.073.1.174.106l13.312-.912C1951.526,488.886,1951.589,488.805,1951.559,488.68Z" transform="translate(2.129 93.71)" fill="#13235a"/>
      <path d="M1923.417,455.828a.561.561,0,0,1-.205-.394l-.493-5.622a.576.576,0,0,1,.526-.627l32.476-2.854a.579.579,0,0,1,.627.526l.493,5.62a.572.572,0,0,1-.525.627l-13.116,1.153a.212.212,0,0,0-.218.26l.42,4.8a.213.213,0,0,0,.262.219l13.116-1.152a.549.549,0,0,1,.423.132.555.555,0,0,1,.2.393l.493,5.622a.555.555,0,0,1-.132.423.563.563,0,0,1-.393.2l-32.476,2.852a.572.572,0,0,1-.627-.525l-.494-5.62a.561.561,0,0,1,.132-.423.567.567,0,0,1,.393-.205l13.068-1.148a.212.212,0,0,0,.219-.26l-.422-4.8a.214.214,0,0,0-.262-.22l-13.068,1.148A.55.55,0,0,1,1923.417,455.828Z" transform="translate(0.216 83.477)" fill="#13235a"/>
      <path d="M1954.067,445.424a9.3,9.3,0,0,1-6.946,2.651l-15.433,0a9.292,9.292,0,0,1-6.943-2.655,10.99,10.99,0,0,1,0-14.2,9.255,9.255,0,0,1,6.946-2.675l15.433,0a9.242,9.242,0,0,1,6.943,2.679,10.985,10.985,0,0,1,0,14.2Zm-4.169-9.261a3.65,3.65,0,0,0-2.484-.82l-16.011,0a3.643,3.643,0,0,0-2.481.817,2.734,2.734,0,0,0-.943,2.172,2.662,2.662,0,0,0,.941,2.145,3.7,3.7,0,0,0,2.482.8l16.011,0a3.716,3.716,0,0,0,2.484-.8,2.664,2.664,0,0,0,.941-2.145A2.735,2.735,0,0,0,1949.9,436.163Z" transform="translate(0 76.754)" fill="#13235a"/>
      <path d="M1954.327,428.321a8.691,8.691,0,0,1-6.836,2.039l-16.239-1.422a8.693,8.693,0,0,1-6.377-3.2,11.01,11.01,0,0,1,1.241-13.907,8.728,8.728,0,0,1,6.861-2.061l1.827.16a.561.561,0,0,1,.394.2.567.567,0,0,1,.132.423l-.493,5.62a.551.551,0,0,1-.2.394.563.563,0,0,1-.425.132l-1.922-.168a3.449,3.449,0,0,0-2.4.565,2.6,2.6,0,0,0-1.069,1.987,2.544,2.544,0,0,0,.711,2.1,3.447,3.447,0,0,0,2.262.973l16.336,1.43a3.44,3.44,0,0,0,2.4-.565,2.54,2.54,0,0,0,1.065-1.939,2.6,2.6,0,0,0-.707-2.144,3.452,3.452,0,0,0-2.264-.973l-3.843-.336a.214.214,0,0,0-.262.219l-.185,2.114a.579.579,0,0,1-.627.526l-4.276-.375a.576.576,0,0,1-.526-.627l.748-8.553a.564.564,0,0,1,.205-.393.558.558,0,0,1,.422-.132l8.887.779a8.652,8.652,0,0,1,6.375,3.22,11.054,11.054,0,0,1-1.217,13.909Z" transform="translate(0.306 69.645)" fill="#13235a"/>
      <path d="M1956,411.641a10.016,10.016,0,0,1-7.6,1.321l-23.222-4.117a.576.576,0,0,1-.469-.671l.985-5.556a.573.573,0,0,1,.67-.469l23.886,4.234a3.9,3.9,0,0,0,2.6-.322,2.469,2.469,0,0,0,1.3-1.826,2.4,2.4,0,0,0-.6-2.14,3.982,3.982,0,0,0-2.338-1.174l-23.886-4.233a.576.576,0,0,1-.469-.671l.985-5.556a.576.576,0,0,1,.671-.47l23.219,4.117a10,10,0,0,1,6.688,3.854A10.212,10.212,0,0,1,1956,411.641Z" transform="translate(0.963 62.184)" fill="#13235a"/>
      <path d="M1938.3,373.486a.563.563,0,0,1,.057.44l-2.6,9.736a.213.213,0,0,0,.171.295l7.361,1.969a.214.214,0,0,0,.3-.171l1.5-5.59a.574.574,0,0,1,.707-.409l4.521,1.207a.577.577,0,0,1,.409.71l-1.495,5.59a.213.213,0,0,0,.171.3l7.408,1.98a.214.214,0,0,0,.3-.169l2.6-9.738a.557.557,0,0,1,.269-.353.564.564,0,0,1,.439-.058l4.52,1.208a.563.563,0,0,1,.353.27.554.554,0,0,1,.057.438l-4.274,15.981a.573.573,0,0,1-.707.409l-31.5-8.422a.578.578,0,0,1-.409-.708l4.274-15.981a.577.577,0,0,1,.708-.409l4.519,1.208A.564.564,0,0,1,1938.3,373.486Z" transform="translate(2.373 55.383)" fill="#13235a"/>
      <path d="M1968.846,370.423l-13.779-1.064c-.142.016-.23.07-.263.161l-.561,1.54a.213.213,0,0,0,.145.309l12.371,4.5a.574.574,0,0,1,.346.741l-1.929,5.3a.577.577,0,0,1-.743.346L1933.8,371.112a.579.579,0,0,1-.346-.743l3.332-9.154a8.84,8.84,0,0,1,2.818-4,8.511,8.511,0,0,1,4.473-1.784,11.919,11.919,0,0,1,5.374.75,11.063,11.063,0,0,1,4.342,2.735,8.208,8.208,0,0,1,2.141,3.986.353.353,0,0,0,.063.178.159.159,0,0,0,.158.058l14.887.7.2.021c.3.11.393.332.273.663l-1.98,5.439A.634.634,0,0,1,1968.846,370.423Zm-27.555-3.821,7.749,2.821a.213.213,0,0,0,.309-.143l.742-2.039a2.969,2.969,0,0,0-.278-2.692,4.925,4.925,0,0,0-2.646-1.965,5.012,5.012,0,0,0-3.334-.214,2.981,2.981,0,0,0-1.946,1.885l-.741,2.039A.213.213,0,0,0,1941.291,366.6Z" transform="translate(4.26 49.103)" fill="#13235a"/>
      <path d="M1975.468,353.42l-4.513-1.292c-.145-.069-.259-.017-.342.158l-2.63,5.53c-.084.175-.052.3.092.365l3.848,2.686a.543.543,0,0,1,.209.8l-2.422,5.094q-.271.566-.774.167l-26.393-20.41a.576.576,0,0,1-.209-.794l2.8-5.88a.577.577,0,0,1,.748-.338l32.464,7.649.2.04q.391.186.164.666l-2.487,5.226A.543.543,0,0,1,1975.468,353.42Zm-11.86,1.353,1.865-3.92c.069-.145.025-.236-.134-.277l-12.863-3.61c-.1-.012-.165.01-.193.068s-.005.124.069.194l10.956,7.616C1963.454,354.914,1963.553,354.89,1963.608,354.773Z" transform="translate(7.601 43.094)" fill="#13235a"/>
      <path d="M1994.987,323.51a.558.558,0,0,1-.42-.143l-24.56-21.439a.552.552,0,0,1-.2-.4.559.559,0,0,1,.142-.42l3.709-4.251a.567.567,0,0,1,.4-.2.554.554,0,0,1,.419.142l20.419,17.825a.214.214,0,0,0,.34-.023l6.661-7.631a.575.575,0,0,1,.814-.055l3.525,3.077a.555.555,0,0,1,.2.4.565.565,0,0,1-.142.42l-10.91,12.5A.56.56,0,0,1,1994.987,323.51Z" transform="translate(18.013 26.916)" fill="#13235a"/>
      <path d="M2013.6,303.708l-3.73-2.849c-.11-.117-.234-.11-.376.022l-4.469,4.187c-.142.132-.156.256-.045.373l2.6,3.906a.543.543,0,0,1-.095.816l-4.116,3.858c-.306.287-.565.244-.781-.128l-17.119-28.636a.576.576,0,0,1,.095-.816l4.75-4.452a.58.58,0,0,1,.821-.041l27.43,18.974.167.107c.2.212.167.438-.09.681l-4.225,3.956A.541.541,0,0,1,2013.6,303.708Zm-11.537-3.07,3.168-2.967c.117-.11.109-.212-.024-.309l-10.657-8.057c-.089-.048-.158-.051-.2-.007s-.05.112-.007.2l7.419,11.092C2001.871,300.712,2001.973,300.726,2002.065,300.638Z" transform="translate(23.885 20.543)" fill="#13235a"/>
      <path d="M2016.986,261.484a.556.556,0,0,1,.247-.369l4.691-3.136a.558.558,0,0,1,.434-.088.569.569,0,0,1,.369.247l18.122,27.1a.578.578,0,0,1-.158.8L2036,289.177a.577.577,0,0,1-.8-.16l-7.319-10.943a.212.212,0,0,0-.333-.068l-4.008,2.681a.213.213,0,0,0-.068.335l7.318,10.943a.576.576,0,0,1-.158.8l-4.69,3.137a.576.576,0,0,1-.8-.16l-18.125-27.1a.576.576,0,0,1,.161-.8l4.689-3.137a.565.565,0,0,1,.434-.087.558.558,0,0,1,.369.247l7.292,10.9a.213.213,0,0,0,.335.068l4.009-2.681a.213.213,0,0,0,.066-.335l-7.292-10.9A.559.559,0,0,1,2016.986,261.484Z" transform="translate(32.034 12.26)" fill="#13235a"/>
      <path d="M2039.638,282.955a9.292,9.292,0,0,1-5.612-4.874l-7.272-13.611a9.286,9.286,0,0,1-.934-7.376,10.981,10.981,0,0,1,12.526-6.694,9.248,9.248,0,0,1,5.633,4.863l7.274,13.611a9.243,9.243,0,0,1,.912,7.387,10.984,10.984,0,0,1-12.527,6.694Zm6.2-8.043a3.638,3.638,0,0,0-.448-2.577l-7.547-14.122a3.641,3.641,0,0,0-1.893-1.8,2.745,2.745,0,0,0-2.358.193,2.667,2.667,0,0,0-1.448,1.842,3.714,3.714,0,0,0,.469,2.564l7.546,14.121a3.712,3.712,0,0,0,1.874,1.816,2.664,2.664,0,0,0,2.335-.182A2.74,2.74,0,0,0,2045.839,274.912Z" transform="translate(39.032 9.304)" fill="#13235a"/>
      <path d="M2054.724,275.164a8.7,8.7,0,0,1-4.985-5.1l-6.3-15.034a8.693,8.693,0,0,1-.138-7.132,11.009,11.009,0,0,1,12.888-5.371,8.725,8.725,0,0,1,5.017,5.113l.708,1.691a.576.576,0,0,1-.309.756l-5.206,2.18a.576.576,0,0,1-.757-.31l-.746-1.779a3.444,3.444,0,0,0-1.615-1.859,2.6,2.6,0,0,0-2.257-.022,2.545,2.545,0,0,0-1.524,1.605,3.454,3.454,0,0,0,.191,2.455l6.335,15.124a3.448,3.448,0,0,0,1.615,1.86,2.55,2.55,0,0,0,2.213.04,2.6,2.6,0,0,0,1.568-1.625,3.447,3.447,0,0,0-.191-2.455l-1.491-3.559a.213.213,0,0,0-.316-.128l-1.956.82a.576.576,0,0,1-.758-.311l-1.657-3.959a.575.575,0,0,1,.309-.756l7.919-3.317a.577.577,0,0,1,.758.31l3.446,8.229a8.657,8.657,0,0,1,.116,7.142,11.053,11.053,0,0,1-12.879,5.393Z" transform="translate(45.523 6.246)" fill="#13235a"/>
      <path d="M2070.965,268.954a10.011,10.011,0,0,1-4.694-6.128l-7.113-22.485a.58.58,0,0,1,.378-.728l5.379-1.7a.579.579,0,0,1,.726.378l7.317,23.128a3.889,3.889,0,0,0,1.491,2.159,2.467,2.467,0,0,0,2.223.309,2.4,2.4,0,0,0,1.617-1.524,3.966,3.966,0,0,0-.044-2.615l-7.315-23.13a.576.576,0,0,1,.377-.726l5.38-1.7a.576.576,0,0,1,.726.378l7.113,22.485a10.015,10.015,0,0,1-.317,7.714,10.213,10.213,0,0,1-13.244,4.189Z" transform="translate(51.768 3.297)" fill="#13235a"/>
      <path d="M2096.078,235.272a.556.556,0,0,1-.362.256l-9.824,2.247a.211.211,0,0,0-.182.288l1.7,7.428a.214.214,0,0,0,.289.182l5.641-1.29a.553.553,0,0,1,.437.072.563.563,0,0,1,.256.362l1.043,4.561a.576.576,0,0,1-.435.693l-5.641,1.29a.212.212,0,0,0-.18.289l1.708,7.475a.212.212,0,0,0,.29.18l9.826-2.246a.577.577,0,0,1,.693.434l1.042,4.561a.576.576,0,0,1-.435.693l-16.125,3.687a.579.579,0,0,1-.694-.435l-7.266-31.78a.555.555,0,0,1,.072-.438.562.562,0,0,1,.362-.255l16.125-3.689a.571.571,0,0,1,.438.074.56.56,0,0,1,.255.361l1.043,4.561A.556.556,0,0,1,2096.078,235.272Z" transform="translate(58.839 1.658)" fill="#13235a"/>
      <path d="M2112.87,260.263l-5.64-12.615c-.083-.117-.172-.169-.268-.156l-1.622.242a.213.213,0,0,0-.2.274l1.946,13.021a.575.575,0,0,1-.487.657l-5.581.834a.576.576,0,0,1-.659-.486l-4.817-32.243a.575.575,0,0,1,.488-.657l9.634-1.44a8.824,8.824,0,0,1,4.863.565,8.516,8.516,0,0,1,3.7,3.08,11.9,11.9,0,0,1,1.9,5.079,11.06,11.06,0,0,1-.331,5.12,8.2,8.2,0,0,1-2.483,3.785.346.346,0,0,0-.124.141.154.154,0,0,0,.023.167l6.491,13.415.076.183c.048.318-.1.5-.453.555l-5.724.856A.634.634,0,0,1,2112.87,260.263Zm-9.79-26.038,1.218,8.156a.212.212,0,0,0,.274.2l2.146-.321a2.964,2.964,0,0,0,2.233-1.528,4.915,4.915,0,0,0,.464-3.263,5.014,5.014,0,0,0-1.4-3.033,2.97,2.97,0,0,0-2.583-.809l-2.147.321A.212.212,0,0,0,2103.08,234.224Z" transform="translate(65.526 0.81)" fill="#13235a"/>
      <path d="M2130.429,258.521l-1.108-4.56c-.012-.161-.114-.234-.307-.219l-6.108.451c-.192.014-.282.1-.271.262l-.428,4.674q-.008.533-.586.575l-5.627.415c-.417.03-.592-.165-.528-.59l4.674-33.034a.574.574,0,0,1,.584-.575l6.494-.48a.578.578,0,0,1,.664.484l9.42,32,.063.187q.031.434-.5.473l-5.771.426A.545.545,0,0,1,2130.429,258.521Zm-7.044-9.634,4.329-.32c.158-.012.218-.1.174-.255l-3.228-12.963c-.04-.094-.093-.139-.156-.134s-.109.056-.134.156l-1.2,13.29C2123.185,248.82,2123.255,248.895,2123.385,248.886Z" transform="translate(73.053 0)" fill="#13235a"/>
    </g>
  </g>
</svg>
