<svg xmlns="http://www.w3.org/2000/svg" width="1920" height="160.206" viewBox="0 0 1920 160.206">
  <g transform="translate(2883.698 2333.482) rotate(90)">
    <g transform="translate(-2318.979 2052.502)">
      <g>
        <path d="M-2211.206,1368.681c-2.118-3.641-6.751-4.637-10.277-4.83l.067-85.106c0-4.819.007-13.785-6.113-18.693-4.41-3.541-10.173-3.382-13.985-3.281l-12.814.368c-8.379.249-16.758.493-25.137.653-2.076.03-3.987-.119-5.83-.271-6.67-.55-13.57-1.126-19.04,10.382a3.651,3.651,0,0,0-.144.353c-2.1,5.882-1.9,12.127-1.713,17.641l1.645,48.883c.23,7.071-1.393,8.869-2.385,9.312-.959.431-2.464.178-4.211-.108a16.81,16.81,0,0,0-7.171-.074c-3.9,1.025-7.159,4.362-8.7,8.926a33.621,33.621,0,0,0-1.312,10.519l-1.23,88.186c-.072,5.172-.186,12.986,4.272,18.619,4.437,5.6,11.425,6.993,18.313,7.666q15,1.46,30.083,1.46a310.88,310.88,0,0,0,48.41-3.793c3.637-.573,11.2-1.761,14.855-7.826,2.125-3.526,2.267-7.55,2.378-10.782l2.529-73.146C-2208.568,1379.442-2208.368,1373.56-2211.206,1368.681Zm-5.128,14.792-2.53,73.146c-.082,2.474-.183,5.28-1.29,7.107-1.6,2.66-5.518,3.608-9.512,4.236a303.436,303.436,0,0,1-76.568,2.277c-4.857-.475-10.274-1.278-13.075-4.814-2.569-3.237-2.709-8.365-2.631-13.782l1.23-88.186a27.431,27.431,0,0,1,.906-8.175c.7-2.069,2.044-3.637,3.422-4a4.212,4.212,0,0,1,1.075-.119,19.6,19.6,0,0,1,2.931.339c2.449.4,5.506.906,8.553-.457,7.327-3.277,7-13.246,6.889-16.524l-1.644-48.883c-.166-5-.34-10.173,1.209-14.643,3.161-6.573,5.272-6.4,11.443-5.882a64.64,64.64,0,0,0,6.607.3c8.4-.16,16.81-.408,25.214-.657l12.8-.365c3.716-.1,6.945-.052,9.011,1.605,2.864,2.3,3.259,7.483,3.259,12.741l-.071,89a3.81,3.81,0,0,0,1.267,2.834,3.784,3.784,0,0,0,2.954.955c3.144-.327,6.58.278,7.094.985C-2216.059,1375.5-2216.212,1379.917-2216.334,1383.474Z" transform="translate(2329.579 -1256.733)" fill="#46b2b5"/>
      </g>
      <g transform="translate(64.994 179.354)">
        <path d="M-2303.864,1305.058a3.8,3.8,0,0,0-4.16,2.293l-3.772,9.058a3.827,3.827,0,0,0,.03,2.995,3.806,3.806,0,0,0,2.184,2.051l33.623,12.251a3.746,3.746,0,0,0,1.3.23,3.8,3.8,0,0,0,1.635-.364,3.828,3.828,0,0,0,1.966-2.188c.553-1.579,2.278-7.026,1.315-10.693C-2271.222,1315.087-2299.137,1305.872-2303.864,1305.058Zm26.582,20.057-25.946-9.457,1.007-2.426c8.207,2.192,21.491,7.94,25.146,10.258A12.307,12.307,0,0,1-2277.282,1325.115Z" transform="translate(2312.087 -1305.003)" fill="#46b2b5"/>
      </g>
      <g transform="translate(63.888 153.998)">
        <path d="M-2290.08,1319.065c2.434,0,5.135-.023,8.133-.064,1.992-.026,3.772-.048,5.18-.048a2.782,2.782,0,0,1,.468,0,3.808,3.808,0,0,0,3.809-3.679l.449-12.815a3.784,3.784,0,0,0-1.051-2.765,3.8,3.8,0,0,0-2.712-1.178l-31.713-.338a3.828,3.828,0,0,0-3.542,2.3,3.936,3.936,0,0,0-.308,1.713c-.037.524-.167,1.587-.316,2.827-.881,7.446-.906,8.557-.227,9.9C-2310.3,1318.1-2306.086,1319.065-2290.08,1319.065Zm-14.03-13.154,0-.074,24.315.256-.186,5.261c-.658.008-1.353.018-2.066.026-5.64.078-17.935.241-22.605-.591C-2304.507,1309.229-2304.259,1307.137-2304.11,1305.911Z" transform="translate(2312.385 -1298.179)" fill="#46b2b5"/>
      </g>
      <g transform="translate(64.729 117.668)">
        <path d="M-2310.339,1304.028a3.8,3.8,0,0,0-1.735,4.042c.81,3.831,4.161,9.653,4.54,10.307a3.806,3.806,0,0,0,3.291,1.895,3.788,3.788,0,0,0,1.176-.186c.742-.241,2.7-1.052,6.72-2.713,5.857-2.426,19.214-7.951,22.581-8.75a3.708,3.708,0,0,0,1.972-.26,3.809,3.809,0,0,0,2.055-4.975l-.027-.067-5.254-12.577a3.789,3.789,0,0,0-2.17-2.1,3.811,3.811,0,0,0-3.014.141c-3.08,1.5-5.955,2.842-8.731,4.136A199.505,199.505,0,0,0-2310.339,1304.028Zm29.836-6.644,1.969,4.722c-4.207,1.4-10.638,4.05-20.726,8.226-1.118.461-2.252.929-3.237,1.337-.449-.891-.891-1.828-1.262-2.7,6.212-3.626,11.752-6.209,18.047-9.143C-2284.021,1299.042-2282.293,1298.235-2280.5,1297.385Z" transform="translate(2312.159 -1288.401)" fill="#46b2b5"/>
      </g>
      <g transform="translate(10.551 145.171)">
        <path d="M-2280.5,1300.239c-1.282-2.326-3.493-4.262-6.046-4.414-9.427-.564-1.742,10.393-.405,13.983a46.492,46.492,0,0,1,2.613,21.327c-.6,5.265-2.419,10.834-6.658,13.7-3.475,2.345-8.041,2.4-11.913.9s-7.135-4.377-9.921-7.576c-3.046-3.5-5.7-7.688-6.1-12.414s2.155-9.958,6.525-11.132c4.581-1.234,9.215,2.278,11.745,6.484,1.515,2.526,2.579,5.659,1.653,8.486s-4.545,4.664-6.773,2.81c-1.393-1.163-1.743-3.184-2.334-4.95s-1.924-3.641-3.693-3.437c-1.583.186-2.567,2.07-2.437,3.738a9.75,9.75,0,0,0,1.973,4.5c3.2,4.8,7.647,9.976,13.187,9.326,4.979-.591,8.43-6.112,8.479-11.384s-2.5-10.185-5.455-14.443c-3.723-5.365-8.869-10.47-15.182-10.742a14.309,14.309,0,0,0-11.834,6.2,21.379,21.379,0,0,0-3.631,13.629c.7,12.094,10.059,22.29,20.931,26.281,5.395,1.98,11.469,2.66,16.757.379,7.193-3.1,11.555-11.176,12.7-19.265s-.375-16.3-1.887-24.319A25.534,25.534,0,0,0-2280.5,1300.239Z" transform="translate(2326.74 -1295.803)" fill="#46b2b5"/>
      </g>
      <g transform="translate(13.934 100.325)">
        <path d="M-2321.19,1315.188a14.548,14.548,0,0,0,11.079,5.636c.372,0,.744-.018,1.115-.052a12.672,12.672,0,0,0,10.066-7.126,17.5,17.5,0,0,0,1.569-7.48c.129-7.435-3.147-20.012-12.47-22.119a11.379,11.379,0,0,0-10.367,2.627c-4.648,4.187-6.109,11.674-5.5,16.858A22.792,22.792,0,0,0-2321.19,1315.188Zm6.093-22.847a3.516,3.516,0,0,1,2.463-1,4.936,4.936,0,0,1,1.122.137c4.184.944,6.621,9.115,6.532,14.558a10.328,10.328,0,0,1-.81,4.284,5.146,5.146,0,0,1-3.939,2.861,6.7,6.7,0,0,1-5.517-2.768,15.319,15.319,0,0,1-2.883-7.777C-2318.582,1298.8-2317.249,1294.276-2315.1,1292.341Z" transform="translate(2325.829 -1283.734)" fill="#46b2b5"/>
      </g>
      <g transform="translate(25.285 113.424)">
        <path d="M-2318.909,1298.3h.063a3.806,3.806,0,0,0,3.745-3.872l-.052-3.414a3.811,3.811,0,0,0-3.809-3.753h-.059a3.813,3.813,0,0,0-3.753,3.871l.056,3.418A3.807,3.807,0,0,0-2318.909,1298.3Z" transform="translate(2322.774 -1287.259)" fill="#46b2b5"/>
      </g>
      <g transform="translate(38.461 14.423)">
        <path d="M-2313.943,1351.75c2.318.082,5.617.245,9.407.438,13.3.665,22.026.981,27.867.981,7.855,0,10.463-.573,11.879-1.643a3.813,3.813,0,0,0,1.509-2.943l2.155-82.862a3.809,3.809,0,0,0-3.107-3.842c-12.778-2.411-15.341-.736-16.181-.186a3.793,3.793,0,0,0-1.717,3.422c.846,13.688.7,37.4.272,39.769-.576,1.419-5,4.559-6.455,5.592a12.227,12.227,0,0,0-3.014,2.522,3.81,3.81,0,0,0,.729,5.213l8.505,6.733.007,8.676c-2.222-.1-4.41-.26-6.555-.413-3.232-.23-6.55-.468-10-.516-1.583-21.119-2.323-44.565-.858-48.875.475-.438,1.122-1.041,1.846-1.724,1.68-1.568,3.813-3.571,5.3-4.9a3.821,3.821,0,0,0,1.2-3.582,3.8,3.8,0,0,0-2.466-2.854l-20.284-7.167a3.815,3.815,0,0,0-3.44.461,3.816,3.816,0,0,0-1.639,3.065c-.044,2.422-1.059,59.606,1.389,81.25A3.812,3.812,0,0,0-2313.943,1351.75Zm2.5-79.2,9.319,3.288c-.252.238-.5.472-.739.695-.918.858-1.7,1.59-2.158,2.01-1.438,1.312-5.258,4.8-.947,58.3a3.716,3.716,0,0,0,3.92,3.5,123.669,123.669,0,0,1,12.859.472c3.489.249,7.094.509,10.892.531a3.81,3.81,0,0,0,2.712-1.107,3.81,3.81,0,0,0,1.121-2.7l-.015-14.435a3.8,3.8,0,0,0-1.441-2.984l-6.068-4.8c3.712-2.742,6.833-5.521,7.535-8.661.758-3.4.691-25.407.115-38.4,1.486.078,3.445.286,5.5.588l-1.987,76.579c-6.477.509-24.226-.383-33.337-.84-2.266-.111-4.361-.219-6.178-.3C-2311.949,1325.316-2311.625,1286.645-2311.44,1272.548Z" transform="translate(2319.228 -1260.614)" fill="#46b2b5"/>
      </g>
    </g>
    <g transform="translate(-2315.136 1616.336)">
      <path d="M-2218.227,1347.169c-.163-3.243-.614-11.863-7.235-14.688a14.114,14.114,0,0,0-7.357-.583,9.2,9.2,0,0,1-3.448.015c-1.23-.431-2.806-2.322-3.382-8.9l-1-11.522a10.593,10.593,0,0,0,4.039,5.555,9.621,9.621,0,0,0,7.7,1.371,13.22,13.22,0,0,0,8.327-6.283c2.7-4.708,2.728-10.169,2.749-14.561l.089-15.717c.026-3.66.052-8.212-1.775-12.333a13.152,13.152,0,0,0-8.1-7.349c-.564-11.778-1.084-27.7-1.638-44.461-2.341-71.4-3.1-75.182-5.384-77.3a4.067,4.067,0,0,0-2.881-1.067c-10.931.46-24.338.788-37.293,1.107-13,.316-26.436.643-37.435,1.107-3.356.145-9.61.405-13.314,5.031-3.036,3.786-2.995,8.81-2.972,12.132l.286,40.382c.03,5.034.356,10.277,3.831,14.212,4.5,5.087,11.782,4.853,15.7,4.734,8.386-.264,14.283-.535,20.18-.8,5.867-.267,11.726-.535,20.075-.8a3.812,3.812,0,0,0,3.682-3.549c2.8-41.042,1.286-42.812-.044-44.368-1.211-1.415-3.24-3.782-31.8-.661a3.819,3.819,0,0,0-3.359,3.247c-.5,3.515-1.207,12.053,3.125,15.457a3.823,3.823,0,0,0,2.526.81c2.107-.093,4.3-.371,6.421-.639,1.538-.2,3.6-.453,5.1-.52l-.279,3.229a166.823,166.823,0,0,1-23.089.947c-.482-10.329-.761-21.1-.571-25.8,3.169-.256,8.448-.628,13.948-1.014,10.4-.732,22.192-1.564,28.246-2.166,4.262-.427,7.212.208,7.87.766,1.36,1.141,1.624,4.046,1.716,7.011l1.246,41.177c.129,4.255.092,8.282-1.751,10.823-2.471,3.407-10.679,3.634-14.625,3.742l-50.209,1.39a3.8,3.8,0,0,0-3.7,3.89c.445,21.138.821,43.164,1.193,65.194s.742,44.082,1.188,65.228c.122,5.477.3,13.752,5.205,19.492,5.072,5.934,12.682,6.9,20.042,7.372l31.627,2.051c3.66.238,7.812.509,11.924-.68a14.865,14.865,0,0,0,10.4-9.512c1.144-3.671.491-7.271-.089-10.444-.183-1-.368-2.01-.486-3.006-.323-2.779.6-5.421,1.582-5.633.119-.026.3-.07.721.279a6.893,6.893,0,0,1,1.872,5.046,32.378,32.378,0,0,1-.777,5.038,27.608,27.608,0,0,0-.806,9.215,15.289,15.289,0,0,0,8.791,11.76,15.5,15.5,0,0,0,6.707,1.572,13.326,13.326,0,0,0,6.981-1.925,3.82,3.82,0,0,0,1.813-3.448Zm-21.8-48.559c-.308,1.137-.613,2.274-.863,3.418-.17.8-.3,1.586-.382,2.355l-.9-10.322c-.424-4.842.579-5.674.825-5.807h.029c.513,0,2.125,1.323,2.36,3.132C-2238.663,1293.571-2239.325,1296.016-2240.028,1298.61Zm-29.869-66.041c.709-.019,1.5-.041,2.349-.078l-.131,6.324-11.835,3.322-.01-9.3Zm-2.9,24.961c-2.378-1.319-4.652-2.567-6.7-3.451l0-4.028,11.659-3.273-.267,13.235C-2269.562,1259.3-2271.183,1258.418-2272.8,1257.529Zm4.515,10.705-.253,12.406a11.732,11.732,0,0,1-.071,1.2,7.5,7.5,0,0,1-1.868.033l-8.988-.572-.026-18.73c.985.52,2,1.07,3.01,1.627A60.059,60.059,0,0,0-2268.281,1268.235Zm-18.8,12.581-8.676-.55c-.527-4.66-.9-9.337-1.186-14.023l9.843.3Zm-.03-21.9-10.177-.308q-.088-2.831-.122-5.659l.249.368,10.036-6.829Zm-9.846-25.6,9.812-.267.009,4.526-.138-.2-10.143,6.907C-2297.344,1240.616-2297.178,1236.964-2296.958,1233.315Zm34.247,148.733c-.52-.026-1.041-.056-1.557-.09l-8.022-.52q.127-6.816.26-12.741l9.78,3.2Zm.821-18.058-9.958-3.251q.078-3.249.16-6.205l10.6-8.152Zm1.24-27.31-.122-.163-10.627,8.174c.112-3.452.223-6.506.332-9.222l.545.944,10.152-5.838Zm.688-15.134-10.753,6.187a123.933,123.933,0,0,1,.991-12.384,10.629,10.629,0,0,1,4.237-.509l5.826.067Zm31.631,63.214a7.826,7.826,0,0,1-4.53-5.837,21.66,21.66,0,0,1,.707-6.736,37.949,37.949,0,0,0,.924-6.246,14.4,14.4,0,0,0-4.57-11.2,8.48,8.48,0,0,0-5.5-2.088,8.2,8.2,0,0,0-1.74.185c-5.878,1.267-8.245,7.985-7.547,13.967.139,1.159.349,2.326.558,3.493.464,2.53.9,4.923.312,6.8-.747,2.4-3.191,3.875-5.232,4.463-.037.011-.078.015-.115.022l3.373-74.208-13.713-.156c-2.523-.034-7.212-.086-10.363,3.262-1.479,1.572-2.879,3.1-4.139,70.463l-15.985-1.036c-5.979-.387-11.6-1.041-14.751-4.719-2.894-3.392-3.251-8.888-3.37-14.7-.449-21.135-.824-43.164-1.2-65.191-.345-20.73-.7-41.458-1.11-61.445l11.727-.323a279.684,279.684,0,0,0,1.646,50.815l.39,3.129,31.6,2.006c.364.026.85.056,1.418.056,2.111,0,5.329-.431,7.254-3.292a9.754,9.754,0,0,0,1.366-5.443l1.007-49.195c4.083-.858,8.126-2.52,10.593-5.919,3.523-4.856,3.33-11.281,3.2-15.531l-1.245-41.173c-.092-3.188-.275-9.118-4.417-12.615-3.571-3.01-10.018-2.865-13.54-2.519-5.942.59-18.188,1.453-28.031,2.148-9.571.672-15.52,1.1-17.136,1.308-3.935.509-4.99.647-3.167,36.539a3.823,3.823,0,0,0,1.762,3.021c3.868,2.46,31.3.881,34.448-1.185a3.8,3.8,0,0,0,1.705-2.857l.772-8.955a3.829,3.829,0,0,0-.486-2.222c-2.225-3.868-7.412-3.218-13.424-2.453-1.186.149-2.389.3-3.556.417a20.392,20.392,0,0,1-.265-4.478c8.639-.851,17.947-1.4,21.744-1.088.219,2.927.333,11.306-1.216,34.912-6.621.227-11.67.457-16.727.688-5.86.268-11.73.535-20.077.8-3.842.119-7.78.059-9.734-2.163-1.739-1.965-1.91-5.48-1.937-9.5l-.282-40.1c-.019-2.969.063-5.763,1.3-7.312,1.423-1.769,4.577-2.047,7.691-2.177,10.931-.464,24.334-.792,37.294-1.108,11.845-.29,24.059-.587,34.459-.992,1.289,9.616,2.441,44.64,3.3,70.883.61,18.466,1.177,35.907,1.811,47.991a3.783,3.783,0,0,0,1.471,2.812,3.79,3.79,0,0,0,3.088.725c1.293-.267,3.154,1.163,4.02,3.117,1.163,2.631,1.146,5.971,1.13,9.3l-.089,15.628c-.023,3.678-.053,7.847-1.751,10.816a5.672,5.672,0,0,1-3.407,2.638,1.957,1.957,0,0,1-1.695-.219c-1.363-.94-1.831-3.88-1.133-7.15.216-1.007.491-2.013.766-3.021.821-3.054,1.757-6.51,1.277-10.2a11.943,11.943,0,0,0-6.194-8.855,7.93,7.93,0,0,0-7.572.108c-5.466,3.121-4.815,10.608-4.6,13.067l2.519,28.96c.3,3.515,1.122,12.856,8.453,15.424a14.988,14.988,0,0,0,6.826.367,8.266,8.266,0,0,1,3.511.022c1.021.438,2.311,2.192,2.611,8.071l1.959,37.928A7.49,7.49,0,0,1-2228.33,1384.76Z" transform="translate(2328.545 -1139.345)" fill="#46b2b5"/>
      <path d="M-2302.812,1184.871c-.164-.011-16.851-.855-18.59,5.2-2.556,8.861-1.571,39.337.19,42.573h0c1.792,3.277,7.586,4.114,12.031,4.114a21.3,21.3,0,0,0,5.217-.5,3.812,3.812,0,0,0,2.594-3.422l1.085-22.041c.111-2.218.312-4.511.52-6.825a89.289,89.289,0,0,0,.468-15.643A3.811,3.811,0,0,0-2302.812,1184.871Zm-6.012,44.3a26.025,26.025,0,0,1-5.652-.672c-.149-1.1-.3-2.832-.435-4.935a50.634,50.634,0,0,0,6.366-.011Zm1.468-25.879c-.212,2.419-.424,4.807-.54,7.123l-.2,3.98c-.093.007-.187,0-.279.007q-3.031.223-6.067.449c-.275.019-.558.049-.835.078-.189-7.8-.049-16.672.876-21.4a34.814,34.814,0,0,1,7.665-1.107C-2306.707,1195.936-2307.038,1199.663-2307.357,1203.3Z" transform="translate(2343.722 -1015.839)" fill="#46b2b5"/>
    </g>
    <g transform="translate(-2333.483 963.699)">
      <path d="M-2260.1,1350.214c-4.324-2.991-40.6-4.024-52.457-1.487-3.722.8-5.874,1.962-6.97,3.776-1.688,2.783-1.569,78.608-1.438,111.078.435,109.614,2.753,111.6,4.615,113.193v0c1.675,1.43,5.08,2.155,11.924,2.155,7.817,0,20.116-.944,39.441-2.872l5.318-.528a3.809,3.809,0,0,0,3.444-3.715C-2251.967,1355.855-2257.254,1352.187-2260.1,1350.214Zm-3.679,218.07-1.961.193c-11.756,1.174-38.387,3.842-45.037,2.545-3.028-18.477-3.248-194.509-1.906-214.38,5.978-1.787,38.1-2.927,47.686-.245C-2262.534,1365.582-2261,1425.456-2263.775,1568.284Z" transform="translate(2367.299 77.997)" fill="#ffaf00"/>
      <path d="M-2279.484,1350.711c-7.327.42-31.538,1.865-35.3,2.932a3.815,3.815,0,0,0-2.772,3.675c0,1.754.223,175.768.037,194.427a3.8,3.8,0,0,0,1.186,2.8,3.811,3.811,0,0,0,2.627,1.048c.074,0,.156,0,.23-.007,7.432-.453,12.11-.91,16.635-1.356,4.443-.434,9.039-.884,16.3-1.33a3.81,3.81,0,0,0,3.578-3.775l1.505-194.576a3.828,3.828,0,0,0-1.182-2.791A3.833,3.833,0,0,0-2279.484,1350.711Zm-5.072,194.81c-5.436.38-9.289.754-13.034,1.122-3.567.353-7.227.713-12.283,1.066.126-29.565-.03-164.345-.06-187.137,5.135-.568,16.067-1.364,26.827-2.014Z" transform="translate(2376.728 87.266)" fill="#ffaf00"/>
      <path d="M-2304.3,1417.46a9.991,9.991,0,0,0,1.151-.063,11.679,11.679,0,0,0,10.159-11.7c-.223-5.432-4.641-10.288-10.278-11.292a3.819,3.819,0,0,0-4.377,2.876,10.84,10.84,0,0,0-4.194,2.322,9.932,9.932,0,0,0-3.5,7.851,10.259,10.259,0,0,0,3.689,7.238A11.374,11.374,0,0,0-2304.3,1417.46Zm-2.486-12.15a2.907,2.907,0,0,1,1.847-.776,1.472,1.472,0,0,1,.294.023,3.863,3.863,0,0,0,3.08-.836,3.938,3.938,0,0,1,.962,2.288,4,4,0,0,1-3.381,3.812,3.7,3.7,0,0,1-2.708-.921,2.666,2.666,0,0,1-1.03-1.791A2.481,2.481,0,0,1-2306.781,1405.31Z" transform="translate(2382.749 205.78)" fill="#ffaf00"/>
      <path d="M-2314.154,1399.054a9.722,9.722,0,0,0,5.269,5.578,8.675,8.675,0,0,0,3.3.643,9.617,9.617,0,0,0,4.526-1.159,9.552,9.552,0,0,0,4.938-6.491,9.847,9.847,0,0,0-2.144-8.123,1.072,1.072,0,0,0-.082-.093,3.786,3.786,0,0,0-1.873-2.805,9.661,9.661,0,0,0-7.679-.788,9.925,9.925,0,0,0-6.031,5.105A10.337,10.337,0,0,0-2314.154,1399.054Zm7.091-4.827a1.949,1.949,0,0,1,.6-.72,3.018,3.018,0,0,0,1.293.208h.008a1.573,1.573,0,0,1,1.014.643,2.224,2.224,0,0,1,.55,1.746,2.039,2.039,0,0,1-1.066,1.289,1.644,1.644,0,0,1-1.338.185,2.2,2.2,0,0,1-1.044-1.259A2.75,2.75,0,0,1-2307.063,1394.227Z" transform="translate(2384.002 181.386)" fill="#ffaf00"/>
      <path d="M-2306.089,1394c.059,0,.115,0,.177,0a8.545,8.545,0,0,0,7.057-3.8,9.126,9.126,0,0,0,.73-8.137,8.722,8.722,0,0,0-5.618-5.436,3.822,3.822,0,0,0-2.5.134,3.785,3.785,0,0,0-2.49-.03,8.746,8.746,0,0,0-5.412,5.666,9.125,9.125,0,0,0,1.039,8.082A8.528,8.528,0,0,0-2306.089,1394Zm-.814-9.215a1.388,1.388,0,0,1,.564-.821c.086-.03.172-.059.253-.093.081.029.163.056.245.078a1.375,1.375,0,0,1,.58.78,1.643,1.643,0,0,1,.014,1.32,1.022,1.022,0,0,1-.809.33.991.991,0,0,1-.819-.3A1.633,1.633,0,0,1-2306.9,1384.786Z" transform="translate(2384.659 157.253)" fill="#ffaf00"/>
      <path d="M-2307.5,1388.308a9.954,9.954,0,0,0,2.162.238,9.462,9.462,0,0,0,5.551-1.761,11.2,11.2,0,0,0,3.177-13.841,11.535,11.535,0,0,0-12.314-6.056,3.815,3.815,0,0,0-3.017,4.47,3.357,3.357,0,0,0,.123.454,9.584,9.584,0,0,0-2.412,3.563,9.84,9.84,0,0,0,.446,8.382A9.511,9.511,0,0,0-2307.5,1388.308Zm.36-10.14a1.544,1.544,0,0,1,.74-.914,3.821,3.821,0,0,0,2.236-1.88,3.372,3.372,0,0,1,.732.969,3.721,3.721,0,0,1-.811,4.258,2.069,2.069,0,0,1-1.626.264,1.9,1.9,0,0,1-1.279-.859A2.3,2.3,0,0,1-2307.139,1378.168Z" transform="translate(2383.802 130.665)" fill="#ffaf00"/>
      <path d="M-2310.149,1375.832a9.346,9.346,0,0,0,4.748,1.334,8.518,8.518,0,0,0,2.913-.512,9.43,9.43,0,0,0,5.354-5.351,9.96,9.96,0,0,0-.082-8.011,9.6,9.6,0,0,0-5.956-5.057,9.339,9.339,0,0,0-7.572.9,3.759,3.759,0,0,0-1.754,2.552,9.539,9.539,0,0,0-2.222,7.513A9.37,9.37,0,0,0-2310.149,1375.832Zm3.541-9.311a1.4,1.4,0,0,1,.876-.51h.027a3.923,3.923,0,0,0,1.112-.078,1.718,1.718,0,0,1,.475.591,2.46,2.46,0,0,1-.06,1.88,1.944,1.944,0,0,1-.933,1.093,1.518,1.518,0,0,1-1.156-.219,1.873,1.873,0,0,1-.92-1.226A1.987,1.987,0,0,1-2306.608,1366.521Z" transform="translate(2384.171 106.579)" fill="#ffaf00"/>
      <path d="M-2328.706,1415.388a3.814,3.814,0,0,0,3.533,4.065c1.679.115,4.3.238,6.926.353,2.549.115,5.1.227,6.733.346.088.007.181.007.271.007a3.806,3.806,0,0,0,3.794-3.492c.52-6.239.464-18.98.4-32.471-.055-12.7-.119-25.838.372-31.731a4.827,4.827,0,0,0-1.579-3.994c-.9-.817-3.608-3.3-17.3-.9a3.814,3.814,0,0,0-3.155,3.793c.23,22.513.453,59.053.115,63.352A4.344,4.344,0,0,0-2328.706,1415.388Zm14.278-61.181c-.349,6.762-.3,18.1-.242,30.026.049,10.519.1,21.331-.163,28.1-.985-.048-2.029-.093-3.077-.141-1.022-.045-2.047-.09-3.013-.137.289-6.934.211-22.242-.138-57.448A44.4,44.4,0,0,1-2314.428,1354.207Z" transform="translate(2346.428 75.982)" fill="#ffaf00"/>
      <path d="M-2306.774,1374.013a3.989,3.989,0,0,0,.112-.672,3.816,3.816,0,0,0-3.534-4.069h-.015c-1.682-.119-4.3-.238-6.917-.356-2.549-.112-5.1-.227-6.733-.342a3.8,3.8,0,0,0-4.065,3.485c-.524,6.227-.46,18.942-.4,32.4.06,12.729.123,25.894-.375,31.8a4.835,4.835,0,0,0,1.586,3.995c.617.561,2.1,1.917,7.453,1.917a58.073,58.073,0,0,0,9.851-1.022,3.808,3.808,0,0,0,3.154-3.79C-2306.885,1414.852-2307.111,1378.315-2306.774,1374.013Zm-14.171,60.5c.353-6.773.3-18.14.238-30.086-.044-10.493-.1-21.28.163-28.034l3.077.141c1.025.044,2.051.089,3.017.137-.291,6.933-.216,22.238.142,57.447A46.542,46.542,0,0,1-2320.945,1434.511Z" transform="translate(2346.428 135.753)" fill="#ffaf00"/>
      <path d="M-2306.774,1396.033a3.752,3.752,0,0,0,.112-.687,3.815,3.815,0,0,0-3.537-4.054c-1.687-.115-4.306-.234-6.929-.353-2.549-.115-5.1-.227-6.736-.346a3.839,3.839,0,0,0-4.062,3.49c-.524,6.227-.46,18.942-.4,32.4.06,12.726.123,25.891-.375,31.795a4.841,4.841,0,0,0,1.586,3.994c1.389,1.271,3.924,1.9,7.584,1.9a57.985,57.985,0,0,0,9.72-1,3.812,3.812,0,0,0,3.154-3.794C-2306.885,1436.875-2307.111,1400.34-2306.774,1396.033Zm-14.171,60.505c.353-6.774.3-18.136.238-30.089-.044-10.489-.1-21.28.163-28.038.985.048,2.03.093,3.077.141,1.03.048,2.058.092,3.032.137-.293,6.937-.227,22.253.127,57.451A45.821,45.821,0,0,1-2320.945,1456.539Z" transform="translate(2346.428 195.572)" fill="#ffaf00"/>
      <path d="M-2302.046,1415.388a3.815,3.815,0,0,0,3.534,4.065c1.683.115,4.306.238,6.929.353,2.549.115,5.1.227,6.733.346.094.007.183.007.272.007a3.805,3.805,0,0,0,3.793-3.492c.528-6.242.465-19,.4-32.5-.06-12.692-.119-25.812.367-31.7a4.826,4.826,0,0,0-1.579-4c-.888-.817-3.608-3.3-17.3-.9a3.813,3.813,0,0,0-3.155,3.793c.23,22.51.458,59.046.119,63.348A4.044,4.044,0,0,0-2302.046,1415.388Zm14.283-61.177c-.349,6.755-.3,18.08-.238,29.988.044,10.53.1,21.357-.163,28.135-.99-.048-2.034-.093-3.081-.141-1.031-.045-2.059-.093-3.029-.137.293-6.945.226-22.261-.127-57.448A46.108,46.108,0,0,1-2287.763,1354.21Z" transform="translate(2418.826 75.982)" fill="#ffaf00"/>
      <path d="M-2280.108,1374.017a4.584,4.584,0,0,0,.108-.681,3.816,3.816,0,0,0-3.534-4.065c-1.683-.119-4.31-.238-6.929-.356-2.549-.112-5.1-.227-6.736-.342a3.8,3.8,0,0,0-4.065,3.485c-.52,6.231-.461,18.961-.4,32.434.055,12.719.119,25.868-.376,31.765a4.847,4.847,0,0,0,1.583,3.994c.616.564,2.1,1.921,7.457,1.921a58.026,58.026,0,0,0,9.85-1.022,3.807,3.807,0,0,0,3.155-3.79C-2280.223,1414.855-2280.45,1378.326-2280.108,1374.017Zm-14.18,60.5c.354-6.766.3-18.118.246-30.06-.048-10.5-.1-21.3.16-28.064l3.08.141c1.025.044,2.055.092,3.028.137-.3,6.94-.227,22.26.126,57.447A44.144,44.144,0,0,1-2294.288,1434.515Z" transform="translate(2418.83 135.753)" fill="#ffaf00"/>
      <path d="M-2280.108,1396.038a4.352,4.352,0,0,0,.108-.7,3.814,3.814,0,0,0-3.538-4.05c-1.679-.115-4.306-.234-6.926-.353-2.553-.115-5.106-.227-6.74-.346a3.843,3.843,0,0,0-4.061,3.49c-.52,6.235-.461,18.96-.4,32.433.055,12.718.119,25.864-.376,31.761a4.841,4.841,0,0,0,1.587,4c.613.565,2.1,1.917,7.45,1.917a57.98,57.98,0,0,0,9.853-1.018,3.811,3.811,0,0,0,3.155-3.794C-2280.223,1436.879-2280.45,1400.347-2280.108,1396.038Zm-14.175,60.5c.349-6.766.293-18.113.241-30.052-.048-10.5-.1-21.305.16-28.071.984.048,2.029.093,3.08.141,1.025.048,2.055.092,3.025.137-.294,6.937-.223,22.249.129,57.447A46.676,46.676,0,0,1-2294.283,1456.535Z" transform="translate(2418.83 195.572)" fill="#ffaf00"/>
      <path d="M-2211.74,1392.246c0-2.314-.424-14.037-.911-27.607-.553-15.375-1.312-36.428-1.214-38.29a3.812,3.812,0,0,0-.929-2.823,3.8,3.8,0,0,0-2.671-1.3c-1.654-.089-4.259-.175-6.856-.257-2.508-.082-5.009-.164-6.6-.245a3.827,3.827,0,0,0-2.865,1.085,3.805,3.805,0,0,0-1.14,2.839c.3,9.526.6,18.046.9,26.582.252,7.253.505,14.52.762,22.424a58.346,58.346,0,0,1-6.922-.064,65.287,65.287,0,0,0-7.688-.063c-.445-7.464-.512-14.413-.572-21.168-.074-8.093-.148-16.464-.869-25.753a3.816,3.816,0,0,0-3.3-3.481c-1.419-.19-3.5-.4-5.57-.6-1.962-.2-3.916-.391-5.257-.569a3.836,3.836,0,0,0-3.047.94,3.816,3.816,0,0,0-1.263,2.928c.753,31.025.847,44.041.776,48.841l-12.593,1.141c-.75-15.687-1.33-46.408-1.333-46.746a3.8,3.8,0,0,0-1.271-2.768,3.779,3.779,0,0,0-2.9-.955l-11.2,1.037a3.809,3.809,0,0,0-3.459,3.831l.45,45.587-9.924.821c.112-6.413.218-14.417.323-22.4.13-9.608.26-19.191.39-25.906a3.805,3.805,0,0,0-1.066-2.716,3.813,3.813,0,0,0-2.675-1.166l-12.448-.231a3.762,3.762,0,0,0-2.794,1.145,3.83,3.83,0,0,0-1.081,2.817c.041.977.137,5.8.275,12.4.2,9.479.471,22.616.753,33.385.592,22.661.592,22.661,4.377,22.877h.008q20.722,1.149,41.577,1.148c22.175,0,44.368-.974,66.346-2.92A3.812,3.812,0,0,0-2211.74,1392.246Zm-107.672-1.861c-.409-8.928-.962-35.317-1.244-48.991-.071-3.392-.134-6.316-.183-8.509l4.66.089c-.1,6.3-.208,14.209-.32,22.138-.129,9.831-.263,19.7-.4,26.57a3.814,3.814,0,0,0,1.2,2.854,3.873,3.873,0,0,0,2.92,1.018l17.657-1.46a3.808,3.808,0,0,0,3.5-3.835l-.45-45.62,3.623-.335c.208,10.04.78,35.641,1.483,46.891a3.813,3.813,0,0,0,1.319,2.657,3.794,3.794,0,0,0,2.827.9l19.708-1.784a3.8,3.8,0,0,0,3.266-2.593c.413-1.223.914-2.739-.186-49.381.356.037.725.071,1.089.108.758.078,1.52.152,2.241.227.5,7.817.568,15.063.627,22.1.079,8.085.149,16.442.87,25.719a3.827,3.827,0,0,0,1.531,2.764,3.819,3.819,0,0,0,3.083.661,38.448,38.448,0,0,1,10.032-.368,44.894,44.894,0,0,0,12.017-.538,3.809,3.809,0,0,0,3-3.842c-.293-9.259-.583-17.568-.872-25.861-.257-7.286-.509-14.562-.769-22.461.847.026,1.728.056,2.615.081,1.063.037,2.125.071,3.122.1.123,5.443.506,16.546,1.178,35.22.349,9.627.677,18.857.828,23.847A746.091,746.091,0,0,1-2319.411,1390.385Z" transform="translate(2346.865 8.562)" fill="#ffaf00"/>
      <path d="M-2313.631,1277.917c4.652,1,13.068,1.449,21.818,1.449,13.447,0,27.686-1.066,30.279-2.861,2.567-1.78,7.914-5.488,3.667-221.2a3.338,3.338,0,0,0-3.017-3.255l-5.351-.528c-36.087-3.6-47.511-3.775-50.971-.825l0,0c-1.693,1.449-4.015,3.433-4.451,112.836-.074,18.009-.342,108,1.372,110.825C-2319.268,1276.055-2317.213,1277.151-2313.631,1277.917Zm1.271-222.227c6.16-1.453,33.473,1.274,45.463,2.467l2.419.242c2.809,144.571,1.214,204.344-1.3,212.711-9.292,2.861-43.049,1.609-48.53-.293C-2315.75,1252.256-2315.592,1072.807-2312.359,1055.689Z" transform="translate(2365.422 -733.035)" fill="#ffaf00"/>
      <path d="M-2315.826,1253.441c3.815,1.081,30,2.62,35.2,2.917.063,0,.125.007.19.007a3.338,3.338,0,0,0,2.3-.921A3.33,3.33,0,0,0-2277.1,1253l-1.5-194.575a3.336,3.336,0,0,0-3.133-3.3c-7.271-.446-11.871-.9-16.318-1.334-4.522-.446-9.2-.9-16.625-1.356a3.432,3.432,0,0,0-2.5.914,3.313,3.313,0,0,0-1.036,2.449c.186,18.663-.03,192.68-.034,194.434A3.328,3.328,0,0,0-2315.826,1253.441Zm4.3-194.119c5.332.372,9.126.743,12.815,1.107,3.842.376,7.8.766,13.463,1.152l1.448,187.91c-11.231-.672-22.732-1.512-27.778-2.1C-2311.55,1225.778-2311.391,1087.973-2311.524,1059.323Z" transform="translate(2374.849 -722.734)" fill="#ffaf00"/>
      <path d="M-2308.425,1078.282a2.947,2.947,0,0,0,.052.431,3.335,3.335,0,0,0,3.269,2.7,3.179,3.179,0,0,0,.643-.063,12.5,12.5,0,0,0,9.828-11.608c.215-5.819-4.221-11.3-9.7-11.964a10.331,10.331,0,0,0-7.866,2.5,10.67,10.67,0,0,0-3.823,7.624,10.482,10.482,0,0,0,3.674,8.249A9.918,9.918,0,0,0-2308.425,1078.282Zm.547-12.923a3.631,3.631,0,0,1,2.742-.963c2.063.249,3.928,2.727,3.843,5.1a5.766,5.766,0,0,1-1.405,3.444,3.348,3.348,0,0,0-2.47-1.1,3.42,3.42,0,0,0-.61.056,2.705,2.705,0,0,1-2.2-.773,3.849,3.849,0,0,1-1.386-2.942A4,4,0,0,1-2307.879,1065.359Z" transform="translate(2380.871 -708.398)" fill="#ffaf00"/>
      <path d="M-2297.757,1074.826a9.082,9.082,0,0,0-4.7-6.167,8.721,8.721,0,0,0-7.42-.5,9.248,9.248,0,0,0-5,5.306,9.84,9.84,0,0,0,.2,7.762,9.423,9.423,0,0,0,5.738,4.853,9.679,9.679,0,0,0,2.835.431,8.909,8.909,0,0,0,4.473-1.178,3.312,3.312,0,0,0,1.65-2.589c.06-.064.112-.127.164-.193A9.365,9.365,0,0,0-2297.757,1074.826Zm-7.188,3.475a1.9,1.9,0,0,1-1.393.81,3.575,3.575,0,0,0-1.353.267,2.544,2.544,0,0,1-.966-1.04,3.224,3.224,0,0,1,.008-2.479,2.62,2.62,0,0,1,1.3-1.524,1.5,1.5,0,0,1,.59-.112,2.508,2.508,0,0,1,1.156.313,2.467,2.467,0,0,1,1.3,1.616A2.68,2.68,0,0,1-2304.946,1078.3Z" transform="translate(2382.123 -681.661)" fill="#ffaf00"/>
      <path d="M-2307.093,1077.09a7.75,7.75,0,0,0-6.785,3.315,8.64,8.64,0,0,0-.977,7.669,8.285,8.285,0,0,0,5.109,5.365,3.3,3.3,0,0,0,2.355-.1,3.308,3.308,0,0,0,1.431.327,3.32,3.32,0,0,0,.918-.134,8.238,8.238,0,0,0,5.3-5.139,8.655,8.655,0,0,0-.684-7.718A8.067,8.067,0,0,0-2307.093,1077.09Zm1.108,8.962a1.728,1.728,0,0,1-.892,1.067,3.4,3.4,0,0,0-.39.138c-.127-.06-.256-.108-.389-.156a1.733,1.733,0,0,1-.867-1.118,2.081,2.081,0,0,1,.094-1.732,1.452,1.452,0,0,1,1.174-.494h.037a1.485,1.485,0,0,1,1.2.55A2.088,2.088,0,0,1-2305.985,1086.052Z" transform="translate(2382.778 -655.79)" fill="#ffaf00"/>
      <path d="M-2301.236,1087.377a9.187,9.187,0,0,0-7.33-1.445,9.031,9.031,0,0,0-5.968,4.314,9.393,9.393,0,0,0-.42,7.985,9.084,9.084,0,0,0,2.526,3.6,3.213,3.213,0,0,0-.211.683,3.334,3.334,0,0,0,2.638,3.909,10.306,10.306,0,0,0,1.991.193,11.055,11.055,0,0,0,9.8-5.985C-2295.963,1096.138-2297.324,1090.193-2301.236,1087.377Zm-2.943,10.27a4.026,4.026,0,0,1-1.353,1.512,3.341,3.341,0,0,0-2.181-2.181,1.949,1.949,0,0,1-1.037-1.2,2.744,2.744,0,0,1,.023-2.252,2.37,2.37,0,0,1,1.59-1.081,2.75,2.75,0,0,1,.62-.07,2.376,2.376,0,0,1,1.383.409A4.19,4.19,0,0,1-2304.179,1097.647Z" transform="translate(2381.923 -632.364)" fill="#ffaf00"/>
      <path d="M-2303.825,1095.733a8.491,8.491,0,0,0-7.242.784,8.877,8.877,0,0,0-4.347,6.291,9.065,9.065,0,0,0,2.192,7.241,3.344,3.344,0,0,0,1.553,2.352,8.6,8.6,0,0,0,4.5,1.245,9.3,9.3,0,0,0,2.686-.4,9.075,9.075,0,0,0,5.661-4.8,9.513,9.513,0,0,0,.074-7.636A8.971,8.971,0,0,0-2303.825,1095.733Zm-1.03,9.887a2.26,2.26,0,0,1-.81.9,3.271,3.271,0,0,0-.917-.13c-.085,0-.171,0-.257.011a1.628,1.628,0,0,1-1.289-.665,2.458,2.458,0,0,1-.695-1.925,2.288,2.288,0,0,1,1.153-1.557,1.907,1.907,0,0,1,1.552-.26,2.356,2.356,0,0,1,1.207,1.356A2.918,2.918,0,0,1-2304.854,1105.62Z" transform="translate(2382.29 -606.444)" fill="#ffaf00"/>
      <path d="M-2326.651,1163.557a57.672,57.672,0,0,0,9.687,1.007c3.5,0,5.916-.6,7.22-1.787a4.388,4.388,0,0,0,1.426-3.6c-.494-5.912-.435-19.043-.372-31.743.064-13.491.119-26.235-.4-32.459a3.345,3.345,0,0,0-3.56-3.047c-1.638.115-4.194.23-6.751.342-2.609.119-5.22.238-6.9.357h-.011a3.335,3.335,0,0,0-3.091,3.56,3.2,3.2,0,0,0,.1.628c.346,4.136.116,40.813-.112,63.429A3.33,3.33,0,0,0-2326.651,1163.557Zm4.051-64.466c1.1-.052,2.3-.108,3.5-.16,1.219-.056,2.433-.108,3.556-.168.285,6.755.238,17.854.186,28.636-.06,12.188-.112,23.758.263,30.435a43.052,43.052,0,0,1-7.614-.424C-2322.344,1120.895-2322.3,1105.69-2322.6,1099.091Z" transform="translate(2344.547 -615.502)" fill="#ffaf00"/>
      <path d="M-2329.019,1107.142c-.06,13.45-.122,26.154.4,32.359a3.333,3.333,0,0,0,3.318,3.059c.077,0,.156,0,.238-.008,1.621-.115,4.135-.227,6.666-.342,2.646-.119,5.3-.238,7-.356a3.334,3.334,0,0,0,3.092-3.556,2.9,2.9,0,0,0-.1-.639c-.349-4.139-.118-40.813.112-63.425a3.331,3.331,0,0,0-2.757-3.318c-8.936-1.568-14.621-1.3-16.906.781a4.351,4.351,0,0,0-1.427,3.608C-2328.9,1081.225-2328.955,1094.4-2329.019,1107.142Zm14.022-30.078c-.366,36.517-.416,51.722-.115,58.317-1.13.055-2.36.111-3.589.167-1.188.055-2.371.108-3.467.16-.282-6.737-.234-17.791-.182-28.532.06-12.231.111-23.85-.264-30.538A42.374,42.374,0,0,1-2315,1077.064Z" transform="translate(2344.55 -675.274)" fill="#ffaf00"/>
      <path d="M-2329.019,1085.113c-.06,13.45-.122,26.155.4,32.359a3.333,3.333,0,0,0,3.318,3.058c.077,0,.156,0,.238-.008,1.621-.112,4.135-.227,6.666-.342,2.646-.119,5.3-.238,7-.357a3.333,3.333,0,0,0,3.092-3.556,2.93,2.93,0,0,0-.1-.639c-.349-4.14-.118-40.809.112-63.422a3.324,3.324,0,0,0-2.757-3.318c-8.936-1.568-14.621-1.3-16.906.777a4.349,4.349,0,0,0-1.427,3.607C-2328.9,1059.2-2328.955,1072.372-2329.019,1085.113Zm14.022-30.078c-.366,36.517-.416,51.722-.115,58.321l-3.589.163c-1.188.056-2.371.108-3.467.16-.282-6.733-.234-17.791-.182-28.532.06-12.232.111-23.851-.264-30.539A41.657,41.657,0,0,1-2315,1055.035Z" transform="translate(2344.55 -735.089)" fill="#ffaf00"/>
      <path d="M-2282.032,1127.4c.067-13.477.124-26.21-.393-32.427a3.342,3.342,0,0,0-3.56-3.047c-1.638.115-4.191.23-6.747.342-2.607.119-5.221.238-6.9.357h-.019a3.336,3.336,0,0,0-3.092,3.56,3.594,3.594,0,0,0,.1.628c.346,4.136.116,40.813-.111,63.429a3.331,3.331,0,0,0,2.757,3.318,57.659,57.659,0,0,0,9.691,1.007c3.5,0,5.912-.6,7.215-1.787a4.389,4.389,0,0,0,1.427-3.608C-2282.15,1153.258-2282.091,1140.112-2282.032,1127.4Zm-14.015,30.015c.364-36.517.412-51.722.107-58.32,1.108-.052,2.308-.108,3.508-.16s2.43-.108,3.548-.168c.29,6.751.235,17.832.183,28.6-.055,12.2-.112,23.787.264,30.469A42.677,42.677,0,0,1-2296.047,1157.412Z" transform="translate(2416.948 -615.502)" fill="#ffaf00"/>
      <path d="M-2284.4,1070.916c-8.929-1.568-14.621-1.308-16.9.781a4.368,4.368,0,0,0-1.427,3.608c.494,5.919.431,19.08.371,31.806-.059,13.465-.122,26.18.4,32.392a3.332,3.332,0,0,0,3.317,3.059c.078,0,.156,0,.239-.008,1.615-.115,4.135-.227,6.662-.342,2.648-.119,5.306-.237,7-.356a3.336,3.336,0,0,0,3.09-3.556,3.237,3.237,0,0,0-.107-.635c-.342-4.131-.115-40.812.115-63.429A3.339,3.339,0,0,0-2284.4,1070.916Zm-4.046,64.466c-1.133.055-2.367.111-3.593.167-1.189.056-2.371.108-3.467.16-.283-6.74-.231-17.809-.182-28.569.059-12.213.115-23.813-.264-30.5a42.817,42.817,0,0,1,7.614.427C-2288.708,1113.583-2288.753,1128.787-2288.448,1135.382Z" transform="translate(2416.952 -675.275)" fill="#ffaf00"/>
      <path d="M-2284.4,1048.892c-8.929-1.572-14.621-1.308-16.9.777a4.367,4.367,0,0,0-1.427,3.608c.494,5.919.431,19.08.371,31.806-.059,13.465-.122,26.184.4,32.393a3.332,3.332,0,0,0,3.317,3.058c.078,0,.156,0,.239-.008,1.615-.111,4.135-.227,6.662-.342,2.648-.119,5.306-.238,7-.356a3.336,3.336,0,0,0,3.09-3.556,3.233,3.233,0,0,0-.107-.636c-.342-4.132-.115-40.812.115-63.426A3.333,3.333,0,0,0-2284.4,1048.892Zm-4.046,64.466-3.593.163c-1.189.056-2.371.108-3.467.16-.283-6.74-.231-17.809-.182-28.565.059-12.217.115-23.817-.264-30.505a42.057,42.057,0,0,1,7.614.427C-2288.708,1091.555-2288.753,1106.759-2288.448,1113.358Z" transform="translate(2416.952 -735.091)" fill="#ffaf00"/>
      <path d="M-2216.034,1116.454a753.912,753.912,0,0,0-107.917-1.769c-3.8.2-3.8.2-4.395,22.9-.28,10.779-.555,23.925-.751,33.4-.137,6.577-.235,11.378-.275,12.351a3.812,3.812,0,0,0,1.081,2.82,4.2,4.2,0,0,0,2.794,1.144l12.447-.226a3.8,3.8,0,0,0,2.672-1.167,3.8,3.8,0,0,0,1.066-2.72c-.13-6.718-.259-16.3-.386-25.92-.107-7.978-.219-15.974-.326-22.383l9.927.821-.449,45.587a3.807,3.807,0,0,0,3.455,3.827l11.2,1.04a3.776,3.776,0,0,0,2.891-.955,3.791,3.791,0,0,0,1.27-2.768c.007-.338.581-31.059,1.339-46.746l12.551,1.133c.112,5.094.007,18.166-.74,48.849a3.8,3.8,0,0,0,1.268,2.928,3.807,3.807,0,0,0,3.046.94c1.356-.178,3.333-.375,5.309-.572,2.06-.2,4.114-.408,5.514-.6a3.81,3.81,0,0,0,3.3-3.482c.725-9.285.8-17.649.877-25.734.059-6.762.122-13.714.573-21.187a65.807,65.807,0,0,0,7.677-.063,58.406,58.406,0,0,1,6.929-.063c-.253,7.788-.5,14.955-.755,22.108-.3,8.639-.6,17.252-.9,26.9a3.81,3.81,0,0,0,1.146,2.839,3.812,3.812,0,0,0,2.668,1.089c.063,0,.13,0,.193-.007,1.605-.082,4.131-.16,6.655-.242,2.578-.085,5.157-.167,6.795-.252a3.844,3.844,0,0,0,2.631-1.293,3.873,3.873,0,0,0,.974-2.787c-.1-1.906.661-22.955,1.212-38.326.49-13.577.91-25.3.91-27.622A3.81,3.81,0,0,0-2216.034,1116.454Zm-5.053,31.14c-.672,18.671-1.058,29.773-1.178,35.213-.98.037-2.02.067-3.064.1-.9.029-1.8.055-2.669.085.257-8.014.517-15.386.773-22.78.286-8.19.572-16.4.867-25.542a3.817,3.817,0,0,0-3-3.842,33.189,33.189,0,0,0-7.167-.691c-1.638,0-3.259.078-4.849.152a38.6,38.6,0,0,1-10.033-.372,3.827,3.827,0,0,0-3.084.665,3.83,3.83,0,0,0-1.528,2.765c-.72,9.281-.8,17.645-.873,25.734-.063,7.03-.126,14.268-.627,22.082-.71.074-1.45.145-2.19.219-.382.037-.765.078-1.144.115,1.1-46.631.6-48.147.2-49.369a3.816,3.816,0,0,0-3.274-2.6l-19.708-1.783a3.86,3.86,0,0,0-2.827.9,3.818,3.818,0,0,0-1.323,2.656c-.7,11.247-1.27,36.851-1.479,46.891l-3.626-.339.449-45.62a3.806,3.806,0,0,0-3.5-3.835l-17.66-1.456a3.911,3.911,0,0,0-2.921,1.018,3.806,3.806,0,0,0-1.2,2.854c.134,6.867.268,16.728.4,26.552.1,7.937.212,15.851.319,22.157l-4.66.085c.048-2.181.108-5.094.183-8.464.282-13.689.836-40.1,1.248-49.031a746.344,746.344,0,0,1,99.965,1.624C-2220.411,1128.731-2220.741,1137.964-2221.087,1147.594Z" transform="translate(2344.637 -556.802)" fill="#ffaf00"/>
      <path d="M-2180.27,1922.79c-.16-302.815-.326-615.942-7-955.356a3.811,3.811,0,0,0-1.185-2.686,3.812,3.812,0,0,0-2.742-1.048l-138.452,4.329a3.814,3.814,0,0,0-3.69,3.823c0,1.464.54,147.187.443,215.762l-.562,426.014c-.185,140.934.569,284.216,1.3,422.782s1.486,281.829,1.3,422.733l-.057,41.768c-.134,102.328-.488,373.665-.565,378.819,0,.06,0,.122,0,.186a3.813,3.813,0,0,0,3.81,3.783h.137c24.742-.339,51.488-.673,78.146-1.007,24.739-.312,49.4-.62,72.351-.929a3.819,3.819,0,0,0,2.689-1.163,3.83,3.83,0,0,0,1.071-2.723C-2179.942,2538.58-2180.111,2225.531-2180.27,1922.79Zm-46.225,883.1a3.815,3.815,0,0,0-3.471-2.236h0l-16.777.022a3.808,3.808,0,0,0-3.542,2.411c-3.7,9.4-3.173,20.485-2.708,30.264.338,7.1.654,13.87-.639,18.868l-53.021-3.648c-1.594-7.576-1.341-31.813.245-44.97a3.822,3.822,0,0,0-.806-2.827,3.8,3.8,0,0,0-2.574-1.412s-7.58-.807-13.941-1.346l.007-6.9,22.471.13c-.371,7.476-.163,14.346.041,21.023a217.845,217.845,0,0,1-.2,24.285,3.811,3.811,0,0,0,2.582,3.9c6.673,2.255,30.966,2.813,33.712,2.872h.077a3.819,3.819,0,0,0,3.34-1.973c1.207-2.2,1.3-6.744,1.019-23.668-.153-9.233-.32-19.5.151-26.169,6.261.3,13.529.044,20.6-.212,6.917-.252,14.022-.5,19.938-.219l.363,46.051a3.794,3.794,0,0,0,1.26,2.8,3.7,3.7,0,0,0,2.91.963c5.417-.51,11.574-1.346,17.519-2.156,5.558-.758,11.273-1.531,16.334-2.033q.082,4.487.167,8.981l-45.367,3.092c-.413-5.113.222-12.987.794-20.094C-2224.954,2818.63-2224.464,2810.37-2226.5,2805.893Zm-6.448-1737.5c.564,6.985,1.241,15.379.7,19.8l-11.112-.015c-2.182-7.409-1.768-16.186-1.364-24.7.439-9.275.855-18.036-2.129-24.78a3.742,3.742,0,0,0-3.746-2.255l-58.439,4.024a3.8,3.8,0,0,0-3.095,1.995c-3.544,6.592-2.683,34.373-1.571,47.456-3.2.32-7.837.769-11.672,1.074-.059-27.154-.133-53.917-.2-75.182h.052c24.977-1.059,44.7-2.133,63.768-3.173s38.795-2.118,63.756-3.173a3.81,3.81,0,0,0,3.649-3.969,3.773,3.773,0,0,0-3.968-3.645c-25.01,1.059-44.755,2.136-63.853,3.177-18.983,1.033-38.616,2.107-63.425,3.158-.009-2.047-.016-4.02-.023-5.934,22.918-1.367,43.5-2.761,63.393-4.106,20.179-1.367,41.046-2.779,64.346-4.169a3.755,3.755,0,0,0,3.426-2.954q.519,27.393.984,54.586a3.77,3.77,0,0,0-2.039-3.244c-7.718-3.89-29.747-2.794-34.087-2.534a3.806,3.806,0,0,0-3.456,2.835C-2234.555,1048.416-2233.771,1058.122-2232.943,1068.4Zm-12.819,121.59a3.9,3.9,0,0,0-3.923-2.783l-33.333,2.2a3.809,3.809,0,0,0-3.559,3.82l.17,39.664a3.8,3.8,0,0,0,3.433,3.775l57.641,5.711a3.814,3.814,0,0,0,2.891-.929,3.818,3.818,0,0,0,1.3-2.745l2.3-77a3.82,3.82,0,0,0-1.037-2.727,3.815,3.815,0,0,0-2.664-1.193l-90.056-2.6a3.972,3.972,0,0,0-2.757,1.066,3.812,3.812,0,0,0-1.163,2.723l-.369,84.423-8.456-.468.074-55.3c.014-12.641.011-27.915-.007-44.406a3.9,3.9,0,0,0,.781.182l110.729,3.363c4.273,68.419,3.507,98.746,1.441,104.558-9.706,1.709-72.51-5.325-81.57-9.167-1.475-4.154-1.5-23.535,1.639-58.848,12.094-1.479,44.691-1.676,52.85.115-.2,6.179-1.184,23.193-1.954,35.781-5.565,1.583-19.455,2.724-27.05.093a3.186,3.186,0,0,1,1.49-2.014c1.3-.517,6.447-.539,9.522-.55a52.4,52.4,0,0,0,7.814-.357,3.814,3.814,0,0,0,3.036-2.968C-2246.23,1211.873-2243.488,1198.182-2245.762,1189.985Zm-13.324,744.205c22.119-4.444,44.992-9.036,67.529-14.547a3.81,3.81,0,0,0,2.8-4.607,3.814,3.814,0,0,0-4.6-2.794c-4.109,1-8.241,1.947-12.374,2.9l-2.645-21.22c6.491-1.357,12.938-2.713,19.266-4.062a3.867,3.867,0,0,0,1.207-.523c.007,11.158.011,22.331.019,33.459,0,5.25.008,10.53.008,15.785a3.757,3.757,0,0,0-2.578-.368c-9.839,2.27-21.937,4.663-33.631,6.978-11.753,2.331-23.907,4.738-33.86,7.027a3.807,3.807,0,0,0-2.95,3.552,3.8,3.8,0,0,0,2.637,3.79c18.059,5.812,44.462,14.706,65.143,24.806a3.8,3.8,0,0,0,1.669.39,3.817,3.817,0,0,0,3.43-2.141,3.655,3.655,0,0,0,.166-.646c.167,270.616.692,550.286,6.106,850.108-5.344.512-11.378,1.33-17.219,2.125-4.388.6-8.888,1.211-13.075,1.69l-.36-45.371a3.818,3.818,0,0,0-3.434-3.76c-6.973-.695-15.821-.364-24.369-.055-8.305.3-16.9.609-23.347-.03a3.824,3.824,0,0,0-4.147,3.229c-1,6.685-.783,19.563-.6,30.922.1,6.324.231,13.855.026,17.809-8.341-.249-19.573-.851-25.322-1.773.428-7.784.213-14.9,0-21.814a217.946,217.946,0,0,1,.2-24.285,3.829,3.829,0,0,0-.994-2.875,3.812,3.812,0,0,0-2.784-1.23l-26.541-.153.033-22.851,112.947-3.429a3.815,3.815,0,0,0,3.685-3.567c6.886-108.129,1.361-112.654-1-114.583-1.259-1.026-4.6-3.768-46.724,1.055-27.711,3.17-43,6.161-45.453,8.9-1.695,1.891-5.666,6.339-.019,67.784a3.811,3.811,0,0,0,3,3.378c6.729,1.426,56.481,3.734,63.028-1.416a4.48,4.48,0,0,0,1.791-3.41c.123-4.088-1.921-37.216-2.151-40.98a3.816,3.816,0,0,0-1.954-3.095c-5.421-3.018-25.7-5.3-36.424-.788a3.177,3.177,0,0,0-.681.372,7.207,7.207,0,0,0-3.027,7,10.558,10.558,0,0,0,6.264,8.4c2.453.973,6.462,1.063,12.3,1.088,1.316,0,2.722.011,3.922.049a63.628,63.628,0,0,1,.9,14.027l-26.34-1.743.145-32.638,50.157-4.975,2.062,69.1-82.341,2.378-.363-84.527a3.81,3.81,0,0,0-1.2-2.757,3.864,3.864,0,0,0-2.821-1.033l-7.409.412a3.84,3.84,0,0,0-2.133-.851l.275-188.649c.189-140.934-.564-284.215-1.293-422.786q-.14-26.4-.278-53.018c6.955,2.571,17.913,6.8,30.719,11.868a3.788,3.788,0,0,0,3.021,1.539,3.772,3.772,0,0,0,.643-.086c34.8,13.822,80.681,32.791,95.321,40.775a3.794,3.794,0,0,0,1.82.468,3.809,3.809,0,0,0,3.347-1.988,3.8,3.8,0,0,0-1.519-5.168c-4.273-2.333-10.994-5.518-19.22-9.2l-4.47-19.782,20.327,8.705a3.809,3.809,0,0,0,1.5.308,3.81,3.81,0,0,0,3.5-2.315,3.809,3.809,0,0,0-2-5l-130.3-55.786C-2301.084,1942.658-2279.759,1938.344-2259.086,1934.19Zm-60.839,5.157,8.13-24.077q4.677-.981,9.4-1.962l-8.331,23.888C-2313.8,1937.887-2316.86,1938.631-2319.925,1939.347Zm67.4-14.253-1.229.246a3.966,3.966,0,0,0-.463-1.015l-13.276-18.221c3.146-.647,6.309-1.293,9.429-1.932,4.53-.929,9.1-1.865,13.678-2.806l-7.96,22.064A3.788,3.788,0,0,0-2252.524,1925.094Zm-9.215,1.858c-1.615.323-3.259.658-4.885.985a4.078,4.078,0,0,0-.335-.546,110.653,110.653,0,0,1-13.83-18.556l5.091-1.048Zm-13.357,2.694q-13.365,2.714-26.9,5.648l8.3-23.8,5.017-1.036A118.366,118.366,0,0,0-2275.1,1929.646Zm51.372-10.512q-10.289,2.2-20.515,4.284l8.6-23.85.976-.2A107.239,107.239,0,0,0-2223.724,1919.134Zm-3.322-21.335c3.738-.773,7.454-1.546,11.176-2.319l2.669,21.361c-.855.189-1.707.368-2.558.557a3.506,3.506,0,0,0-.2-.424A99.437,99.437,0,0,1-2227.046,1897.8Zm39.185,81.881a3.776,3.776,0,0,0-1.917-2.166c-16.416-8.011-36.227-15.245-52.822-20.83,6.462-1.341,13.291-2.694,19.986-4.02,11.757-2.326,23.906-4.734,33.865-7.026a3.741,3.741,0,0,0,.869-.394C-2187.872,1956.718-2187.865,1968.173-2187.861,1979.681Zm-33.953,681.095a3.814,3.814,0,0,0-1.294-2.75,3.828,3.828,0,0,0-2.894-.929l-57.632,5.715a3.806,3.806,0,0,0-3.437,3.775l-.176,39.657a3.814,3.814,0,0,0,3.56,3.823l33.338,2.2a3.959,3.959,0,0,0,3.919-2.786c2.278-8.2-.468-21.885-.788-23.419a3.814,3.814,0,0,0-3.035-2.969,52.935,52.935,0,0,0-7.811-.353c-3.076-.015-8.222-.037-9.522-.551a3.184,3.184,0,0,1-1.49-2.018c7.6-2.627,21.481-1.493,27.046.093.769,12.589,1.755,29.6,1.955,35.785-8.167,1.787-40.757,1.594-52.844.112-3.2-35.789-3.125-55.214-1.739-58.811,8.732-3.831,71.937-10.891,81.662-9.2,2.066,5.807,2.831,36.127-1.439,104.55l-109.235,3.318.145-99.612,5.97-.334.365,84.423a3.824,3.824,0,0,0,1.163,2.724,3.936,3.936,0,0,0,2.758,1.07l90.054-2.6a3.789,3.789,0,0,0,2.664-1.2,3.8,3.8,0,0,0,1.037-2.724Zm-103.143-706.012,3.553,1.52,4.265,21.8c-3.028-1.145-5.623-2.111-7.714-2.865Q-2324.908,1965.011-2324.956,1954.763Zm64.325,45.661c-7.183-2.928-14.32-5.808-21.157-8.535l18.3-10.809,19.3,8.264Zm24.779-7.513,12.058,5.165,4.44,19.659c-9.917-4.317-21.246-9.081-32.8-13.837Zm-54.894-4.584-4.552-1.795,17.174-11.719,5.953,2.549Zm-13.146-5.154c-1.682-.657-3.291-1.278-4.856-1.883l-4.179-21.376,26.495,11.344Zm-21.182-52.4c-.023-4.218-.042-8.461-.06-12.69q2.343-.49,4.679-.988Zm137.162-47.872a3.768,3.768,0,0,0-2.795-.5c-7.2,1.535-14.568,3.08-21.973,4.626a3.718,3.718,0,0,0-.406-.026,3.474,3.474,0,0,0-.889.3c-15.152,3.158-30.541,6.312-45.616,9.4-21.766,4.458-44.2,9.062-65.581,13.6-.461-98.438-.791-198.117-.661-296.666l.476-362.5.783.309a3.819,3.819,0,0,0,3.864-.632l7.4.412a3.8,3.8,0,0,0,2.823-1.033,3.8,3.8,0,0,0,1.2-2.757l.366-84.526,82.343,2.378-2.066,69.1-50.161-4.968-.14-32.649,26.343-1.739a63.51,63.51,0,0,1-.9,14.03c-1.2.034-2.608.041-3.927.049-5.838.026-9.847.111-12.3,1.088a10.582,10.582,0,0,0-6.265,8.4,7.216,7.216,0,0,0,3.036,7,3.743,3.743,0,0,0,.676.368c10.716,4.5,31,2.229,36.427-.791a3.793,3.793,0,0,0,1.951-3.092c.233-3.763,2.277-36.889,2.151-40.98a4.469,4.469,0,0,0-1.786-3.407c-6.555-5.142-56.307-2.843-63.029-1.419a3.816,3.816,0,0,0-3.006,3.381c-5.633,61.457-1.672,65.889.019,67.784,2.452,2.735,17.742,5.73,45.457,8.9,18.329,2.1,29.313,2.761,35.978,2.761,8.661,0,10.036-1.122,10.746-1.706,2.358-1.932,7.883-6.462,1-114.582a3.814,3.814,0,0,0-3.69-3.567l-114.2-3.47a3.472,3.472,0,0,0-1.019.156c-.011-7.5-.022-15.189-.037-22.973l28.819-.145a3.839,3.839,0,0,0,2.783-1.23,3.818,3.818,0,0,0,.993-2.876,218.724,218.724,0,0,1-.2-24.289c.209-6.911.428-14.03,0-21.814,5.745-.917,16.981-1.519,25.323-1.769.2,3.954.079,11.482-.03,17.809-.186,11.362-.4,24.236.6,30.921a3.838,3.838,0,0,0,4.15,3.229c6.45-.646,15.041-.335,23.349-.03,4.8.175,9.69.353,14.29.353,3.6,0,7.014-.112,10.073-.412a3.814,3.814,0,0,0,3.434-3.76l.364-45.312a22.7,22.7,0,0,1,3.683.866,38.976,38.976,0,0,0,9.364,1.668,3.819,3.819,0,0,0,4.15-3.433,3.81,3.81,0,0,0-3.433-4.154,32.43,32.43,0,0,1-7.826-1.36,38.84,38.84,0,0,0-9.356-1.668,3.828,3.828,0,0,0-2.909.962,3.8,3.8,0,0,0-1.26,2.8l-.367,46.055c-5.918.29-13.024.033-19.931-.219-7.067-.257-14.335-.52-20.6-.212-.472-6.666-.306-16.932-.153-26.165.279-16.925.19-21.472-1.022-23.672a3.761,3.761,0,0,0-3.411-1.966c-2.753.056-27.046.613-33.719,2.869a3.814,3.814,0,0,0-2.58,3.905,218.618,218.618,0,0,1,.2,24.282c-.206,6.677-.417,13.547-.041,21.022l-24.754.127-.01-6.707c6.654-.509,16.222-1.531,16.222-1.531a3.809,3.809,0,0,0,2.583-1.416,3.82,3.82,0,0,0,.8-2.828c-1.583-13.15-1.846-37.383-.245-44.966l53.021-3.652c1.3,5,.977,11.771.639,18.875-.464,9.784-.988,20.867,2.712,30.264a3.809,3.809,0,0,0,3.542,2.412l16.776.023h0a3.8,3.8,0,0,0,3.467-2.237c2.033-4.477,1.539-12.734.484-25.8-.588-7.29-1.242-15.387-.765-20.488,9.445-.383,23.077-.182,27.183,1.883a3.808,3.808,0,0,0,5.116-1.69,3.667,3.667,0,0,0,.357-1.3C-2188.452,1340.787-2188.066,1616.1-2187.913,1882.9Zm-6.9-911.464c.115,5.968.215,11.868.327,17.817a3.748,3.748,0,0,0-3.842-2.88c-23.338,1.39-44.22,2.805-64.41,4.169-19.764,1.338-40.189,2.72-62.9,4.083-.029-8.643-.052-15.279-.066-19.1Zm-54.673,1903.63c-25.31.319-50.685.636-74.364.955l.1-67.356c3.281.282,6.8.624,9.379.884-1.111,13.087-1.967,40.872,1.575,47.456a3.823,3.823,0,0,0,3.094,2l58.439,4.024c.09,0,.176.007.264.007a3.807,3.807,0,0,0,3.481-2.27c2.984-6.74,2.568-15.5,2.13-24.772-.41-8.516-.821-17.289,1.363-24.7l11.11-.015c.542,4.421-.133,12.815-.7,19.8-.828,10.273-1.613,19.972-.1,25.716a3.873,3.873,0,0,0,3.946,2.835l48.467-3.3c.11,5.963.211,11.878.326,17.861C-2202.819,2874.487-2226.121,2874.776-2249.481,2875.07Z" transform="translate(2333.482 -963.699)" fill="#ffaf00"/>
    </g>
  </g>
</svg>
