<svg id="recetas_tribu" xmlns="http://www.w3.org/2000/svg" width="764.054" height="204.312" viewBox="0 0 764.054 204.312">
  <path id="Trazado_104" data-name="Trazado 104" d="M1352.477,655.6a.923.923,0,0,1-.677-.3l-37.531-39.255a.964.964,0,0,1,.031-1.363l5.344-5.105a.948.948,0,0,1,1.361.031l32.366,33.851a.356.356,0,0,0,.57.013l12.543-11.991a.954.954,0,0,1,1.36.031l4.222,4.411a.933.933,0,0,1,.27.689.943.943,0,0,1-.3.676l-18.874,18.043A.922.922,0,0,1,1352.477,655.6Z" transform="translate(-1314.002 -459.013)" fill="#ffaf00"/>
  <path id="Trazado_105" data-name="Trazado 105" d="M1372.889,637.3l-6.508-5.58c-.171-.21-.381-.213-.627-.008l-9.1,7.4c-.249.2-.288.409-.122.617l4.141,7.51a.9.9,0,0,1-.251,1.34l-5.67,4.616c-.585.474-1.031.389-1.348-.251l-25.053-49.629a.965.965,0,0,1,.254-1.348l6.6-5.375a.965.965,0,0,1,1.368.028l43.5,34.621.2.249q.455.56-.228,1.117l-5.8,4.717A.9.9,0,0,1,1372.889,637.3Zm-19.79-4.717,6.917-5.629c.249-.2.27-.391.057-.565l-19.636-16.752c-.145-.088-.257-.1-.34-.034s-.1.184-.033.337l12.471,22.586C1352.664,632.764,1352.851,632.785,1353.1,632.581Z" transform="translate(-1291.427 -479.676)" fill="#ffaf00"/>
  <path id="Trazado_106" data-name="Trazado 106" d="M1367.67,639.873a14.086,14.086,0,0,1-9.382-6.285l-1.2-1.716a.963.963,0,0,1,.241-1.342l5.995-4.18a.931.931,0,0,1,.72-.166.949.949,0,0,1,.622.4l.92,1.317a7.786,7.786,0,0,0,4.18,3.255,4.994,4.994,0,0,0,4.431-.741,5.24,5.24,0,0,0,2.322-3.83,6.909,6.909,0,0,0-1.417-4.838,7.1,7.1,0,0,0-2.794-2.459,11.226,11.226,0,0,0-3.7-.943q-2.1-.2-6.471-.285a72.387,72.387,0,0,1-8.247-.513,19.36,19.36,0,0,1-6.463-2.1,15.705,15.705,0,0,1-5.559-5.082q-3.817-5.474-2.778-11t6.443-9.3a14.483,14.483,0,0,1,11.2-2.771q5.726,1.046,9.635,6.647l1.106,1.578a.959.959,0,0,1-.239,1.342L1361.31,601a.954.954,0,0,1-1.342-.238l-1.195-1.713a7.6,7.6,0,0,0-4.162-3.219,5.116,5.116,0,0,0-4.47.822,5.008,5.008,0,0,0-2.242,3.667,6.971,6.971,0,0,0,1.488,4.8,7.49,7.49,0,0,0,4.154,3.076,38.69,38.69,0,0,0,8.477.84,92.847,92.847,0,0,1,9.438.612,17.412,17.412,0,0,1,6.038,1.907,14.451,14.451,0,0,1,4.844,4.556q3.91,5.6,2.918,11.336A14.476,14.476,0,0,1,1378.8,637,14.737,14.737,0,0,1,1367.67,639.873Z" transform="translate(-1274.414 -494.395)" fill="#ffaf00"/>
  <path id="Trazado_107" data-name="Trazado 107" d="M1401.677,623.13l-16.949-17.055a.476.476,0,0,0-.508-.091L1380.472,608a.357.357,0,0,0-.166.544l10.825,20.088a.92.92,0,0,1,.08.733.934.934,0,0,1-.469.57l-6.508,3.509a.91.91,0,0,1-.733.073.926.926,0,0,1-.573-.464l-25.763-47.812a.917.917,0,0,1-.078-.733.946.946,0,0,1,.466-.575l13.3-7.161a13.409,13.409,0,0,1,14.785.928,19.442,19.442,0,0,1,5.65,6.676,18.049,18.049,0,0,1,2.381,8.485,12.9,12.9,0,0,1-2.148,7.36c-.163.148-.158.329.015.542l18.406,17.553a.859.859,0,0,1,.259.311c.231.425.083.777-.433,1.057l-6.79,3.659A1,1,0,0,1,1401.677,623.13Zm-32.763-35.73,7.585,14.078a.352.352,0,0,0,.542.161l4.315-2.325a5.747,5.747,0,0,0,3.071-4.209,9.5,9.5,0,0,0-1.306-6.233,9.663,9.663,0,0,0-4.507-4.556,5.706,5.706,0,0,0-5.222.218l-4.315,2.319A.359.359,0,0,0,1368.914,587.4Z" transform="translate(-1245.494 -513.632)" fill="#ffaf00"/>
  <path id="Trazado_108" data-name="Trazado 108" d="M1399.8,573.684a.914.914,0,0,1-.513.534l-15.871,7.013a.359.359,0,0,0-.207.531l6.137,13.888a.355.355,0,0,0,.531.2l9.407-4.157a.967.967,0,0,1,1.27.492l2.5,5.66a.917.917,0,0,1,.016.739.933.933,0,0,1-.511.534l-9.4,4.154a.354.354,0,0,0-.2.529l6.168,13.966a.357.357,0,0,0,.531.2l15.871-7.013a.962.962,0,0,1,1.272.492l2.467,5.585a.956.956,0,0,1-.493,1.27l-23.881,10.553a.964.964,0,0,1-1.272-.49l-21.951-49.678a.961.961,0,0,1,.5-1.273l23.881-10.553a.962.962,0,0,1,1.27.5l2.467,5.582A.939.939,0,0,1,1399.8,573.684Z" transform="translate(-1222.36 -526.687)" fill="#ffaf00"/>
  <path id="Trazado_109" data-name="Trazado 109" d="M1404.576,617.56q-5.279-2.531-7.544-8.967l-9.094-25.843q-2.293-6.523.262-11.717t9-7.469q6.516-2.293,11.8.148t7.583,8.957l.322.91a1.082,1.082,0,0,1-.026.775.875.875,0,0,1-.536.529l-6.94,2.786a.855.855,0,0,1-1.231-.591l-.668-1.894a6.55,6.55,0,0,0-3.035-3.789,5.467,5.467,0,0,0-4.6-.249,5.368,5.368,0,0,0-3.354,3.05,6.543,6.543,0,0,0,.005,4.852l9.55,27.134a6.514,6.514,0,0,0,3.035,3.784,5.376,5.376,0,0,0,4.528.283,5.471,5.471,0,0,0,3.429-3.082,6.563,6.563,0,0,0-.005-4.854l-.666-1.892a.963.963,0,0,1,.591-1.234l7.15-2.174a.927.927,0,0,1,.739.039.939.939,0,0,1,.5.552l.318.907q2.266,6.437-.3,11.732t-9.086,7.58Q1409.854,620.093,1404.576,617.56Z" transform="translate(-1198.053 -533.576)" fill="#ffaf00"/>
  <path id="Trazado_110" data-name="Trazado 110" d="M1429.853,564.384a.928.928,0,0,1-.585.451l-16.762,4.481a.356.356,0,0,0-.288.492l3.923,14.668a.356.356,0,0,0,.5.285l9.934-2.659a.957.957,0,0,1,.733.1.927.927,0,0,1,.446.588l1.6,5.976a.948.948,0,0,1-.1.731.93.93,0,0,1-.588.448l-9.934,2.656a.356.356,0,0,0-.285.492l3.944,14.749a.353.353,0,0,0,.493.28l16.76-4.481a.964.964,0,0,1,1.185.682l1.576,5.9a.921.921,0,0,1-.093.728.931.931,0,0,1-.589.451l-25.224,6.746a.924.924,0,0,1-.731-.1.936.936,0,0,1-.448-.586L1401.286,565a.924.924,0,0,1,.1-.733.937.937,0,0,1,.585-.446l25.224-6.743a.953.953,0,0,1,1.181.679l1.576,5.9A.9.9,0,0,1,1429.853,564.384Z" transform="translate(-1175.139 -542.199)" fill="#ffaf00"/>
  <path id="Trazado_111" data-name="Trazado 111" d="M1446.324,554a.942.942,0,0,1,.407.619l1.171,5.992a.959.959,0,0,1-.762,1.133l-10.014,1.951a.359.359,0,0,0-.316.474l8.977,45.97a.932.932,0,0,1-.145.726.946.946,0,0,1-.614.407l-7.254,1.415a.954.954,0,0,1-.726-.145.926.926,0,0,1-.407-.617l-8.978-45.967a.357.357,0,0,0-.474-.319l-9.459,1.845a.93.93,0,0,1-.726-.142.941.941,0,0,1-.407-.617l-1.169-5.992a.961.961,0,0,1,.759-1.13l29.415-5.743A.919.919,0,0,1,1446.324,554Z" transform="translate(-1152.604 -547.283)" fill="#ffaf00"/>
  <path id="Trazado_112" data-name="Trazado 112" d="M1456.566,607.15l-2.488-8.2c-.031-.267-.207-.381-.526-.345l-11.652,1.358c-.322.034-.464.187-.433.453l-.542,8.555a.906.906,0,0,1-.936,1l-7.264.845c-.746.086-1.075-.223-1-.935l5.538-55.318a.969.969,0,0,1,.938-1l8.457-.982a.966.966,0,0,1,1.143.754l18.082,52.575.036.319c.057.477-.21.754-.8.821l-7.422.86A.9.9,0,0,1,1456.566,607.15Zm-14.153-14.611,8.858-1.029c.319-.036.436-.184.35-.446l-7.56-24.68c-.073-.15-.161-.223-.267-.212s-.176.1-.21.27l-1.617,25.747C1441.944,592.458,1442.091,592.577,1442.413,592.538Z" transform="translate(-1126.649 -549.317)" fill="#ffaf00"/>
  <path id="Trazado_113" data-name="Trazado 113" d="M1451.32,605.228a14.057,14.057,0,0,1-4.543-10.335l-.091-2.089a.961.961,0,0,1,.923-1l7.306-.313a.956.956,0,0,1,1,.92l.067,1.6a7.785,7.785,0,0,0,1.78,4.991,5.012,5.012,0,0,0,4.136,1.755,5.25,5.25,0,0,0,4.02-1.983,6.952,6.952,0,0,0,1.4-4.846,7.153,7.153,0,0,0-1.039-3.571,11.3,11.3,0,0,0-2.615-2.783q-1.66-1.295-5.3-3.714a71.3,71.3,0,0,1-6.681-4.859,19.4,19.4,0,0,1-4.325-5.243,15.752,15.752,0,0,1-1.959-7.277q-.288-6.659,3.558-10.763t10.429-4.388A14.486,14.486,0,0,1,1470.319,555q4.269,3.961,4.561,10.781l.083,1.928a.961.961,0,0,1-.923,1l-7.225.308a.957.957,0,0,1-1-.923l-.093-2.086a7.6,7.6,0,0,0-1.778-4.95,5.111,5.111,0,0,0-4.214-1.708,5.006,5.006,0,0,0-3.856,1.892,6.984,6.984,0,0,0-1.324,4.846,7.461,7.461,0,0,0,1.856,4.823,38.238,38.238,0,0,0,6.7,5.261,93.26,93.26,0,0,1,7.635,5.585,17.385,17.385,0,0,1,4.066,4.851,14.358,14.358,0,0,1,1.643,6.445q.3,6.823-3.623,11.128a14.465,14.465,0,0,1-10.579,4.592A14.689,14.689,0,0,1,1451.32,605.228Z" transform="translate(-1104.901 -551.311)" fill="#ffaf00"/>
  <path id="Trazado_114" data-name="Trazado 114" d="M1467.7,607.3a.923.923,0,0,1-.231-.7l3.97-54.161a.93.93,0,0,1,.332-.661.942.942,0,0,1,.7-.233l13.7,1.011q6.889.506,10.708,4.971t3.312,11.442l-1.868,25.478q-.513,6.97-4.945,10.833t-11.323,3.359l-13.7-1A.91.91,0,0,1,1467.7,607.3Zm9.98-7.041,4.815.27a5.179,5.179,0,0,0,4.442-1.809,9.382,9.382,0,0,0,2.138-5.523l1.783-24.356a9.167,9.167,0,0,0-1.218-5.849,5.348,5.348,0,0,0-4.294-2.449l-4.727-.347a.355.355,0,0,0-.43.371l-2.88,39.262A.356.356,0,0,0,1477.679,600.258Z" transform="translate(-1069.752 -550.954)" fill="#ffaf00"/>
  <path id="Trazado_115" data-name="Trazado 115" d="M1516.957,564.725a.928.928,0,0,1-.715.176l-17.156-2.62a.353.353,0,0,0-.459.334l-2.294,15.013a.362.362,0,0,0,.337.459l10.167,1.55a.962.962,0,0,1,.809,1.1l-.933,6.114a.94.94,0,0,1-.381.635.928.928,0,0,1-.721.174l-10.164-1.555a.358.358,0,0,0-.456.34l-2.306,15.086a.357.357,0,0,0,.337.461l17.154,2.62a.962.962,0,0,1,.808,1.1l-.923,6.033a.92.92,0,0,1-.381.635.941.941,0,0,1-.718.174l-25.812-3.942a.933.933,0,0,1-.632-.384.913.913,0,0,1-.171-.715l8.2-53.687a.93.93,0,0,1,.381-.63.919.919,0,0,1,.718-.174l25.812,3.939a.952.952,0,0,1,.63.381.936.936,0,0,1,.176.718l-.923,6.036A.934.934,0,0,1,1516.957,564.725Z" transform="translate(-1046.089 -548.614)" fill="#ffaf00"/>
  <path id="Trazado_116" data-name="Trazado 116" d="M1502.891,611.158a.951.951,0,0,1-.1-.736l14.132-52.441a.945.945,0,0,1,.448-.586.958.958,0,0,1,.736-.093l7.135,1.923a.946.946,0,0,1,.586.448.922.922,0,0,1,.093.733l-12.186,45.226a.354.354,0,0,0,.283.492l16.757,4.512a.966.966,0,0,1,.679,1.184l-1.589,5.9a.955.955,0,0,1-1.179.676l-25.214-6.8A.91.91,0,0,1,1502.891,611.158Z" transform="translate(-1013.576 -541.832)" fill="#ffaf00"/>
  <path id="Trazado_117" data-name="Trazado 117" d="M1538.772,619l1.4-8.456c.091-.251-.013-.433-.321-.542l-11.043-3.947q-.454-.163-.591.218l-4.274,7.428a.9.9,0,0,1-1.28.482l-6.886-2.459c-.7-.254-.865-.679-.479-1.283l29.471-47.141a.96.96,0,0,1,1.278-.482l8.021,2.869a.96.96,0,0,1,.684,1.184l-7.078,55.141-.106.3c-.163.451-.521.581-1.075.381l-7.036-2.514A.9.9,0,0,1,1538.772,619Zm-6.217-19.37,8.4,3c.3.109.474.028.513-.244l4.157-25.473c0-.171-.046-.275-.148-.308s-.2.01-.308.143l-12.854,22.368C1532.174,599.356,1532.255,599.529,1532.555,599.635Z" transform="translate(-993.943 -533.121)" fill="#ffaf00"/>
  <path id="Trazado_118" data-name="Trazado 118" d="M1582.211,583.93a.922.922,0,0,1-.049.736l-2.7,5.474a.958.958,0,0,1-1.291.435l-9.148-4.515a.357.357,0,0,0-.539.184l-20.733,42a.923.923,0,0,1-.554.484.933.933,0,0,1-.736-.049l-6.627-3.271a.967.967,0,0,1-.441-1.291l20.733-42a.355.355,0,0,0-.181-.539l-8.646-4.268a.944.944,0,0,1-.49-.557.929.929,0,0,1,.052-.733l2.7-5.476a.949.949,0,0,1,.555-.49.934.934,0,0,1,.736.052l26.87,13.264A.93.93,0,0,1,1582.211,583.93Z" transform="translate(-955.439 -521.559)" fill="#ffaf00"/>
  <path id="Trazado_119" data-name="Trazado 119" d="M1567.36,635.822l5.93-23.3a.469.469,0,0,0-.179-.482l-3.659-2.18a.354.354,0,0,0-.549.14l-11.675,19.6a.943.943,0,0,1-.594.443.933.933,0,0,1-.731-.109l-6.349-3.778a.934.934,0,0,1-.443-.594.911.911,0,0,1,.109-.731l27.79-46.661a.919.919,0,0,1,.591-.44.93.93,0,0,1,.731.106l12.979,7.728a13.831,13.831,0,0,1,5.4,5.606,13.686,13.686,0,0,1,1.389,7.56,19.454,19.454,0,0,1-2.828,8.278,17.977,17.977,0,0,1-6.054,6.4,12.917,12.917,0,0,1-7.42,1.938c-.213-.065-.363.031-.453.29l-5.611,24.8a.905.905,0,0,1-.135.389c-.246.41-.624.467-1.13.168l-6.627-3.947A1.008,1.008,0,0,1,1567.36,635.822Zm13.831-46.464-8.179,13.738a.352.352,0,0,0,.14.549l4.209,2.511a5.753,5.753,0,0,0,5.188.469,9.473,9.473,0,0,0,4.678-4.323,9.619,9.619,0,0,0,1.591-6.2,5.714,5.714,0,0,0-2.864-4.375l-4.211-2.506A.356.356,0,0,0,1581.191,589.358Z" transform="translate(-939.859 -509.315)" fill="#ffaf00"/>
  <path id="Trazado_120" data-name="Trazado 120" d="M1561.7,632.224a.9.9,0,0,1,.153-.72l30.534-44.912a.965.965,0,0,1,1.342-.257l6.109,4.157a.963.963,0,0,1,.259,1.342l-30.539,44.91a.942.942,0,0,1-.617.4.922.922,0,0,1-.723-.156l-6.111-4.152A.918.918,0,0,1,1561.7,632.224Z" transform="translate(-919.809 -495.84)" fill="#ffaf00"/>
  <path id="Trazado_121" data-name="Trazado 121" d="M1590.724,648.147q-5.859.556-11.328-3.664l-11.193-8.64a.915.915,0,0,1-.371-.638.942.942,0,0,1,.194-.713l33.175-43a.934.934,0,0,1,.643-.368.911.911,0,0,1,.712.192l10.05,7.757q6.037,4.661,7.122,10.364t-3.439,11.556q-5.05,6.55-11.856,5.766c-.311-.036-.451.06-.42.285a13.961,13.961,0,0,1,.591,7.254,17.049,17.049,0,0,1-3.509,7.438Q1596.582,647.592,1590.724,648.147Zm-1.56-9.221a9.747,9.747,0,0,0,5.341-3.9,10.423,10.423,0,0,0,2.535-6.313,6.063,6.063,0,0,0-2.561-4.968l-3.688-2.848a.354.354,0,0,0-.562.073l-10.211,13.23a.358.358,0,0,0,.075.565l3.688,2.848A6.205,6.205,0,0,0,1589.163,638.926Zm14.852-35.823-9.125,11.831a.348.348,0,0,0,.073.56l3.242,2.506a6.645,6.645,0,0,0,5.3,1.552,8.121,8.121,0,0,0,4.945-3.39,8.7,8.7,0,0,0,2.171-5.834,6.52,6.52,0,0,0-2.8-4.8l-3.245-2.5A.353.353,0,0,0,1604.016,603.1Z" transform="translate(-910.023 -487.959)" fill="#ffaf00"/>
  <path id="Trazado_122" data-name="Trazado 122" d="M1581.32,642.435q-.058-6.08,4.859-11.491l26.7-29.363a.927.927,0,0,1,.668-.316.938.938,0,0,1,.692.249l5.468,4.973a.956.956,0,0,1,.319.671.93.93,0,0,1-.254.692l-27.349,30.075a8.1,8.1,0,0,0-2.325,4.945,5.514,5.514,0,0,0,6.3,5.73,8.117,8.117,0,0,0,4.7-2.783l27.349-30.075a.919.919,0,0,1,.669-.316.932.932,0,0,1,.692.254l5.471,4.971a.941.941,0,0,1,.316.666.956.956,0,0,1-.254.7l-26.7,29.363q-4.917,5.407-11.009,5.893a15.866,15.866,0,0,1-16.316-14.834Z" transform="translate(-888.543 -471.807)" fill="#ffaf00"/>
  <path id="Trazado_123" data-name="Trazado 123" d="M1591.527,651.168a5.555,5.555,0,0,1,1.833-4,5.408,5.408,0,0,1,4.035-1.661,5.624,5.624,0,0,1,3.973,1.858,5.364,5.364,0,0,1-.14,7.954,5.572,5.572,0,0,1-4.064,1.687,5.436,5.436,0,0,1-3.944-1.775A5.546,5.546,0,0,1,1591.527,651.168Zm12.995-11.7a.931.931,0,0,1,.3-.682l24.765-25.239a.951.951,0,0,1,.689-.272.929.929,0,0,1,.674.3l5.134,5.315a.967.967,0,0,1-.023,1.368l-26.051,23.907a.964.964,0,0,1-1.363-.021l-3.848-3.988A.922.922,0,0,1,1604.522,639.467Z" transform="translate(-872.298 -452.693)" fill="#ffaf00"/>
</svg>
