<svg id="twitter" xmlns="http://www.w3.org/2000/svg" width="67.338" height="67.338" viewBox="0 0 67.338 67.338">
  <g id="Elipse_3" data-name="Elipse 3" fill="#fde0ee" stroke="#46b2b5" stroke-width="4">
    <circle cx="33.669" cy="33.669" r="33.669" stroke="none"/>
    <circle cx="33.669" cy="33.669" r="31.669" fill="none"/>
  </g>
  <path id="Trazado_557" data-name="Trazado 557" d="M232.741,486.75c-1.353.074-2.706.138-4.058.22-.046,0-.1.012-.161.017a1.164,1.164,0,0,1-.22-.165,11.436,11.436,0,0,0-1.846-1.605,4.882,4.882,0,0,0-3.244-.989,5.834,5.834,0,0,0-5.4,4.144,8.87,8.87,0,0,0-.078,3.684,23.964,23.964,0,0,1-2.428-1.336,20.889,20.889,0,0,1-4.368-3.41.974.974,0,0,0-1.519.2,6.709,6.709,0,0,0-.1,5.716,7.878,7.878,0,0,1-1.136-.179A.978.978,0,0,0,207,494.231a13.071,13.071,0,0,0,.9,2.9c-.252-.055-.5-.115-.751-.186a.975.975,0,0,0-1.19,1.189,8.692,8.692,0,0,0,4.62,5.194,36.652,36.652,0,0,1-4.209,2.434c-1.3.693-2.606,1.363-3.933,1.994a.977.977,0,0,0,.231,1.767c5.115,1.614,10.726,3.389,16.125,2.521a14.9,14.9,0,0,0,12.381-11.368,12.036,12.036,0,0,0-.635-7.438l3.038-5.033A.974.974,0,0,0,232.741,486.75Zm-3.677,7.944a9.026,9.026,0,0,1,.436,1.941,11.518,11.518,0,0,1-.361,4.231,12.566,12.566,0,0,1-5.522,7.4,15.73,15.73,0,0,1-11.019,1.789,68.3,68.3,0,0,1-7.054-1.68q1.006-.513,2-1.049a24.881,24.881,0,0,0,5.648-3.663.975.975,0,0,0-.426-1.617,6.746,6.746,0,0,1-4.142-2.8c.394.08.787.163,1.175.274a.974.974,0,0,0,.941-1.616,6.257,6.257,0,0,1-1.535-2.779,10.673,10.673,0,0,1,1.683.235.975.975,0,0,0,.941-1.616,5.274,5.274,0,0,1-1.137-3.989,25.986,25.986,0,0,0,3.638,2.632,17.216,17.216,0,0,0,4.548,2.15.9.9,0,0,0,.8-.147.807.807,0,0,0,.394-1.042,7.924,7.924,0,0,1-.389-4.464,3.882,3.882,0,0,1,5.047-2.484c1.11.5,1.8,1.654,2.857,2.25a2.454,2.454,0,0,0,1.556.227l1.832-.1-.71,1.177a25.189,25.189,0,0,0-1.647,2.728C228.3,493.4,228.835,494.024,229.064,494.694Z" transform="translate(-182.796 -464.629)" fill="#46b2b5"/>
</svg>
