<svg xmlns="http://www.w3.org/2000/svg" width="260.993" height="238.427" viewBox="0 0 260.993 238.427">
  <g id="facebook" transform="translate(21695.994 -5684.586) rotate(-16)">
    <g id="Polígono_1" data-name="Polígono 1" transform="translate(-22439 -458)" fill="#daf6f6" stroke-linecap="round" stroke-linejoin="bevel">
      <path d="M 200.8481597900391 181.4279022216797 L 17.49185943603516 181.4279022216797 C 16.36341667175293 181.4279022216797 15.32256507873535 181.1447601318359 14.39821147918701 180.5863647460938 C 13.53018188476562 180.0619812011719 12.79877090454102 179.3079528808594 12.2830057144165 178.4057769775391 C 11.7672119140625 177.5036010742188 11.48853492736816 176.4907531738281 11.47703552246094 175.4767303466797 C 11.46482944488525 174.3968353271484 11.74888801574707 173.3562469482422 12.32141780853271 172.3838043212891 L 103.9995651245117 16.66628265380859 C 104.5638580322266 15.70781135559082 105.3240051269531 14.96145820617676 106.2588882446289 14.44795894622803 C 107.1374206542969 13.96542930603027 108.1440658569336 13.71037006378174 109.1700057983398 13.71037006378174 C 110.195915222168 13.71037006378174 111.2025909423828 13.96542930603027 112.0811233520508 14.44795894622803 C 113.0160064697266 14.96145820617676 113.7761535644531 15.70781135559082 114.340446472168 16.66631126403809 L 206.0185699462891 172.3838043212891 C 206.5910949707031 173.3562469482422 206.8751831054688 174.3968658447266 206.8629455566406 175.4767303466797 C 206.8514709472656 176.4907531738281 206.5727691650391 177.5036010742188 206.0570068359375 178.4057769775391 C 205.5412445068359 179.3079528808594 204.8098297119141 180.0619812011719 203.9418029785156 180.5863647460938 C 203.0174407958984 181.1447601318359 201.9765930175781 181.4279022216797 200.8481597900391 181.4279022216797 Z" stroke="none"/>
      <path d="M 109.1699752807617 17.71034240722656 C 108.6483688354492 17.71034240722656 107.9259719848633 17.88128662109375 107.4465026855469 18.69564819335938 L 15.76837158203125 174.4131774902344 C 15.28179931640625 175.2396850585938 15.49284362792969 175.9609832763672 15.75556945800781 176.4205474853516 C 16.018310546875 176.8801116943359 16.53280639648438 177.4279174804688 17.49186706542969 177.4279174804688 L 200.84814453125 177.4279174804688 C 201.8072052001953 177.4279174804688 202.3217010498047 176.8801116943359 202.5844116210938 176.4205474853516 C 202.8471374511719 175.9609832763672 203.0582122802734 175.2396850585938 202.5716094970703 174.4131774902344 L 110.8934707641602 18.6956787109375 C 110.4140090942383 17.88128662109375 109.6915740966797 17.71034240722656 109.1699752807617 17.71034240722656 M 109.1699905395508 9.710357666015625 C 112.5118713378906 9.710357666015625 115.8537521362305 11.35252380371094 117.7874069213867 14.63688659667969 L 209.4655456542969 170.3544158935547 C 213.3903045654297 177.020751953125 208.5839996337891 185.4279174804688 200.84814453125 185.4279174804688 L 17.49186706542969 185.4279174804688 C 9.756011962890625 185.4279174804688 4.949676513671875 177.020751953125 8.874435424804688 170.3544158935547 L 100.5525741577148 14.63688659667969 C 102.4862213134766 11.35252380371094 105.8281021118164 9.710357666015625 109.1699905395508 9.710357666015625 Z" stroke="none" fill="#13235a"/>
    </g>
    <g id="Grupo_447" data-name="Grupo 447" transform="translate(-22357.059 -386.885)">
      <path id="Trazado_552" data-name="Trazado 552" d="M192.385,482.235a2.843,2.843,0,0,0-2.814-2.814c-3.883.227-7.8.38-11.693.263-.36-3.739-.47-8.025,1.891-10.838,1.816-2.165,5.729-1.346,8.2-1.209a2.859,2.859,0,0,0,2.814-2.814q.409-7.144.815-14.291a2.408,2.408,0,0,0-2.046-2.643,3.01,3.01,0,0,0-.768-.171c-9.5-.763-19.189-1.18-25.816,6.895-6.118,7.457-7.284,16.862-7.451,26.156q-5.588.054-11.176.11a2.839,2.839,0,0,0-2.814,2.814l.84,12.781a2.853,2.853,0,0,0,2.814,2.814l11.124-.6c.011.2.027.419.032.6.092,3.494.254,6.985.43,10.474.416,8.241.885,16.5,1.8,24.7a2.927,2.927,0,0,0,2.814,2.814,52.587,52.587,0,0,0,18.473-1.254,2.844,2.844,0,0,0,2.064-2.713l-.99-33.888,8.853-.126a2.855,2.855,0,0,0,2.814-2.814Q192.487,489.36,192.385,482.235Zm-28.458,49.6c-.689-6.881-1.105-13.794-1.465-20.7-.18-3.419-.34-6.843-.452-10.267-.038-1.13-.077-2.262-.085-3.395,0-.335.034-.7,0-1.033l0,0a4.812,4.812,0,0,1-.306.617,3.262,3.262,0,0,0,.013-2.757,2.691,2.691,0,0,0-1.042-1.058,3.006,3.006,0,0,0-1.4-.313l.013-.023-11.4.615q-.23-3.522-.461-7.041l10.966-.108a2.858,2.858,0,0,0,2.814-2.814c0-8.576.243-17.913,5.83-24.963,4.812-6.073,11.885-6.019,18.876-5.486l-.5,8.783c-3.574-.1-7.221.243-9.681,3.151-4.047,4.783-3.709,11.525-3.1,17.355a2.9,2.9,0,0,0,2.814,2.814,101.775,101.775,0,0,0,11.455-.018q.061,4.261.119,8.522l-8.893.126a2.852,2.852,0,0,0-2.814,2.814q.5,17.186,1.006,34.37A47.719,47.719,0,0,1,163.927,531.833Z" transform="translate(-141.519 -447.336)" fill="#13235a"/>
      <path id="Trazado_553" data-name="Trazado 553" d="M150.587,469.428c.312-.761-.073-.666,0,0Z" transform="translate(-130.182 -420.346)" fill="#13235a"/>
    </g>
  </g>
</svg>
