<svg xmlns="http://www.w3.org/2000/svg" width="195" height="196" viewBox="0 0 195 196">
  <g id="instagram" transform="translate(21859.055 329.15)">
    <g id="Elipse_2" data-name="Elipse 2" transform="translate(-21859.055 -329.15)" fill="#ffeec7" stroke="#ffaf00" stroke-width="8">
      <ellipse cx="97.5" cy="98" rx="97.5" ry="98" stroke="none"/>
      <ellipse cx="97.5" cy="98" rx="93.5" ry="94" fill="none"/>
    </g>
    <g id="Grupo_445" data-name="Grupo 445" transform="translate(-21823.453 -276.825) rotate(-9)">
      <path id="Trazado_554" data-name="Trazado 554" d="M83.434,61.048l-.84-31.189C82.359,21.12,83.831,4.5,73.115,1.3a3.176,3.176,0,0,0-.827-.263C65.363-.082,58.006.356,51.024.263Q37.252.074,23.48.041C16.565.014,9.72-.357,5.058,5.83-1.557,14.609.205,27.3.364,37.507.5,46.315.076,55.358,1.384,64.091c.743,4.962,2.335,10.176,5.933,13.843,4.165,4.249,9.858,4.967,15.463,4.984q14.957.042,29.914.045c9.61-.007,21.633,1.711,27.749-7.52C83.364,71.031,83.571,66.167,83.434,61.048Zm-6.789,8.258c-3.065,9.092-13.66,7.48-21.314,7.489q-14.419.018-28.834-.032c-4.543-.013-8.844.592-12.766-1.59-3.09-1.718-4.635-5.048-5.538-8.339C6.146,59.373,6.721,51.24,6.6,43.586c-.115-7.042-.527-14.156-.289-21.192a26.938,26.938,0,0,1,2.148-10.34C10.335,8,13.449,5.994,17.908,6.128c1.551.046,3.1.068,4.651.073q13.444.051,26.89.2c4.624.058,9.245.128,13.866.256,1.671.047,3.34.1,5.009.179.591.03,1.181.071,1.772.106.255.013.459.035.614.05,4,.918,4.833,6.247,5.26,9.712.484,3.956.349,7.967.455,11.944l.71,26.388C77.26,59.674,78.15,64.84,76.645,69.306Z" transform="matrix(0.914, 0.407, -0.407, 0.914, 33.595, -0.028)" fill="#ffaf00"/>
      <path id="Trazado_555" data-name="Trazado 555" d="M29.816,5.2C25.853,1.594,20.878-.489,15.573.133A18.7,18.7,0,0,0,7.032,3.038,15.964,15.964,0,0,0,.568,12.722c-1.766,8.314.662,18.17,8.818,22.188,8.1,3.99,18.308,1.62,23.348-6A18.616,18.616,0,0,0,29.816,5.2Zm-.889,17.591a11.888,11.888,0,0,1-14.153,7.585c-7.274-1.765-9.694-9.38-8.287-16A9.548,9.548,0,0,1,9.842,8.587c.088-.069.221-.175.294-.224.216-.145.436-.29.662-.426a13.65,13.65,0,0,1,1.474-.762c.01-.007,0,0,0,0l.182-.057c.267-.088.532-.187.8-.27q.718-.221,1.455-.378c.216-.044.434-.083.65-.125.049-.01.2-.034.321-.054s.243-.029.292-.034c.218-.019.437-.041.655-.056.631-.041,1.266-.057,1.9-.039.25.008.508.02.761.045a7.149,7.149,0,0,0,.678.24,13.765,13.765,0,0,1,2.178.871A13.771,13.771,0,0,1,28.706,13.9,12.5,12.5,0,0,1,28.927,22.788Z" transform="matrix(0.914, 0.407, -0.407, 0.914, 46.73, 32.598)" fill="#ffaf00"/>
      <path id="Trazado_556" data-name="Trazado 556" d="M9.792,2.58a7.579,7.579,0,0,0-.733-.926A7.275,7.275,0,0,0,8.126.9,4.921,4.921,0,0,0,6.667.209,5.834,5.834,0,0,0,5.452.015,2.218,2.218,0,0,0,4.99.024a2.294,2.294,0,0,0-.8.122,2.132,2.132,0,0,0-.449.091,7.366,7.366,0,0,0-1.006.43,4.178,4.178,0,0,0-.593.423,4.77,4.77,0,0,0-.542.45,8.23,8.23,0,0,0-.681.867A5.655,5.655,0,0,0,.3,3.726,6.057,6.057,0,0,0,.03,5.193a5.4,5.4,0,0,0,.6,2.849,2.522,2.522,0,0,0,.15.276,6.882,6.882,0,0,0,.676.876,4.239,4.239,0,0,0,.548.459,3.993,3.993,0,0,0,.617.437,5.346,5.346,0,0,0,2.8.662,6.179,6.179,0,0,0,1.467-.24,9.781,9.781,0,0,0,1.008-.42,3.064,3.064,0,0,0,.319-.175,8.866,8.866,0,0,0,.856-.657,1.9,1.9,0,0,0,.255-.254,7.372,7.372,0,0,0,.654-.857,4.48,4.48,0,0,0,.311-.67,4.047,4.047,0,0,0,.254-.7A6.536,6.536,0,0,0,10.7,5.6a4.806,4.806,0,0,0-.211-1.527A5.27,5.27,0,0,0,9.792,2.58ZM5.9,5.906l-.145.111-.338.145A2.388,2.388,0,0,0,5.9,5.906Z" transform="matrix(0.914, 0.407, -0.407, 0.914, 84.335, 36.919)" fill="#ffaf00"/>
    </g>
  </g>
</svg>
